<svg version="1.1" id="Layer_1" xmlns="http://www.w3.org/2000/svg" xmlns:xlink="http://www.w3.org/1999/xlink" x="0px" y="0px"
	 width="100%" viewBox="0 0 126 262" enable-background="new 0 0 126 262" xml:space="preserve">
<path fill="#FFFFFF" opacity="1.000000" stroke="none" 
	d="
M1.000001,225.000000 
	C1.000000,150.410980 1.000000,75.821953 1.000000,1.116465 
	C42.878395,1.116465 84.757217,1.116465 127.000000,1.116465 
	C127.000000,24.352968 127.000000,47.707825 126.757431,71.434776 
	C126.064987,71.542603 125.615097,71.278343 124.967194,70.654343 
	C124.511017,68.196632 124.252876,66.098656 124.167274,63.905708 
	C124.198387,63.537449 124.056961,63.264156 123.695267,62.774033 
	C123.517746,61.975739 123.560501,61.394268 123.666687,60.458855 
	C123.464493,59.729080 123.198875,59.353249 122.712738,58.854027 
	C122.529709,58.413944 122.567184,58.097248 122.714020,57.382187 
	C122.442177,56.349682 122.060966,55.715542 121.446320,54.885857 
	C121.190712,54.120075 121.168533,53.549839 121.296478,52.869965 
	C121.282585,52.504982 121.118561,52.249638 120.678772,51.783463 
	C120.301025,50.710152 120.199051,49.847672 120.252243,48.875462 
	C120.226395,48.526001 120.045395,48.286270 119.550766,47.826843 
	C117.363541,41.009689 115.489960,34.412228 113.672348,27.458654 
	C113.459007,26.727459 113.189705,26.352379 112.640518,25.737579 
	C110.220894,20.135010 108.296188,14.673243 105.886353,9.434641 
	C102.951050,3.053751 98.560112,2.261655 93.393051,6.886545 
	C91.197182,8.852015 89.128426,10.959505 86.767426,13.135801 
	C86.379311,13.586374 86.225670,13.903596 86.002502,14.550391 
	C81.638893,20.258532 77.344803,25.637098 72.800278,31.146915 
	C72.393478,31.612276 72.237122,31.946388 72.043823,32.610008 
	C70.957695,34.292679 69.908516,35.645840 68.529800,37.058060 
	C67.833786,37.838070 67.467300,38.559021 67.059059,39.559486 
	C66.156677,40.283115 65.296051,40.727230 64.284485,41.706825 
	C64.089180,42.610546 64.044815,42.978783 63.816872,43.620369 
	C61.689812,46.927902 59.746326,49.962090 57.571236,53.014614 
	C57.298126,53.384407 57.256622,53.735867 57.202080,54.377419 
	C56.893700,55.148769 56.598362,55.630020 55.898815,56.133049 
	C55.046883,57.286716 54.599163,58.418606 54.263435,59.897060 
	C52.732151,63.207821 51.088871,66.172020 49.229652,69.136124 
	C48.885788,69.192879 48.757866,69.249733 48.629944,69.306587 
	C48.740871,69.534904 48.851799,69.763229 49.100166,70.317802 
	C48.327457,72.458496 47.417305,74.272926 46.128258,76.240112 
	C45.560642,77.152580 45.371922,77.912308 45.135345,79.006653 
	C43.986103,83.243317 42.884720,87.145355 41.578842,91.296341 
	C41.419868,91.959930 41.465389,92.374565 41.654823,93.160347 
	C40.892479,99.016281 39.986221,104.501060 38.893269,110.068924 
	C38.633228,110.265083 38.475002,110.449661 38.500298,110.479675 
	C38.665085,110.675331 38.869686,110.837448 39.323402,111.365601 
	C38.862762,116.141724 38.139988,120.562759 37.189919,125.026917 
	C36.840527,125.157104 36.605007,125.306885 36.613289,125.321869 
	C36.746292,125.562439 36.910374,125.785835 37.334648,126.343590 
	C37.280155,129.740021 37.083847,132.825729 36.605915,135.867157 
	C35.962837,139.959579 35.102558,144.017868 33.976738,148.275238 
	C33.460827,149.781631 33.303684,151.103577 33.324867,152.767334 
	C32.099911,156.375854 30.696636,159.642563 28.973652,163.128296 
	C28.541046,163.835419 28.428152,164.323563 28.439671,165.128418 
	C27.768641,166.979828 26.973192,168.514526 25.877972,170.237595 
	C25.472498,170.874939 25.366798,171.323898 25.393658,172.088989 
	C24.728001,173.948959 23.929783,175.492783 22.842041,177.223160 
	C22.432575,177.844284 22.312632,178.278885 22.334589,179.028687 
	C21.677870,180.903519 20.879250,182.463120 19.803789,184.208099 
	C19.399595,184.812332 19.272240,185.231201 19.300785,185.917023 
	C19.009306,186.802902 18.561926,187.421814 17.933180,188.084778 
	C17.659124,188.209305 17.474110,188.325043 17.489132,188.364349 
	C17.570477,188.577194 17.701294,188.771133 17.939838,189.263412 
	C17.724943,190.041428 17.385273,190.527618 16.782618,191.186615 
	C16.386929,191.751190 16.254227,192.142975 16.266354,192.819641 
	C15.964959,193.744781 15.518733,194.385056 14.775152,195.256287 
	C14.391351,196.221542 14.304904,196.955841 14.174725,197.999817 
	C13.446848,199.548019 12.762707,200.786530 11.780724,202.252228 
	C11.388224,203.208923 11.293565,203.938461 11.155142,204.999664 
	C8.512724,211.526642 5.956530,217.740662 3.246943,223.887070 
	C2.988138,224.474136 1.771809,224.639084 1.000001,225.000000 
z"/>
<path fill="#F6F5F7" opacity="1.000000" stroke="none" 
	d="
M127.000000,105.000000 
	C127.000000,157.566742 127.000000,210.133484 127.000000,263.000000 
	C102.979935,263.000000 78.958626,263.000000 54.468597,262.715790 
	C54.004124,262.242157 54.008369,262.052704 54.404289,261.874573 
	C59.474342,262.564209 60.999802,258.931091 62.971924,255.907837 
	C63.741863,254.727524 64.370483,253.414627 65.317390,252.398834 
	C67.106232,250.479782 70.028534,249.065399 70.804932,246.853424 
	C73.632149,238.798584 75.502937,230.408203 78.326309,222.351791 
	C79.164787,219.959213 81.791077,218.040985 83.967339,216.392883 
	C84.423767,216.047241 87.043732,217.525192 87.745735,218.708984 
	C91.583664,225.181000 95.536644,231.639603 98.654465,238.466202 
	C101.087563,243.793564 104.623474,246.183838 110.302277,246.864868 
	C117.285172,247.702286 118.811867,246.713074 118.310692,239.767868 
	C116.711235,217.603363 115.007935,195.446136 113.487221,173.276321 
	C113.182999,168.841293 112.816322,164.226654 113.665192,159.929245 
	C116.819611,143.960129 120.407356,128.074814 123.997047,112.195251 
	C124.561539,109.698158 125.977654,107.393585 127.000000,105.000000 
z"/>
<path fill="#2C2F34" opacity="1.000000" stroke="none" 
	d="
M127.000000,104.539368 
	C125.977654,107.393585 124.561539,109.698158 123.997047,112.195251 
	C120.407356,128.074814 116.819611,143.960129 113.665192,159.929245 
	C112.816322,164.226654 113.182999,168.841293 113.487221,173.276321 
	C115.007935,195.446136 116.711235,217.603363 118.310692,239.767868 
	C118.811867,246.713074 117.285172,247.702286 110.302277,246.864868 
	C104.623474,246.183838 101.087563,243.793564 98.654465,238.466202 
	C95.536644,231.639603 91.583664,225.181000 87.745735,218.708984 
	C87.043732,217.525192 84.423767,216.047241 83.967339,216.392883 
	C81.791077,218.040985 79.164787,219.959213 78.326309,222.351791 
	C75.502937,230.408203 73.632149,238.798584 70.804932,246.853424 
	C70.028534,249.065399 67.106232,250.479782 65.317390,252.398834 
	C64.370483,253.414627 63.741863,254.727524 62.971924,255.907837 
	C60.999802,258.931091 59.474342,262.564209 54.267075,261.627686 
	C53.401176,260.918213 53.064171,260.466858 52.735840,259.634827 
	C50.918037,255.137024 49.091553,251.019943 47.299805,246.547241 
	C47.105705,245.782684 46.876865,245.373703 46.710304,244.729248 
	C46.772587,244.493744 46.550415,244.060181 46.670006,243.727997 
	C46.705242,242.938248 46.620884,242.480682 46.599426,241.707977 
	C46.499107,240.573593 46.335884,239.754349 46.275101,238.603806 
	C46.228767,237.846436 46.079990,237.420364 46.070797,236.752289 
	C46.133411,236.340637 46.056446,236.171021 46.128345,235.631012 
	C46.108345,234.498383 45.939476,233.736176 45.922321,232.748962 
	C46.018562,232.351807 45.963081,232.179626 46.070972,231.685333 
	C46.134182,230.904709 46.034023,230.446182 46.128803,229.656372 
	C46.431396,227.544144 46.539047,225.763229 46.769917,223.690765 
	C46.632992,222.915970 46.372852,222.432693 46.144897,221.722961 
	C46.177090,221.496506 46.077972,221.049911 46.048069,221.020493 
	C46.018166,220.991074 46.058224,221.064163 46.412601,221.080521 
	C46.557194,219.946487 46.347408,218.796112 46.261024,217.568390 
	C46.384426,217.491074 46.365086,217.200455 46.711937,217.299835 
	C47.414314,216.249069 48.336197,214.897949 48.013493,213.988419 
	C47.215698,211.739899 45.847866,209.693649 44.490685,207.158005 
	C41.132381,210.292023 37.549435,213.635696 33.983711,216.989655 
	C34.000938,216.999954 33.979580,216.965866 33.690407,217.040100 
	C32.886620,217.708099 32.372009,218.301880 31.896544,218.924713 
	C31.935688,218.953781 31.925640,218.856781 31.628014,218.897736 
	C31.182871,219.275589 31.035358,219.612488 30.927711,219.941986 
	C30.967579,219.934616 30.928904,219.863342 30.673994,219.957397 
	C30.254280,220.358673 30.089476,220.665894 29.649155,220.963013 
	C29.258446,221.096161 29.143255,221.239380 28.729084,221.411987 
	C27.450480,222.397446 26.470856,223.353485 25.461052,224.371460 
	C25.430870,224.433411 25.302176,224.482712 25.080772,224.620651 
	C24.397556,225.270233 23.935740,225.781891 23.448576,226.359436 
	C23.423229,226.425308 23.299520,226.493317 23.150560,226.565445 
	C22.816994,226.765182 22.670942,226.927490 22.447945,227.181900 
	C22.332443,227.239319 22.137310,227.408035 21.910751,227.518997 
	C21.412247,228.053101 21.140301,228.476257 20.898821,228.939362 
	C20.929287,228.979294 20.927713,228.878845 20.615192,228.828644 
	C19.512461,229.461090 18.722252,230.143723 17.581568,230.804230 
	C16.807945,230.977753 16.384800,231.173401 15.732746,231.284973 
	C15.503839,231.200912 15.032315,231.325531 14.688603,231.141113 
	C13.860933,231.057434 13.376976,231.158188 12.712587,230.923767 
	C10.014840,230.198532 7.497524,229.808487 4.697488,229.133942 
	C3.276514,228.232956 2.138258,227.616470 1.000001,227.000000 
	C1.000000,226.555557 1.000000,226.111099 1.000001,225.333328 
	C1.771809,224.639084 2.988138,224.474136 3.246943,223.887070 
	C5.956530,217.740662 8.512724,211.526642 11.432004,204.754532 
	C11.861273,203.460175 11.969916,202.742599 12.078562,202.025040 
	C12.762707,200.786530 13.446848,199.548019 14.458202,197.755722 
	C14.881112,196.476410 14.976810,195.750870 15.072508,195.025330 
	C15.518733,194.385056 15.964959,193.744781 16.531044,192.643539 
	C16.782467,191.792984 16.914030,191.403397 17.045597,191.013809 
	C17.385273,190.527618 17.724943,190.041428 18.095530,189.056702 
	C18.122478,188.385681 18.118511,188.213196 18.114546,188.040710 
	C18.561926,187.421814 19.009306,186.802902 19.571211,185.722046 
	C19.817369,184.847641 19.949003,184.435181 20.080631,184.022720 
	C20.879250,182.463120 21.677870,180.903519 22.611961,178.829285 
	C22.875475,177.888626 23.003517,177.462631 23.131561,177.036621 
	C23.929783,175.492783 24.728001,173.948959 25.674088,171.883469 
	C25.940552,170.924286 26.059149,170.486755 26.177746,170.049225 
	C26.973192,168.514526 27.768641,166.979828 28.742008,164.899567 
	C29.044405,163.872421 29.168882,163.390854 29.293360,162.909286 
	C30.696636,159.642563 32.099911,156.375854 33.666546,152.719269 
	C33.998436,150.916550 34.166969,149.503677 34.335506,148.090805 
	C35.102558,144.017868 35.962837,139.959579 36.605915,135.867157 
	C37.083847,132.825729 37.280155,129.740021 37.497551,126.111908 
	C37.401203,125.361122 37.409210,125.172462 37.417213,124.983803 
	C38.139988,120.562759 38.862762,116.141724 39.413818,111.110992 
	C39.188053,110.329483 39.134007,110.157669 39.079960,109.985847 
	C39.986221,104.501060 40.892479,99.016281 41.864208,92.917007 
	C41.880898,91.884148 41.832115,91.465767 41.783333,91.047386 
	C42.884720,87.145355 43.986103,83.243317 45.399368,78.746437 
	C45.976547,77.463516 46.241848,76.775436 46.507149,76.087364 
	C47.417305,74.272926 48.327457,72.458496 49.327152,70.163956 
	C49.426323,69.501305 49.435959,69.318764 49.445591,69.136215 
	C51.088871,66.172020 52.732151,63.207821 54.561317,59.704605 
	C55.265812,58.147484 55.784420,57.129379 56.303024,56.111275 
	C56.598362,55.630020 56.893700,55.148769 57.422749,54.287407 
	C57.863255,53.629013 57.912048,53.325340 57.802841,52.996277 
	C59.746326,49.962090 61.689812,46.927902 64.170006,43.468468 
	C64.616287,42.419266 64.525856,41.795303 64.435425,41.171345 
	C65.296051,40.727230 66.156677,40.283115 67.301468,39.386345 
	C68.010201,38.288788 68.434769,37.643894 68.859337,36.999001 
	C69.908516,35.645840 70.957695,34.292679 72.298775,32.487564 
	C72.744019,31.695625 72.897369,31.355648 73.050720,31.015667 
	C77.344803,25.637098 81.638893,20.258532 86.238647,14.420167 
	C86.696854,13.641064 86.849380,13.321758 87.001900,13.002451 
	C89.128426,10.959505 91.197182,8.852015 93.393051,6.886545 
	C98.560112,2.261655 102.951050,3.053751 105.886353,9.434641 
	C108.296188,14.673243 110.220894,20.135010 112.622025,26.089832 
	C113.127747,27.059460 113.372063,27.437113 113.616379,27.814766 
	C115.489960,34.412228 117.363541,41.009689 119.533432,48.080193 
	C119.918854,48.697224 120.007965,48.841209 120.097076,48.985191 
	C120.199051,49.847672 120.301025,50.710152 120.634872,52.047676 
	C120.959961,52.675018 121.053162,52.827312 121.146362,52.979603 
	C121.168533,53.549839 121.190712,54.120075 121.436172,55.259178 
	C121.974533,56.478878 122.289604,57.129715 122.604660,57.780552 
	C122.567184,58.097248 122.529709,58.413944 122.705231,59.204376 
	C123.146576,60.056339 123.374916,60.434570 123.603256,60.812801 
	C123.560501,61.394268 123.517746,61.975739 123.636604,63.032646 
	C123.863716,63.672283 123.929222,63.836483 123.994728,64.000679 
	C124.252876,66.098656 124.511017,68.196632 124.812286,70.991333 
	C124.918434,73.777054 124.981453,75.866043 124.987167,78.397934 
	C125.141838,80.293556 125.353828,81.746292 125.541824,83.485641 
	C125.667015,84.523346 125.816208,85.274414 125.888168,86.437752 
	C126.207298,88.900009 126.603645,90.950005 127.000000,93.000000 
	C127.000000,96.692909 127.000000,100.385818 127.000000,104.539368 
M75.804848,214.999481 
	C79.548409,215.580490 80.384804,213.492111 80.833786,210.270294 
	C82.250023,209.891907 83.666252,209.513519 85.752007,209.188553 
	C91.065697,218.312744 96.480530,227.380020 101.657631,236.581070 
	C105.126015,242.745285 107.222481,243.891357 114.614891,242.504089 
	C114.096794,235.139313 113.529930,227.748444 113.067184,220.351044 
	C112.323059,208.455673 111.740891,196.549423 110.903809,184.660904 
	C110.488312,178.760025 109.657875,172.888367 109.078827,166.160400 
	C112.221764,151.259491 115.509377,136.387161 118.458755,121.448044 
	C120.561050,110.799515 124.717697,100.467987 122.885422,89.182610 
	C121.532990,80.852623 120.927963,72.401283 119.982719,63.509186 
	C119.883507,63.164673 119.664421,62.934113 119.302750,62.730701 
	C119.302750,62.730701 119.268036,62.647968 119.212112,61.892490 
	C114.023140,45.622879 108.923309,29.323538 103.520844,13.125131 
	C102.915192,11.309181 100.594833,10.065116 98.548157,8.200130 
	C97.224655,9.060109 95.638733,9.685479 94.623474,10.821041 
	C90.430687,15.510661 86.143883,20.155472 82.385895,25.185982 
	C75.655403,34.195515 69.281494,43.471432 62.199097,53.067078 
	C58.650234,60.184349 55.015259,67.260452 51.585442,74.434639 
	C49.589725,78.609108 46.896210,82.798660 46.283192,87.226021 
	C43.398117,108.062729 41.124416,128.984085 38.268936,150.334625 
	C38.237137,150.909424 38.205341,151.484238 38.103275,152.706772 
	C38.057571,153.138687 38.011864,153.570602 37.390190,154.397156 
	C27.124256,177.947968 16.858318,201.498779 6.595514,225.042404 
	C14.260353,228.392227 16.229343,228.025040 21.509027,223.072800 
	C25.511713,219.318375 29.566942,215.614044 33.719101,212.026688 
	C37.474319,208.782303 41.392509,205.726532 45.903988,202.950699 
	C50.596512,204.046051 55.289032,205.141403 59.909946,207.008530 
	C59.525970,208.819336 59.141998,210.630142 58.046993,212.292435 
	C57.075508,212.281754 56.104023,212.271072 54.395130,212.191345 
	C47.870953,223.289413 49.649971,235.216843 50.944778,247.086548 
	C51.005760,247.645584 51.470711,248.160553 51.876060,248.944687 
	C52.967659,247.767731 53.798595,246.871811 54.155666,246.486832 
	C55.080940,250.333038 56.012985,254.207397 57.603195,257.808411 
	C60.003380,253.017105 62.403561,248.225815 65.185257,242.672943 
	C65.649261,244.720932 65.939857,246.003571 66.286613,247.534058 
	C72.028320,238.917282 75.122673,227.174835 75.804848,214.999481 
z"/>
<path fill="#FFFFFF" opacity="1.000000" stroke="none" 
	d="
M45.933865,229.987656 
	C46.034023,230.446182 46.134182,230.904709 45.904480,231.754303 
	C45.504665,232.241867 45.354206,232.379944 45.378819,232.427597 
	C45.480564,232.624619 45.635319,232.794266 45.770599,232.973953 
	C45.939476,233.736176 46.108345,234.498383 45.950203,235.707123 
	C45.554367,236.261734 45.403042,236.430023 45.430584,236.467743 
	C45.572182,236.661713 45.759716,236.822159 45.931213,236.994308 
	C46.079990,237.420364 46.228767,237.846436 46.005234,238.762146 
	C45.934124,240.175568 46.235329,241.099335 46.536530,242.023117 
	C46.620884,242.480682 46.705242,242.938248 46.554405,243.825882 
	C46.201740,244.586136 46.311348,244.822403 46.648026,244.964737 
	C46.876865,245.373703 47.105705,245.782684 47.001862,246.733398 
	C46.440403,252.590897 49.320972,256.428192 52.727165,260.015533 
	C53.064171,260.466858 53.401176,260.918213 53.875397,261.616394 
	C54.008369,262.052704 54.004124,262.242157 53.999939,262.715790 
	C36.420631,263.000000 18.841265,263.000000 1.000000,263.000000 
	C1.000000,251.313736 1.000000,239.625534 1.000001,227.468658 
	C2.138258,227.616470 3.276514,228.232956 4.798482,229.461395 
	C7.752470,230.468552 10.322744,230.863739 12.893018,231.258942 
	C13.376976,231.158188 13.860933,231.057434 14.770620,231.276855 
	C15.196348,231.597031 15.628386,231.680679 15.628386,231.680679 
	C15.628386,231.680679 15.961654,231.369049 15.961654,231.369049 
	C16.384800,231.173401 16.807945,230.977753 17.752954,231.077286 
	C19.159115,230.541260 20.043413,229.710052 20.927711,228.878845 
	C20.927713,228.878845 20.929287,228.979294 21.257233,228.954163 
	C21.769220,228.422028 21.953266,227.915024 22.137310,227.408035 
	C22.137310,227.408035 22.332443,227.239319 22.706411,227.357483 
	C23.153427,227.148209 23.226475,226.820755 23.299522,226.493317 
	C23.299520,226.493317 23.423229,226.425308 23.821854,226.556137 
	C24.581043,225.952209 24.941610,225.217468 25.302177,224.482712 
	C25.302176,224.482712 25.430870,224.433411 25.798389,224.556808 
	C27.119961,223.581009 28.074015,222.481796 29.028069,221.382599 
	C29.143255,221.239380 29.258446,221.096161 29.906691,220.875153 
	C30.602798,220.486023 30.765856,220.174683 30.928909,219.863342 
	C30.928904,219.863342 30.967579,219.934616 31.180569,219.848541 
	C31.570921,219.460587 31.748281,219.158676 31.925640,218.856781 
	C31.925640,218.856781 31.935688,218.953781 32.240387,218.936127 
	C33.023251,218.267593 33.501419,217.616730 33.979584,216.965866 
	C33.979580,216.965866 34.000938,216.999954 34.356682,217.001678 
	C36.748802,215.754089 38.884113,214.638321 40.796413,213.221542 
	C43.166531,211.465546 44.573055,211.414307 45.047989,214.765457 
	C45.169395,215.622131 45.909328,216.391159 46.365086,217.200455 
	C46.365086,217.200455 46.384426,217.491074 46.213898,217.994232 
	C46.048317,219.352966 46.053272,220.208572 46.058224,221.064163 
	C46.058224,221.064163 46.018166,220.991074 45.850121,221.080719 
	C45.825615,221.430054 45.969162,221.689743 46.112709,221.949432 
	C46.372852,222.432693 46.632992,222.915970 46.428963,223.784836 
	C45.954487,226.109512 45.944176,228.048584 45.933865,229.987656 
z"/>
<path fill="#FDFCFD" opacity="1.000000" stroke="none" 
	d="
M125.044472,77.955040 
	C124.981453,75.866043 124.918434,73.777054 125.010315,71.351067 
	C125.615097,71.278343 126.064987,71.542603 126.757431,71.903435 
	C127.000000,73.714355 127.000000,75.428719 126.676514,77.639587 
	C125.916840,78.075752 125.480652,78.015396 125.044472,77.955040 
z"/>
<path fill="#8F8C96" opacity="1.000000" stroke="none" 
	d="
M124.987167,78.397934 
	C125.480652,78.015396 125.916840,78.075752 126.676514,78.068054 
	C127.000000,79.388893 127.000000,80.777779 126.757217,82.586334 
	C126.207588,83.116348 125.891380,83.180687 125.565811,83.199020 
	C125.353828,81.746292 125.141838,80.293556 124.987167,78.397934 
z"/>
<path fill="#8F8C96" opacity="1.000000" stroke="none" 
	d="
M127.000000,92.562500 
	C126.603645,90.950005 126.207298,88.900009 126.146713,86.426231 
	C126.654991,86.001625 126.827492,86.000809 127.000000,86.000000 
	C127.000000,88.041664 127.000000,90.083336 127.000000,92.562500 
z"/>
<path fill="#CBC8D1" opacity="1.000000" stroke="none" 
	d="
M127.000000,85.625000 
	C126.827492,86.000809 126.654991,86.001625 126.223938,86.013969 
	C125.816208,85.274414 125.667015,84.523346 125.541824,83.485641 
	C125.891380,83.180687 126.207588,83.116348 126.757217,83.002998 
	C127.000000,83.750000 127.000000,84.500000 127.000000,85.625000 
z"/>
<path fill="#FDFCFD" opacity="1.000000" stroke="none" 
	d="
M33.976738,148.275238 
	C34.166969,149.503677 33.998436,150.916550 33.488220,152.377472 
	C33.303684,151.103577 33.460827,149.781631 33.976738,148.275238 
z"/>
<path fill="#FDFCFD" opacity="1.000000" stroke="none" 
	d="
M55.898819,56.133049 
	C55.784420,57.129379 55.265812,58.147484 54.449318,59.358040 
	C54.599163,58.418606 55.046883,57.286716 55.898819,56.133049 
z"/>
<path fill="#FDFCFD" opacity="1.000000" stroke="none" 
	d="
M68.529800,37.058060 
	C68.434769,37.643894 68.010201,38.288788 67.343224,39.106827 
	C67.467300,38.559021 67.833786,37.838070 68.529800,37.058060 
z"/>
<path fill="#FDFCFD" opacity="1.000000" stroke="none" 
	d="
M122.714020,57.382187 
	C122.289604,57.129715 121.974533,56.478878 121.669617,55.454727 
	C122.060966,55.715542 122.442177,56.349682 122.714020,57.382187 
z"/>
<path fill="#FDFCFD" opacity="1.000000" stroke="none" 
	d="
M11.780721,202.252228 
	C11.969916,202.742599 11.861273,203.460175 11.475767,204.422852 
	C11.293565,203.938461 11.388224,203.208923 11.780721,202.252228 
z"/>
<path fill="#FDFCFD" opacity="1.000000" stroke="none" 
	d="
M14.775152,195.256287 
	C14.976810,195.750870 14.881112,196.476410 14.501936,197.446045 
	C14.304904,196.955841 14.391351,196.221542 14.775152,195.256287 
z"/>
<path fill="#FDFCFD" opacity="1.000000" stroke="none" 
	d="
M57.571236,53.014614 
	C57.912048,53.325340 57.863255,53.629013 57.435791,53.997311 
	C57.256622,53.735867 57.298126,53.384407 57.571236,53.014614 
z"/>
<path fill="#FDFCFD" opacity="1.000000" stroke="none" 
	d="
M46.128258,76.240112 
	C46.241848,76.775436 45.976547,77.463516 45.447227,78.411804 
	C45.371922,77.912308 45.560642,77.152580 46.128258,76.240112 
z"/>
<path fill="#FDFCFD" opacity="1.000000" stroke="none" 
	d="
M41.578842,91.296341 
	C41.832115,91.465767 41.880898,91.884148 41.720291,92.545868 
	C41.465389,92.374565 41.419868,91.959930 41.578842,91.296341 
z"/>
<path fill="#FDFCFD" opacity="1.000000" stroke="none" 
	d="
M86.767426,13.135802 
	C86.849380,13.321758 86.696854,13.641064 86.308182,14.090594 
	C86.225670,13.903596 86.379311,13.586374 86.767426,13.135802 
z"/>
<path fill="#FDFCFD" opacity="1.000000" stroke="none" 
	d="
M121.296478,52.869965 
	C121.053162,52.827312 120.959961,52.675018 120.910652,52.258507 
	C121.118561,52.249638 121.282585,52.504982 121.296478,52.869965 
z"/>
<path fill="#FDFCFD" opacity="1.000000" stroke="none" 
	d="
M123.666687,60.458855 
	C123.374916,60.434570 123.146576,60.056339 122.925751,59.327766 
	C123.198875,59.353249 123.464493,59.729080 123.666687,60.458855 
z"/>
<path fill="#FDFCFD" opacity="1.000000" stroke="none" 
	d="
M124.167274,63.905708 
	C123.929222,63.836483 123.863716,63.672283 123.856873,63.249474 
	C124.056961,63.264156 124.198387,63.537449 124.167274,63.905708 
z"/>
<path fill="#FDFCFD" opacity="1.000000" stroke="none" 
	d="
M49.229652,69.136124 
	C49.435959,69.318764 49.426323,69.501305 49.189705,69.837692 
	C48.851799,69.763229 48.740871,69.534904 48.629944,69.306587 
	C48.757866,69.249733 48.885788,69.192879 49.229652,69.136124 
z"/>
<path fill="#FDFCFD" opacity="1.000000" stroke="none" 
	d="
M17.933180,188.084778 
	C18.118511,188.213196 18.122478,188.385681 17.970757,188.764893 
	C17.701294,188.771133 17.570477,188.577194 17.489132,188.364349 
	C17.474110,188.325043 17.659124,188.209305 17.933180,188.084778 
z"/>
<path fill="#FDFCFD" opacity="1.000000" stroke="none" 
	d="
M120.252243,48.875462 
	C120.007965,48.841209 119.918854,48.697224 119.847069,48.299889 
	C120.045395,48.286270 120.226395,48.526001 120.252243,48.875462 
z"/>
<path fill="#FDFCFD" opacity="1.000000" stroke="none" 
	d="
M38.893269,110.068924 
	C39.134007,110.157669 39.188053,110.329483 39.151680,110.755920 
	C38.869686,110.837448 38.665085,110.675331 38.500298,110.479675 
	C38.475002,110.449661 38.633228,110.265083 38.893269,110.068924 
z"/>
<path fill="#FDFCFD" opacity="1.000000" stroke="none" 
	d="
M37.189915,125.026917 
	C37.409210,125.172462 37.401203,125.361122 37.230289,125.781464 
	C36.910374,125.785835 36.746292,125.562439 36.613289,125.321869 
	C36.605007,125.306885 36.840527,125.157104 37.189915,125.026917 
z"/>
<path fill="#FDFCFD" opacity="1.000000" stroke="none" 
	d="
M64.284485,41.706825 
	C64.525856,41.795303 64.616287,42.419266 64.353584,43.195122 
	C64.044815,42.978783 64.089180,42.610546 64.284485,41.706825 
z"/>
<path fill="#FDFCFD" opacity="1.000000" stroke="none" 
	d="
M28.973652,163.128296 
	C29.168882,163.390854 29.044405,163.872421 28.617592,164.582840 
	C28.428152,164.323563 28.541046,163.835419 28.973652,163.128296 
z"/>
<path fill="#FDFCFD" opacity="1.000000" stroke="none" 
	d="
M113.672348,27.458652 
	C113.372063,27.437113 113.127747,27.059460 112.901917,26.329552 
	C113.189705,26.352379 113.459007,26.727459 113.672348,27.458652 
z"/>
<path fill="#FDFCFD" opacity="1.000000" stroke="none" 
	d="
M72.800278,31.146915 
	C72.897369,31.355648 72.744019,31.695625 72.335716,32.158054 
	C72.237122,31.946388 72.393478,31.612276 72.800278,31.146915 
z"/>
<path fill="#FDFCFD" opacity="1.000000" stroke="none" 
	d="
M25.877972,170.237595 
	C26.059149,170.486755 25.940552,170.924286 25.541527,171.567352 
	C25.366798,171.323898 25.472498,170.874939 25.877972,170.237595 
z"/>
<path fill="#FDFCFD" opacity="1.000000" stroke="none" 
	d="
M22.842041,177.223160 
	C23.003517,177.462631 22.875475,177.888626 22.470058,178.514053 
	C22.312632,178.278885 22.432575,177.844284 22.842041,177.223160 
z"/>
<path fill="#FDFCFD" opacity="1.000000" stroke="none" 
	d="
M19.803791,184.208099 
	C19.949003,184.435181 19.817369,184.847641 19.415310,185.455078 
	C19.272240,185.231201 19.399595,184.812332 19.803791,184.208099 
z"/>
<path fill="#FDFCFD" opacity="1.000000" stroke="none" 
	d="
M16.782612,191.186615 
	C16.914030,191.403397 16.782467,191.792984 16.386211,192.358673 
	C16.254227,192.142975 16.386929,191.751190 16.782612,191.186615 
z"/>
<path fill="#4C99B1" opacity="1.000000" stroke="none" 
	d="
M37.966160,154.002518 
	C38.011864,153.570602 38.057571,153.138687 38.350540,152.167282 
	C38.609390,151.043610 38.620975,150.459427 38.632561,149.875244 
	C41.124416,128.984085 43.398117,108.062729 46.283192,87.226021 
	C46.896210,82.798660 49.589725,78.609108 51.585442,74.434639 
	C55.015259,67.260452 58.650234,60.184349 62.880486,53.017990 
	C72.717537,54.664188 81.873199,56.359470 91.011124,58.462700 
	C89.866470,66.090523 88.739555,73.310410 87.202293,80.450195 
	C85.301186,80.315491 83.802307,80.132835 82.320953,80.226700 
	C71.364868,80.920891 62.679817,89.674728 62.113419,100.529701 
	C61.549820,111.330978 69.162125,120.577927 79.954636,122.379524 
	C79.967056,122.572052 80.021935,122.955154 80.005699,123.365486 
	C77.972015,134.889236 75.954567,146.002640 73.633942,157.237640 
	C71.481888,158.742355 69.502739,159.985199 67.820229,161.547501 
	C66.085457,163.158325 63.462524,164.954910 63.257065,166.886063 
	C61.864902,179.971008 61.010078,193.113113 59.981556,206.236755 
	C55.289032,205.141403 50.596512,204.046051 45.495399,202.370056 
	C43.965157,192.779724 42.988907,183.748764 41.674999,174.767197 
	C40.657761,167.813583 39.218060,160.921799 37.966160,154.002518 
z"/>
<path fill="#67A8BB" opacity="1.000000" stroke="none" 
	d="
M73.937119,157.116058 
	C75.954567,146.002640 77.972015,134.889236 80.436768,123.323402 
	C83.668205,122.576706 86.520004,122.570526 89.224068,121.935371 
	C98.161667,119.836029 105.369286,109.868683 104.770195,100.754906 
	C104.098396,90.535034 96.959503,82.331207 87.671432,80.976974 
	C87.653503,80.827866 87.612640,80.530289 87.612640,80.530289 
	C88.739555,73.310410 89.866470,66.090523 90.997131,58.437332 
	C91.000877,58.004025 90.979439,57.950199 91.391251,57.983185 
	C100.958054,59.560108 110.113045,61.104038 119.268036,62.647968 
	C119.268036,62.647968 119.302750,62.730701 119.301544,63.024734 
	C119.425743,63.652294 119.655609,63.880707 119.989929,64.004013 
	C120.927963,72.401283 121.532990,80.852623 122.885422,89.182610 
	C124.717697,100.467987 120.561050,110.799515 118.458755,121.448044 
	C115.509377,136.387161 112.221764,151.259491 108.697708,166.616608 
	C107.531822,168.093216 106.574745,169.023788 105.988945,170.147858 
	C100.155190,181.342178 94.409805,192.582596 88.566429,203.771835 
	C87.584007,205.653015 86.252632,207.351974 85.082489,209.135132 
	C83.666252,209.513519 82.250023,209.891907 80.072388,210.156006 
	C76.909409,209.613129 74.507828,209.184570 72.074379,208.356247 
	C74.519821,196.674667 76.505371,185.253296 79.653069,174.161728 
	C81.641266,167.155869 78.951935,162.879822 74.123199,158.557983 
	C74.043259,157.883881 73.990189,157.499969 73.937119,157.116058 
z"/>
<path fill="#376973" opacity="1.000000" stroke="none" 
	d="
M37.678177,154.199829 
	C39.218060,160.921799 40.657761,167.813583 41.674999,174.767197 
	C42.988907,183.748764 43.965157,192.779724 45.162819,202.188507 
	C41.392509,205.726532 37.474319,208.782303 33.719101,212.026688 
	C29.566942,215.614044 25.511713,219.318375 21.509027,223.072800 
	C16.229343,228.025040 14.260353,228.392227 6.595514,225.042404 
	C16.858318,201.498779 27.124256,177.947968 37.678177,154.199829 
z"/>
<path fill="#537F87" opacity="1.000000" stroke="none" 
	d="
M85.417252,209.161835 
	C86.252632,207.351974 87.584007,205.653015 88.566429,203.771835 
	C94.409805,192.582596 100.155190,181.342178 105.988945,170.147858 
	C106.574745,169.023788 107.531822,168.093216 108.665871,167.038147 
	C109.657875,172.888367 110.488312,178.760025 110.903809,184.660904 
	C111.740891,196.549423 112.323059,208.455673 113.067184,220.351044 
	C113.529930,227.748444 114.096794,235.139313 114.614891,242.504089 
	C107.222481,243.891357 105.126015,242.745285 101.657631,236.581070 
	C96.480530,227.380020 91.065697,218.312744 85.417252,209.161835 
z"/>
<path fill="#366973" opacity="1.000000" stroke="none" 
	d="
M91.014862,58.029388 
	C81.873199,56.359470 72.717537,54.664188 63.160210,52.802456 
	C69.281494,43.471432 75.655403,34.195515 82.385895,25.185982 
	C86.143883,20.155472 90.430687,15.510661 94.623474,10.821041 
	C95.638733,9.685479 97.224655,9.060109 98.794922,8.862600 
	C96.354279,25.666780 93.666855,41.808491 90.979439,57.950199 
	C90.979439,57.950199 91.000877,58.004025 91.014862,58.029388 
z"/>
<path fill="#527F88" opacity="1.000000" stroke="none" 
	d="
M91.391251,57.983185 
	C93.666855,41.808491 96.354279,25.666780 99.055664,9.040460 
	C100.594833,10.065116 102.915192,11.309181 103.520844,13.125131 
	C108.923309,29.323538 114.023140,45.622879 119.240074,62.270229 
	C110.113045,61.104038 100.958054,59.560108 91.391251,57.983185 
z"/>
<path fill="#376B75" opacity="1.000000" stroke="none" 
	d="
M73.633942,157.237640 
	C73.990189,157.499969 74.043259,157.883881 74.025764,158.968826 
	C73.685104,160.453934 73.299210,161.218292 73.161720,162.024963 
	C69.064095,186.067078 64.991066,210.113358 60.509716,234.164154 
	C56.827015,234.290817 57.093918,232.372955 57.356674,229.958130 
	C57.990059,224.137161 58.311050,218.282196 58.758026,212.440948 
	C59.141998,210.630142 59.525970,208.819336 59.945751,206.622635 
	C61.010078,193.113113 61.864902,179.971008 63.257065,166.886063 
	C63.462524,164.954910 66.085457,163.158325 67.820229,161.547501 
	C69.502739,159.985199 71.481888,158.742355 73.633942,157.237640 
z"/>
<path fill="#9B383A" opacity="1.000000" stroke="none" 
	d="
M56.945030,258.081757 
	C56.012985,254.207397 55.080940,250.333038 54.155666,246.486832 
	C53.798595,246.871811 52.967659,247.767731 51.876060,248.944687 
	C51.470711,248.160553 51.005760,247.645584 50.944778,247.086548 
	C49.649971,235.216843 47.870953,223.289413 54.725948,212.629120 
	C54.379253,216.977615 53.697292,220.887543 53.025173,224.799179 
	C51.692142,232.557220 56.972420,238.395294 58.958370,245.594849 
	C58.291279,250.025894 57.618153,254.053833 56.945030,258.081757 
z"/>
<path fill="#A35254" opacity="1.000000" stroke="none" 
	d="
M57.274113,257.945068 
	C57.618153,254.053833 58.291279,250.025894 58.976059,245.549759 
	C58.987713,245.101547 59.034672,245.016800 59.341530,244.854858 
	C60.865990,242.382614 62.083588,240.072342 63.300964,237.762482 
	C63.954060,238.505325 64.522850,239.152283 65.127243,239.839752 
	C70.852257,232.283539 71.755058,223.678497 73.262985,215.104767 
	C74.061958,215.044693 74.520500,215.034744 74.979050,215.024796 
	C75.122673,227.174835 72.028320,238.917282 66.286613,247.534058 
	C65.939857,246.003571 65.649261,244.720932 65.185257,242.672943 
	C62.403561,248.225815 60.003380,253.017105 57.274113,257.945068 
z"/>
<path fill="#C5563E" opacity="1.000000" stroke="none" 
	d="
M58.970024,245.146637 
	C56.972420,238.395294 51.692142,232.557220 53.025173,224.799179 
	C53.697292,220.887543 54.379253,216.977615 55.094650,212.663635 
	C56.104023,212.271072 57.075508,212.281754 58.402508,212.366699 
	C58.311050,218.282196 57.990059,224.137161 57.356674,229.958130 
	C57.093918,232.372955 56.827015,234.290817 60.531693,234.367279 
	C60.958111,234.565262 61.006516,234.972366 60.848282,235.332397 
	C60.138252,238.800537 59.586464,241.908676 59.034672,245.016800 
	C59.034672,245.016800 58.987713,245.101547 58.970024,245.146637 
z"/>
<path fill="#404040" opacity="1.000000" stroke="none" 
	d="
M75.391953,215.012146 
	C74.520500,215.034744 74.061958,215.044693 72.920288,215.027222 
	C71.543831,214.906433 70.850502,214.813065 70.148895,214.363129 
	C70.795822,212.256393 71.451027,210.506195 72.106239,208.755997 
	C74.507828,209.184570 76.909409,209.613129 79.692421,210.195953 
	C80.384804,213.492111 79.548409,215.580490 75.391953,215.012146 
z"/>
<path fill="#F6F5F7" opacity="1.000000" stroke="none" 
	d="
M46.711937,217.299835 
	C45.909328,216.391159 45.169395,215.622131 45.047989,214.765457 
	C44.573055,211.414307 43.166531,211.465546 40.796413,213.221542 
	C38.884113,214.638321 36.748802,215.754089 34.339455,216.991364 
	C37.549435,213.635696 41.132381,210.292023 44.490685,207.158005 
	C45.847866,209.693649 47.215698,211.739899 48.013493,213.988419 
	C48.336197,214.897949 47.414314,216.249069 46.711937,217.299835 
z"/>
<path fill="#F6F5F7" opacity="1.000000" stroke="none" 
	d="
M52.735844,259.634827 
	C49.320972,256.428192 46.440403,252.590897 46.967121,247.088989 
	C49.091553,251.019943 50.918037,255.137024 52.735844,259.634827 
z"/>
<path fill="#F6F5F7" opacity="1.000000" stroke="none" 
	d="
M12.712587,230.923767 
	C10.322744,230.863739 7.752470,230.468552 5.081202,229.745895 
	C7.497524,229.808487 10.014840,230.198532 12.712587,230.923767 
z"/>
<path fill="#F6F5F7" opacity="1.000000" stroke="none" 
	d="
M46.128803,229.656372 
	C45.944176,228.048584 45.954487,226.109512 46.305748,224.076370 
	C46.539047,225.763229 46.431396,227.544144 46.128803,229.656372 
z"/>
<path fill="#F6F5F7" opacity="1.000000" stroke="none" 
	d="
M28.729086,221.411987 
	C28.074015,222.481796 27.119961,223.581009 25.828571,224.494873 
	C26.470856,223.353485 27.450480,222.397446 28.729086,221.411987 
z"/>
<path fill="#F6F5F7" opacity="1.000000" stroke="none" 
	d="
M20.615191,228.828644 
	C20.043413,229.710052 19.159115,230.541260 18.103430,231.099426 
	C18.722252,230.143723 19.512461,229.461090 20.615191,228.828644 
z"/>
<path fill="#F6F5F7" opacity="1.000000" stroke="none" 
	d="
M46.412601,221.080521 
	C46.053272,220.208572 46.048317,219.352966 46.090492,218.071548 
	C46.347408,218.796112 46.557194,219.946487 46.412601,221.080521 
z"/>
<path fill="#F6F5F7" opacity="1.000000" stroke="none" 
	d="
M46.599430,241.707977 
	C46.235329,241.099335 45.934124,240.175568 45.902794,239.093445 
	C46.335884,239.754349 46.499107,240.573593 46.599430,241.707977 
z"/>
<path fill="#F6F5F7" opacity="1.000000" stroke="none" 
	d="
M25.080774,224.620651 
	C24.941610,225.217468 24.581043,225.952209 23.847198,226.490265 
	C23.935740,225.781891 24.397556,225.270233 25.080774,224.620651 
z"/>
<path fill="#F6F5F7" opacity="1.000000" stroke="none" 
	d="
M33.690407,217.040100 
	C33.501419,217.616730 33.023251,218.267593 32.201241,218.907043 
	C32.372009,218.301880 32.886620,217.708099 33.690407,217.040100 
z"/>
<path fill="#F6F5F7" opacity="1.000000" stroke="none" 
	d="
M21.910751,227.518997 
	C21.953266,227.915024 21.769220,228.422028 21.226765,228.914215 
	C21.140301,228.476257 21.412247,228.053101 21.910751,227.518997 
z"/>
<path fill="#376973" opacity="1.000000" stroke="none" 
	d="
M38.450748,150.104935 
	C38.620975,150.459427 38.609390,151.043610 38.385674,151.843414 
	C38.205341,151.484238 38.237137,150.909424 38.450748,150.104935 
z"/>
<path fill="#F6F5F7" opacity="1.000000" stroke="none" 
	d="
M46.710308,244.729248 
	C46.311348,244.822403 46.201740,244.586136 46.434811,244.158066 
	C46.550415,244.060181 46.772587,244.493744 46.710308,244.729248 
z"/>
<path fill="#F6F5F7" opacity="1.000000" stroke="none" 
	d="
M46.070801,236.752289 
	C45.759716,236.822159 45.572182,236.661713 45.430584,236.467743 
	C45.403042,236.430023 45.554367,236.261734 45.801331,236.077530 
	C46.056446,236.171021 46.133411,236.340637 46.070801,236.752289 
z"/>
<path fill="#F6F5F7" opacity="1.000000" stroke="none" 
	d="
M45.922318,232.748962 
	C45.635319,232.794266 45.480564,232.624619 45.378819,232.427597 
	C45.354206,232.379944 45.504665,232.241867 45.741112,232.076401 
	C45.963081,232.179626 46.018562,232.351807 45.922318,232.748962 
z"/>
<path fill="#F6F5F7" opacity="1.000000" stroke="none" 
	d="
M15.732746,231.284973 
	C15.961654,231.369049 15.628386,231.680679 15.628386,231.680679 
	C15.628386,231.680679 15.196348,231.597031 15.114332,231.461273 
	C15.032315,231.325531 15.503839,231.200912 15.732746,231.284973 
z"/>
<path fill="#527F88" opacity="1.000000" stroke="none" 
	d="
M119.986328,63.756599 
	C119.655609,63.880707 119.425743,63.652294 119.312897,63.068138 
	C119.664421,62.934113 119.883507,63.164673 119.986328,63.756599 
z"/>
<path fill="#F6F5F7" opacity="1.000000" stroke="none" 
	d="
M23.150562,226.565445 
	C23.226475,226.820755 23.153427,227.148209 22.821913,227.300064 
	C22.670942,226.927490 22.816994,226.765182 23.150562,226.565445 
z"/>
<path fill="#F6F5F7" opacity="1.000000" stroke="none" 
	d="
M46.144897,221.722961 
	C45.969162,221.689743 45.825615,221.430054 45.880020,221.110138 
	C46.077972,221.049911 46.177090,221.496506 46.144897,221.722961 
z"/>
<path fill="#F6F5F7" opacity="1.000000" stroke="none" 
	d="
M30.674000,219.957397 
	C30.765856,220.174683 30.602798,220.486023 30.182207,220.885239 
	C30.089476,220.665894 30.254280,220.358673 30.674000,219.957397 
z"/>
<path fill="#F6F5F7" opacity="1.000000" stroke="none" 
	d="
M31.628014,218.897736 
	C31.748281,219.158676 31.570921,219.460587 31.140701,219.855927 
	C31.035358,219.612488 31.182871,219.275589 31.628014,218.897736 
z"/>
<path fill="#212527" opacity="1.000000" stroke="none" 
	d="
M87.202293,80.450195 
	C87.612640,80.530289 87.653503,80.827866 87.455017,81.236954 
	C87.163231,82.799889 87.069931,83.953728 86.548569,85.150482 
	C75.410179,85.060448 68.256042,90.473885 67.121620,99.569595 
	C66.061584,108.068909 71.487877,115.263908 80.775139,117.709557 
	C80.832985,117.822327 80.989830,118.021454 80.996117,118.384705 
	C80.649010,119.894310 80.295609,121.040649 79.942207,122.186996 
	C69.162125,120.577927 61.549820,111.330978 62.113419,100.529701 
	C62.679817,89.674728 71.364868,80.920891 82.320953,80.226700 
	C83.802307,80.132835 85.301186,80.315491 87.202293,80.450195 
z"/>
<path fill="#424546" opacity="1.000000" stroke="none" 
	d="
M86.976624,85.107567 
	C87.069931,83.953728 87.163231,82.799889 87.472954,81.386063 
	C96.959503,82.331207 104.098396,90.535034 104.770195,100.754906 
	C105.369286,109.868683 98.161667,119.836029 89.224068,121.935371 
	C86.520004,122.570526 83.668205,122.576706 80.453003,122.913071 
	C80.021935,122.955154 79.967056,122.572052 79.954636,122.379524 
	C80.295609,121.040649 80.649010,119.894310 81.410278,118.332169 
	C83.616310,117.722076 85.458855,117.715004 87.204887,117.300949 
	C94.584366,115.550987 99.824387,108.917725 99.823120,101.508400 
	C99.821838,94.007202 94.612152,87.603638 87.087540,85.706940 
	C87.045654,85.508087 86.976624,85.107567 86.976624,85.107567 
z"/>
<path fill="#548089" opacity="1.000000" stroke="none" 
	d="
M72.074379,208.356247 
	C71.451027,210.506195 70.795822,212.256393 70.045395,214.770493 
	C68.702728,220.654053 67.179985,225.727249 66.305389,230.909836 
	C65.730232,234.317993 64.167465,235.432571 61.006516,234.972366 
	C61.006516,234.972366 60.958111,234.565262 60.936134,234.362122 
	C64.991066,210.113358 69.064095,186.067078 73.161720,162.024963 
	C73.299210,161.218292 73.685104,160.453934 74.052635,159.259033 
	C78.951935,162.879822 81.641266,167.155869 79.653069,174.161728 
	C76.505371,185.253296 74.519821,196.674667 72.074379,208.356247 
z"/>
<path fill="#CE6E5A" opacity="1.000000" stroke="none" 
	d="
M60.848282,235.332397 
	C64.167465,235.432571 65.730232,234.317993 66.305389,230.909836 
	C67.179985,225.727249 68.702728,220.654053 70.053680,215.127045 
	C70.850502,214.813065 71.543831,214.906433 72.579865,215.077362 
	C71.755058,223.678497 70.852257,232.283539 65.127243,239.839752 
	C64.522850,239.152283 63.954060,238.505325 63.300964,237.762482 
	C62.083588,240.072342 60.865990,242.382614 59.341530,244.854858 
	C59.586464,241.908676 60.138252,238.800537 60.848282,235.332397 
z"/>
<path fill="#A7BFC5" opacity="1.000000" stroke="none" 
	d="
M86.548569,85.150482 
	C86.976624,85.107567 87.045654,85.508087 86.787743,85.960564 
	C84.592316,96.807625 82.654800,107.202202 80.717293,117.596786 
	C71.487877,115.263908 66.061584,108.068909 67.121620,99.569595 
	C68.256042,90.473885 75.410179,85.060448 86.548569,85.150482 
z"/>
<path fill="#B4C9CF" opacity="1.000000" stroke="none" 
	d="
M80.775139,117.709557 
	C82.654800,107.202202 84.592316,96.807625 86.829636,86.159409 
	C94.612152,87.603638 99.821838,94.007202 99.823120,101.508400 
	C99.824387,108.917725 94.584366,115.550987 87.204887,117.300949 
	C85.458855,117.715004 83.616310,117.722076 81.403992,117.968910 
	C80.989830,118.021454 80.832985,117.822327 80.775139,117.709557 
z"/>
</svg>