<svg version="1.1" id="Layer_1" xmlns="http://www.w3.org/2000/svg" xmlns:xlink="http://www.w3.org/1999/xlink" x="0px" y="0px"
	 width="100%" viewBox="0 0 132 261" enable-background="new 0 0 132 261" xml:space="preserve">
<path fill="#FCFCFD" opacity="1.000000" stroke="none" 
	d="
M133.000000,84.000000 
	C133.000000,143.666672 133.000000,202.833328 133.000000,262.000000 
	C89.000000,262.000000 45.000000,262.000000 1.000000,262.000000 
	C1.000000,175.000000 1.000000,88.000000 1.000000,1.000000 
	C45.000000,1.000000 89.000000,1.000000 133.000000,1.000000 
	C133.000000,28.500000 133.000000,56.000000 133.000000,84.000000 
M115.012497,159.637466 
	C116.086388,154.940125 117.179176,150.247009 118.230461,145.544617 
	C120.930710,133.466431 123.914986,121.440048 126.163361,109.277901 
	C127.160751,103.882706 129.894348,98.656754 128.190674,92.771339 
	C127.294838,89.676559 127.469063,86.281662 127.055878,83.035545 
	C126.137856,75.823219 125.624199,68.516205 124.072769,61.439144 
	C122.316353,53.426968 119.698265,45.595512 117.286003,37.737305 
	C114.110519,27.392784 110.974045,17.014105 105.757370,7.450924 
	C104.233849,4.658016 98.423347,3.815909 96.165955,6.057266 
	C93.443108,8.760772 90.725349,11.518417 88.378395,14.542150 
	C81.786011,23.035540 75.351280,31.652294 68.916183,40.266567 
	C57.342220,55.759926 48.191006,72.462349 44.017937,91.531258 
	C43.178402,95.367538 43.160084,99.376549 42.604786,103.283417 
	C41.296291,112.489555 39.209278,121.644600 38.701431,130.889755 
	C38.079884,142.204895 36.372929,152.981171 31.212303,163.217285 
	C27.144758,171.285248 23.772137,179.703018 20.072412,187.957153 
	C16.881153,195.076889 13.524320,202.126312 10.502566,209.316864 
	C8.112566,215.004074 6.119941,220.858276 3.771914,227.115173 
	C8.182884,227.807968 12.718296,227.586899 16.242350,229.367493 
	C19.089487,230.806061 20.519133,229.189606 21.636850,228.285431 
	C25.739733,224.966370 29.331745,221.025772 33.278767,217.501343 
	C37.539864,213.696472 41.983387,210.095886 47.137794,205.737854 
	C48.181492,210.392746 50.230812,214.246140 49.563816,217.551376 
	C47.580887,227.377640 46.865711,237.016800 49.952271,246.637299 
	C50.834999,249.388657 52.511730,251.897690 53.925365,254.462173 
	C54.982075,256.379181 56.068745,259.612518 57.379494,259.735809 
	C59.222271,259.909149 61.605385,258.063721 63.168797,256.494995 
	C64.937973,254.719803 65.675934,250.969147 67.537964,250.435654 
	C71.180153,249.392075 72.189491,246.949066 73.177338,244.144455 
	C75.227707,238.323288 77.367180,232.517929 79.040443,226.584915 
	C80.173576,222.567078 80.619133,218.368820 84.132942,215.485718 
	C85.842072,214.083374 86.727715,212.579712 88.513504,216.129547 
	C92.844971,224.739761 98.053482,232.910278 102.959244,241.228104 
	C103.552940,242.234756 104.326576,243.666504 105.240730,243.863831 
	C109.990028,244.888931 114.811943,245.577591 119.947586,246.440399 
	C119.278229,239.645676 118.444107,233.584198 118.136154,227.496078 
	C117.658089,218.044815 117.626801,208.571838 117.242836,199.114685 
	C116.826477,188.859802 116.217415,178.612793 115.705101,168.361710 
	C115.570786,165.674164 115.483543,162.984238 115.012497,159.637466 
z"/>
<path fill="#24262C" opacity="1.000000" stroke="none" 
	d="
M115.193588,159.966431 
	C115.483543,162.984238 115.570786,165.674164 115.705101,168.361710 
	C116.217415,178.612793 116.826477,188.859802 117.242836,199.114685 
	C117.626801,208.571838 117.658089,218.044815 118.136154,227.496078 
	C118.444107,233.584198 119.278229,239.645676 119.947586,246.440399 
	C114.811943,245.577591 109.990028,244.888931 105.240730,243.863831 
	C104.326576,243.666504 103.552940,242.234756 102.959244,241.228104 
	C98.053482,232.910278 92.844971,224.739761 88.513504,216.129547 
	C86.727715,212.579712 85.842072,214.083374 84.132942,215.485718 
	C80.619133,218.368820 80.173576,222.567078 79.040443,226.584915 
	C77.367180,232.517929 75.227707,238.323288 73.177338,244.144455 
	C72.189491,246.949066 71.180153,249.392075 67.537964,250.435654 
	C65.675934,250.969147 64.937973,254.719803 63.168797,256.494995 
	C61.605385,258.063721 59.222271,259.909149 57.379494,259.735809 
	C56.068745,259.612518 54.982075,256.379181 53.925365,254.462173 
	C52.511730,251.897690 50.834999,249.388657 49.952271,246.637299 
	C46.865711,237.016800 47.580887,227.377640 49.563816,217.551376 
	C50.230812,214.246140 48.181492,210.392746 47.137794,205.737854 
	C41.983387,210.095886 37.539864,213.696472 33.278767,217.501343 
	C29.331745,221.025772 25.739733,224.966370 21.636850,228.285431 
	C20.519133,229.189606 19.089487,230.806061 16.242350,229.367493 
	C12.718296,227.586899 8.182884,227.807968 3.771914,227.115173 
	C6.119941,220.858276 8.112566,215.004074 10.502566,209.316864 
	C13.524320,202.126312 16.881153,195.076889 20.072412,187.957153 
	C23.772137,179.703018 27.144758,171.285248 31.212303,163.217285 
	C36.372929,152.981171 38.079884,142.204895 38.701431,130.889755 
	C39.209278,121.644600 41.296291,112.489555 42.604786,103.283417 
	C43.160084,99.376549 43.178402,95.367538 44.017937,91.531258 
	C48.191006,72.462349 57.342220,55.759926 68.916183,40.266567 
	C75.351280,31.652294 81.786011,23.035540 88.378395,14.542150 
	C90.725349,11.518417 93.443108,8.760772 96.165955,6.057266 
	C98.423347,3.815909 104.233849,4.658016 105.757370,7.450924 
	C110.974045,17.014105 114.110519,27.392784 117.286003,37.737305 
	C119.698265,45.595512 122.316353,53.426968 124.072769,61.439144 
	C125.624199,68.516205 126.137856,75.823219 127.055878,83.035545 
	C127.469063,86.281662 127.294838,89.676559 128.190674,92.771339 
	C129.894348,98.656754 127.160751,103.882706 126.163361,109.277901 
	C123.914986,121.440048 120.930710,133.466431 118.230461,145.544617 
	C117.179176,150.247009 116.086388,154.940125 115.193588,159.966431 
M77.671249,214.277557 
	C82.990158,215.859512 81.464462,211.588486 82.770042,209.007751 
	C84.503929,208.379852 86.237823,207.751968 88.194534,207.769836 
	C93.425873,217.193069 99.015854,226.440628 103.750992,236.106934 
	C106.492249,241.702957 110.849731,241.427078 116.170326,241.800919 
	C114.376968,215.213974 112.613884,189.075806 110.943726,162.124756 
	C113.767311,149.344711 116.621750,136.571365 119.403923,123.782310 
	C121.339165,114.886452 124.598572,105.984810 124.697685,97.057236 
	C124.823509,85.722954 122.349190,74.359810 120.982430,62.221302 
	C115.900429,46.344540 110.917511,30.434597 105.624092,14.628637 
	C104.874565,12.390608 102.613197,10.658896 100.560921,8.318983 
	C98.983849,9.391105 97.009285,10.152686 95.891426,11.583565 
	C85.170158,25.307081 74.593498,39.143574 63.378883,53.335243 
	C59.044323,62.306358 54.654526,71.251488 50.414543,80.267082 
	C49.371624,82.484680 48.412144,84.879585 48.101284,87.281876 
	C45.224117,109.516487 42.497593,131.770584 39.163380,154.348038 
	C38.640804,155.184601 38.004097,155.971176 37.612518,156.865112 
	C30.042608,174.146561 22.498377,191.439285 14.956131,208.732834 
	C12.744034,213.804947 10.554308,218.886810 8.338915,223.999786 
	C17.689236,227.050110 18.255623,226.784866 24.719095,220.821167 
	C32.012596,214.091644 39.530926,207.605759 47.582729,201.303192 
	C49.401093,202.199127 51.219456,203.095047 52.472748,204.408478 
	C51.939438,205.642990 51.406128,206.877502 50.752193,208.391235 
	C52.877560,209.043182 54.397369,209.509384 55.490837,210.561783 
	C55.006493,211.595703 54.181866,212.600754 54.091335,213.668091 
	C53.327221,222.676636 52.722282,231.698517 52.014877,240.712112 
	C51.725128,244.404083 52.611198,247.220642 57.027969,247.658264 
	C57.027969,249.729858 56.790871,251.589752 57.115234,253.345947 
	C57.315792,254.431824 58.370548,255.359924 59.629890,255.917786 
	C61.920891,251.202362 64.211891,246.486938 66.565155,241.643356 
	C67.019424,243.110352 67.440033,244.468628 68.137657,246.721481 
	C73.773918,235.814423 77.018303,225.357330 77.671249,214.277557 
z"/>
<path fill="#D05D3C" opacity="1.000000" stroke="none" 
	d="
M53.037815,203.990982 
	C51.219456,203.095047 49.401093,202.199127 47.283707,200.727386 
	C45.491028,189.472549 44.075623,178.781754 42.467918,168.119934 
	C41.754604,163.389435 40.652775,158.717514 39.727303,154.019012 
	C42.497593,131.770584 45.224117,109.516487 48.101284,87.281876 
	C48.412144,84.879585 49.371624,82.484680 50.414543,80.267082 
	C54.654526,71.251488 59.044323,62.306358 64.037582,53.315231 
	C74.123512,54.841820 83.550735,56.388420 93.013382,58.173828 
	C93.048798,58.412636 93.133675,58.887959 92.833061,59.163094 
	C91.269234,66.449158 90.006012,73.460083 88.330383,80.426239 
	C84.336319,80.882980 80.520073,80.762016 77.218376,82.006363 
	C68.414200,85.324516 63.395786,93.688179 64.020424,102.827103 
	C64.675400,112.409958 71.202240,119.405266 81.954376,122.503677 
	C79.913498,134.263641 77.937187,145.637436 75.608353,157.033813 
	C71.842545,159.900604 67.363510,162.146469 65.331490,165.766098 
	C63.492947,169.041046 64.396828,173.823105 63.966057,177.927460 
	C63.019245,186.948547 61.993187,195.961304 60.600746,204.945435 
	C57.813950,204.605927 55.425880,204.298462 53.037815,203.990982 
z"/>
<path fill="#D67559" opacity="1.000000" stroke="none" 
	d="
M88.742798,80.471016 
	C90.006012,73.460083 91.269234,66.449158 93.260696,59.173325 
	C102.991302,60.275318 111.993660,61.642212 120.996017,63.009109 
	C122.349190,74.359810 124.823509,85.722954 124.697685,97.057236 
	C124.598572,105.984810 121.339165,114.886452 119.403923,123.782310 
	C116.621750,136.571365 113.767311,149.344711 110.664429,162.775787 
	C102.913994,177.992554 95.442848,192.558319 87.971710,207.124069 
	C86.237823,207.751968 84.503929,208.379852 82.061890,208.884140 
	C78.988976,208.312515 76.624214,207.864487 74.159424,207.051025 
	C74.175362,205.210861 74.112534,203.695572 74.436211,202.267944 
	C76.590118,192.767731 78.235611,183.094757 81.227165,173.860474 
	C83.537498,166.728989 80.808571,162.247177 76.083084,157.668167 
	C76.052658,157.447388 75.960884,157.011215 75.960884,157.011215 
	C77.937187,145.637436 79.913498,134.263641 81.928001,122.441895 
	C81.966202,121.993927 81.941826,121.861626 82.384071,121.934525 
	C94.964638,122.314713 104.884933,114.650169 105.938591,104.150589 
	C107.105667,92.520760 100.152840,83.015640 88.938843,80.879906 
	C88.864700,80.748001 88.742798,80.471016 88.742798,80.471016 
z"/>
<path fill="#753D2B" opacity="1.000000" stroke="none" 
	d="
M39.445343,154.183533 
	C40.652775,158.717514 41.754604,163.389435 42.467918,168.119934 
	C44.075623,178.781754 45.491028,189.472549 46.968079,200.582733 
	C39.530926,207.605759 32.012596,214.091644 24.719095,220.821167 
	C18.255623,226.784866 17.689236,227.050110 8.338915,223.999786 
	C10.554308,218.886810 12.744034,213.804947 14.956131,208.732834 
	C22.498377,191.439285 30.042608,174.146561 37.612518,156.865112 
	C38.004097,155.971176 38.640804,155.184601 39.445343,154.183533 
z"/>
<path fill="#89594B" opacity="1.000000" stroke="none" 
	d="
M88.083122,207.446960 
	C95.442848,192.558319 102.913994,177.992554 110.617966,163.182220 
	C112.613884,189.075806 114.376968,215.213974 116.170326,241.800919 
	C110.849731,241.427078 106.492249,241.702957 103.750992,236.106934 
	C99.015854,226.440628 93.425873,217.193069 88.083122,207.446960 
z"/>
<path fill="#753D2B" opacity="1.000000" stroke="none" 
	d="
M92.977966,57.935020 
	C83.550735,56.388420 74.123512,54.841820 64.335838,53.121452 
	C74.593498,39.143574 85.170158,25.307081 95.891426,11.583565 
	C97.009285,10.152686 98.983849,9.391105 100.789062,8.958828 
	C100.901901,10.584102 100.829826,11.576831 100.664803,12.553863 
	C98.109634,27.682116 95.542404,42.808331 92.977966,57.935020 
z"/>
<path fill="#89584A" opacity="1.000000" stroke="none" 
	d="
M93.013382,58.173828 
	C95.542404,42.808331 98.109634,27.682116 100.664803,12.553863 
	C100.829826,11.576831 100.901901,10.584102 101.034393,9.145755 
	C102.613197,10.658896 104.874565,12.390608 105.624092,14.628637 
	C110.917511,30.434597 115.900429,46.344540 120.989227,62.615204 
	C111.993660,61.642212 102.991302,60.275318 93.561310,58.898190 
	C93.133675,58.887959 93.048798,58.412636 93.013382,58.173828 
z"/>
<path fill="#9B3539" opacity="1.000000" stroke="none" 
	d="
M59.041847,256.358856 
	C58.370548,255.359924 57.315792,254.431824 57.115234,253.345947 
	C56.790871,251.589752 57.027969,249.729858 57.027969,247.658264 
	C52.611198,247.220642 51.725128,244.404083 52.014877,240.712112 
	C52.722282,231.698517 53.327221,222.676636 54.091335,213.668091 
	C54.181866,212.600754 55.006493,211.595703 56.005577,210.308807 
	C57.049194,210.309052 57.578072,210.562256 57.825752,211.093658 
	C56.701260,217.216003 55.671528,223.042908 55.129353,228.914841 
	C54.968693,230.654877 56.056828,232.575272 56.806526,234.312103 
	C57.332222,235.529984 58.560734,236.485123 58.930260,237.720642 
	C59.537163,239.749786 59.701759,241.911240 60.046177,244.457001 
	C59.706951,248.717667 59.374401,252.538269 59.041847,256.358856 
z"/>
<path fill="#A45356" opacity="1.000000" stroke="none" 
	d="
M59.335869,256.138306 
	C59.374401,252.538269 59.706951,248.717667 60.256729,244.355469 
	C60.742695,243.630936 60.929234,243.385513 61.327908,242.903625 
	C62.464928,241.161423 63.307610,239.593201 63.820175,238.639313 
	C65.435211,238.148895 67.276863,238.130768 67.625053,237.400543 
	C71.262924,229.771118 76.237396,222.368011 73.319794,213.145950 
	C74.784500,213.396759 75.900780,213.703384 77.017059,214.010010 
	C77.018303,225.357330 73.773918,235.814423 68.137657,246.721481 
	C67.440033,244.468628 67.019424,243.110352 66.565155,241.643356 
	C64.211891,246.486938 61.920891,251.202362 59.335869,256.138306 
z"/>
<path fill="#201E1E" opacity="1.000000" stroke="none" 
	d="
M58.106953,210.815460 
	C57.578072,210.562256 57.049194,210.309052 56.218750,210.015717 
	C54.397369,209.509384 52.877560,209.043182 50.752193,208.391235 
	C51.406128,206.877502 51.939438,205.642990 52.755280,204.199738 
	C55.425880,204.298462 57.813950,204.605927 60.625191,205.381592 
	C61.031487,207.596939 61.014606,209.344070 60.636024,211.062439 
	C59.551868,210.960922 58.829411,210.888199 58.106953,210.815460 
z"/>
<path fill="#3F3D3D" opacity="1.000000" stroke="none" 
	d="
M77.344154,214.143784 
	C75.900780,213.703384 74.784500,213.396759 73.078629,213.092682 
	C72.489044,213.095230 71.999039,213.037277 72.007782,212.654800 
	C72.764160,210.653702 73.511803,209.035095 74.259445,207.416473 
	C76.624214,207.864487 78.988976,208.312515 81.710297,208.948883 
	C81.464462,211.588486 82.990158,215.859512 77.344154,214.143784 
z"/>
<path fill="#773D2B" opacity="1.000000" stroke="none" 
	d="
M60.997726,211.091202 
	C61.014606,209.344070 61.031487,207.596939 61.023922,205.413635 
	C61.993187,195.961304 63.019245,186.948547 63.966057,177.927460 
	C64.396828,173.823105 63.492947,169.041046 65.331490,165.766098 
	C67.363510,162.146469 71.842545,159.900604 75.608353,157.033813 
	C75.960884,157.011215 76.052658,157.447388 75.898483,158.031311 
	C73.163361,173.087845 70.530113,187.551407 68.019203,202.036163 
	C66.240944,212.294449 64.628113,222.581421 62.713638,232.906921 
	C62.485840,232.958267 62.026466,233.043427 61.643326,232.960724 
	C60.526936,231.120697 59.095745,229.325348 59.189003,227.613022 
	C59.489838,222.089294 60.351959,216.596146 60.997726,211.091202 
z"/>
<path fill="#221E1D" opacity="1.000000" stroke="none" 
	d="
M88.330383,80.426239 
	C88.742798,80.471016 88.864700,80.748001 88.932678,81.290878 
	C88.991325,82.930420 88.981995,84.027084 88.540985,85.138474 
	C77.781204,84.918411 70.516174,89.813797 69.070679,97.981972 
	C67.479362,106.974167 72.210205,114.071960 81.961342,117.678421 
	C81.965683,119.326622 81.953751,120.594124 81.941818,121.861626 
	C81.941826,121.861626 81.966202,121.993927 81.992569,122.055710 
	C71.202240,119.405266 64.675400,112.409958 64.020424,102.827103 
	C63.395786,93.688179 68.414200,85.324516 77.218376,82.006363 
	C80.520073,80.762016 84.336319,80.882980 88.330383,80.426239 
z"/>
<path fill="#8B594A" opacity="1.000000" stroke="none" 
	d="
M62.941441,232.855591 
	C64.628113,222.581421 66.240944,212.294449 68.019203,202.036163 
	C70.530113,187.551407 73.163361,173.087845 75.928909,158.252090 
	C80.808571,162.247177 83.537498,166.728989 81.227165,173.860474 
	C78.235611,183.094757 76.590118,192.767731 74.436211,202.267944 
	C74.112534,203.695572 74.175362,205.210861 74.159424,207.051025 
	C73.511803,209.035095 72.764160,210.653702 71.956848,213.037109 
	C70.612900,218.853073 68.981873,223.848907 68.164276,228.974518 
	C67.604088,232.486343 66.115173,233.482437 62.941441,232.855591 
z"/>
<path fill="#423F3F" opacity="1.000000" stroke="none" 
	d="
M82.384064,121.934525 
	C81.953751,120.594124 81.965683,119.326622 82.224655,117.611847 
	C82.646980,117.119041 82.822243,117.073509 83.421173,117.157654 
	C93.521812,117.106506 100.162903,111.880341 101.061996,103.738373 
	C102.042900,94.855537 97.419754,87.964714 89.047615,85.731445 
	C88.983025,85.535759 88.972664,85.123749 88.972664,85.123749 
	C88.981995,84.027084 88.991325,82.930420 89.006821,81.422783 
	C100.152840,83.015640 107.105667,92.520760 105.938591,104.150589 
	C104.884933,114.650169 94.964638,122.314713 82.384064,121.934525 
z"/>
<path fill="#CC563B" opacity="1.000000" stroke="none" 
	d="
M60.636024,211.062439 
	C60.351959,216.596146 59.489838,222.089294 59.189003,227.613022 
	C59.095745,229.325348 60.526936,231.120697 61.636124,233.385223 
	C61.685898,236.954132 61.359737,240.015854 61.033573,243.077591 
	C60.929234,243.385513 60.742695,243.630936 60.263405,243.915390 
	C59.701759,241.911240 59.537163,239.749786 58.930260,237.720642 
	C58.560734,236.485123 57.332222,235.529984 56.806526,234.312103 
	C56.056828,232.575272 54.968693,230.654877 55.129353,228.914841 
	C55.671528,223.042908 56.701260,217.216003 57.825752,211.093658 
	C58.829411,210.888199 59.551868,210.960922 60.636024,211.062439 
z"/>
<path fill="#D26E58" opacity="1.000000" stroke="none" 
	d="
M61.327908,242.903625 
	C61.359737,240.015854 61.685898,236.954132 62.019264,233.467911 
	C62.026466,233.043427 62.485840,232.958267 62.713638,232.906921 
	C66.115173,233.482437 67.604088,232.486343 68.164276,228.974518 
	C68.981873,223.848907 70.612900,218.853073 71.948105,213.419586 
	C71.999039,213.037277 72.489044,213.095230 72.730209,213.148499 
	C76.237396,222.368011 71.262924,229.771118 67.625053,237.400543 
	C67.276863,238.130768 65.435211,238.148895 63.820175,238.639313 
	C63.307610,239.593201 62.464928,241.161423 61.327908,242.903625 
z"/>
<path fill="#A9C0C7" opacity="1.000000" stroke="none" 
	d="
M82.997498,117.027985 
	C82.822243,117.073509 82.646980,117.119041 82.208389,117.231148 
	C72.210205,114.071960 67.479362,106.974167 69.070679,97.981972 
	C70.516174,89.813797 77.781204,84.918411 88.540985,85.138474 
	C88.972664,85.123749 88.983025,85.535759 88.740479,85.962883 
	C86.664452,96.602669 84.830978,106.815323 82.997498,117.027985 
z"/>
<path fill="#B5CAD0" opacity="1.000000" stroke="none" 
	d="
M83.421173,117.157654 
	C84.830978,106.815323 86.664452,96.602669 88.805069,86.158569 
	C97.419754,87.964714 102.042900,94.855537 101.061996,103.738373 
	C100.162903,111.880341 93.521812,117.106506 83.421173,117.157654 
z"/>
</svg>