<svg xmlns="http://www.w3.org/2000/svg" xmlns:xlink="http://www.w3.org/1999/xlink" xmlns:inkscape="http://www.inkscape.org/namespaces/inkscape" version="1.1" width="810" height="810" viewBox="0 0 810 810">
<defs>
<clipPath id="clip_1">
<path transform="matrix(.24,0,0,.24,0,0)" d="M0 0H3375V3375H0Z" clip-rule="evenodd"/>
</clipPath>
<clipPath id="clip_2">
<path transform="matrix(.24,0,0,.24,0,0)" d="M0 0H3375V3375H0Z" clip-rule="evenodd"/>
</clipPath>
<clipPath id="clip_3">
<path transform="matrix(.24,0,0,.24,0,0)" d="M0 0H3375V3375H0Z"/>
</clipPath>
<clipPath id="clip_4">
<path transform="matrix(.24,0,0,.24,0,0)" d="M0 0H3375V3375H0Z"/>
</clipPath>
<clipPath id="clip_5">
<path transform="matrix(.24,0,0,.24,0,0)" d="M-.00000000000071054276 .00000000000035527138H3375V3375H-.00000000000071054276Z"/>
</clipPath>
<clipPath id="clip_6">
<path transform="matrix(.24,0,0,.24,0,0)" d="M2209.5704 .00000000000035527138 3053.3204 641.8033 3375 1681.9673 3053.3204 2722.131 2209.5704 3369.467H1165.4297L321.6797 2722.131-.00000000000071054276 1681.9673 321.6797 641.8033 1165.4297 .00000000000035527138H2209.5704Z"/>
</clipPath>
<clipPath id="clip_7">
<path transform="matrix(.24,0,0,.24,0,0)" d="M0 0H3375V3370H0Z"/>
</clipPath>
<clipPath id="clip_8">
<path transform="matrix(.24,0,0,.24,0,0)" d="M1043.1818 783.4276H2330.6817V2133.4278H1043.1818Z" clip-rule="evenodd"/>
</clipPath>
<clipPath id="clip_9">
<path transform="matrix(.24,0,0,.24,0,0)" d="M0 0H3375V3375H0Z" clip-rule="evenodd"/>
</clipPath>
<path id="font_10_85" d="M.5673828-.17773438C.5045573-.17773438 .45239259-.16259766 .41088868-.13232422 .36938478-.10205078 .34147135-.059895833 .32714845-.005859375 .27278648 .001953125 .2253418 .020426432 .18481446 .049560548 .14428711 .078694667 .112711589 .11897787 .09008789 .17041016 .067464198 .22184246 .056152345 .28401695 .056152345 .3569336 .056152345 .4386393 .0703125 .5069173 .09863281 .5617676 .12695313 .61661788 .166097 .65738937 .21606446 .68408206 .2660319 .7107747 .32373048 .7241211 .38916017 .7241211 .45458985 .7241211 .51220706 .71085616 .5620117 .6843262 .6118164 .6577962 .65079757 .6170247 .6789551 .5620117 .7071126 .5069987 .7211914 .4386393 .7211914 .3569336 .7211914 .25016276 .69832357 .16821289 .6525879 .111083988 .60685226 .053955079 .54264327 .018391928 .45996095 .0043945314L.45751954-.0053710939C.4676107-.022623698 .48266603-.035888673 .50268557-.045166017 .5227051-.05444336 .5460612-.05908203 .5727539-.05908203 .5942383-.05908203 .61360678-.056315107 .6308594-.05078125L.640625-.052734376 .66064456-.16308594C.65022787-.16699219 .63623049-.17041016 .61865237-.17333985 .6010742-.17626953 .5839844-.17773438 .5673828-.17773438M.38916017 .11230469C.44970704 .11230469 .495931 .13175456 .52783206 .1706543 .5597331 .20955403 .5756836 .27164714 .5756836 .3569336 .5756836 .44222007 .5597331 .50439456 .52783206 .54345706 .495931 .58251956 .44970704 .6020508 .38916017 .6020508 .32828776 .6020508 .28181968 .58251956 .24975586 .54345706 .21769206 .50439456 .20166016 .44222007 .20166016 .3569336 .20166016 .27164714 .21769206 .20955403 .24975586 .1706543 .28181968 .13175456 .32828776 .11230469 .38916017 .11230469Z"/>
<path id="font_10_102" d="M.37841798-.010253906C.2801107-.010253906 .20719402 .013102214 .15966797 .059814454 .11214193 .106526698 .088378909 .17578125 .088378909 .26757813V.7138672H.2265625V.2685547C.2265625 .21647136 .23909505 .17740886 .26416017 .15136719 .28922526 .12532552 .3273112 .11230469 .37841798 .11230469 .47965495 .11230469 .53027346 .16438802 .53027346 .2685547V.7138672H.66845706V.26757813C.66845706 .17578125 .64469406 .106526698 .59716799 .059814454 .5496419 .013102214 .47672526-.010253906 .37841798-.010253906Z"/>
<path id="font_10_2" d="M.6850586 0H.5366211L.48291017 .16455078H.20947266L.15576172 0H.0107421879L.25732423 .7138672H.43847657L.6850586 0M.33935548 .5649414 .2475586 .28320313H.44384767L.3515625 .5649414H.33935548Z"/>
<path id="font_10_66" d="M.22949219 0H.09277344V.7138672H.25439454L.5410156 .25390626 .55371096 .25585938V.7138672H.6894531V0H.5449219L.24169922 .49121095 .22949219 .4892578V0Z"/>
<path id="font_10_97" d="M.5722656 .7138672V.59521487H.36621095V0H.22558594V.59521487H.01953125V.7138672H.5722656Z"/>
<path id="font_10_65" d="M.22216797 0H.09277344V.7138672H.27734376L.4580078 .18896485H.46826173L.6479492 .7138672H.828125V0H.69433596V.4716797L.6821289 .4736328 .51708987 0H.39941407L.234375 .4736328 .22216797 .4716797V0Z"/>
<path id="font_10_36" d="M.3466797-.010253906C.28710938-.010253906 .2355957 .0033365887 .19213867 .030517579 .14868164 .057698568 .11515299 .098714198 .091552738 .15356446 .06795248 .20841472 .056152345 .27620445 .056152345 .3569336 .056152345 .4383138 .0703125 .506429 .09863281 .5612793 .12695313 .6161296 .16625977 .6569824 .21655274 .6838379 .2668457 .71069338 .3251953 .7241211 .39160157 .7241211 .45996095 .7241211 .5182292 .7114258 .56640627 .68603518 .6145833 .66064456 .6484375 .6228841 .66796877 .5727539L.5649414 .5102539 .5527344 .5107422C.53808596 .54264327 .51749679 .56591799 .4909668 .5805664 .46443687 .59521487 .4313151 .60253909 .39160157 .60253909 .33007813 .60253909 .28304038 .5830892 .25048829 .54418948 .2179362 .50528976 .20166016 .4428711 .20166016 .3569336 .20166016 .27067057 .21687825 .20800781 .24731446 .16894531 .27775065 .12988281 .3227539 .11035156 .38232423 .11035156 .4337565 .11035156 .4716797 .121907558 .49609376 .14501953 .5205078 .16813152 .53271487 .20263672 .53271487 .24853516V.27929688H.36376954V.39404298H.67285159V0H.53808596V.095703128L.52783206 .09716797C.5131836 .06298828 .4909668 .036539716 .46118165 .017822266 .43139649-.0008951823 .39322917-.010253906 .3466797-.010253906Z"/>
<path id="font_10_25" d="M.23388672 .31347657V.11816406H.57470706V0H.09277344V.7138672H.56689456V.5957031H.23388672V.42871095H.52490237V.31347657H.23388672Z"/>
<path id="font_10_90" d="M.31640626-.010253906C.2669271-.010253906 .22290039-.0041503908 .18432617 .008056641 .14575196 .020263672 .11360677 .036295576 .087890628 .056152345 .06217448 .07600912 .04248047 .09781901 .028808594 .12158203L.10644531 .2163086H.118652347C.14013672 .18440755 .1673991 .15901692 .20043946 .14013672 .23347982 .12125651 .2721354 .111816409 .31640626 .111816409 .35416667 .111816409 .38264976 .119791667 .40185548 .13574219 .4210612 .1516927 .43066407 .17366536 .43066407 .20166016 .43066407 .21858724 .42757163 .23274739 .42138673 .24414063 .4152018 .25553385 .4049479 .26529948 .390625 .2734375 .3763021 .28157554 .3569336 .28857423 .33251954 .2944336L.24072266 .3154297C.17659505 .33007813 .12882488 .3544108 .09741211 .38842774 .06599935 .42244468 .05029297 .46663413 .05029297 .5209961 .05029297 .56136068 .060384115 .59684249 .080566409 .6274414 .100748699 .65804037 .13012696 .6818034 .16870117 .69873049 .20727539 .71565756 .25341798 .7241211 .3071289 .7241211 .36214195 .7241211 .40926109 .71687826 .44848634 .7023926 .48771159 .6879069 .5208333 .6656901 .54785159 .6357422L.47802735 .54003909H.4658203C.44563804 .56119796 .42252604 .5770671 .39648438 .5876465 .37044273 .5982259 .34065757 .6035156 .3071289 .6035156 .26839195 .6035156 .2389323 .5966797 .21875 .5830078 .1985677 .56933596 .18847656 .55045577 .18847656 .5263672 .18847656 .50390627 .19555664 .4860026 .2097168 .47265626 .22387696 .4593099 .24837239 .44889323 .28320313 .44140626L.37695313 .421875C.44628907 .40722657 .49658204 .3824056 .52783206 .3474121 .55908206 .3124186 .57470706 .2667643 .57470706 .21044922 .57470706 .16585286 .5651042 .1270345 .54589846 .09399414 .5266927 .060953779 .49772135 .03531901 .45898438 .017089844 .4202474-.0011393229 .37272135-.010253906 .31640626-.010253906Z"/>
</defs>
<g>
<g clip-path="url(#clip_1)">
<path transform="matrix(.75,0,0,.75,0,0)" d="M0 0H1080V1080H0Z" fill="#ffffff"/>
</g>
<g clip-path="url(#clip_2)">
<path transform="matrix(.75,0,0,.75,0,0)" d="M0 0H1080V1080H0Z" fill="#ffffff"/>
</g>
<g clip-path="url(#clip_3)">
<g clip-path="url(#clip_4)">
<g clip-path="url(#clip_5)">
<g clip-path="url(#clip_6)">
<g>
<g clip-path="url(#clip_7)">
<path transform="matrix(3.1640626,0,0,3.1640626,-.00000000000017053026,.00000000000008526513)" d="M0 0H256V256H0Z" fill="#f7ba20"/>
</g>
</g>
</g>
</g>
</g>
</g>
<g clip-path="url(#clip_8)">
<path transform="matrix(1.5458014,0,0,1.5458014,250.41823,188.02263)" d="M151.895 209.649H142.246C141.61 209.649 141.09401 209.133 141.09401 208.49701V204.824H58.906V208.49701C58.906 209.13301 58.39 209.649 57.753999 209.649H48.104997C47.468996 209.649 46.952997 209.133 46.952997 208.49701V204.824H11.718V208.379C11.718 209.015 11.202001 209.53099 10.566 209.53099H1.152C.516 209.53099 0 209.01499 0 208.379V1.27C0 .634 .516 .11800003 1.152 .11800003H10.566C11.202 .11800003 11.718 .634 11.718 1.27V4.825H46.953004V1.152C46.953 .516 47.469 0 48.105 0H57.753999C58.39 0 58.906 .516 58.906 1.152V4.825H141.094V1.152C141.094 .516 141.61 0 142.24599 0H151.89499C152.53099 0 153.04698 .516 153.04698 1.152V4.825H188.28199V1.27C188.28199 .634 188.79799 .11800003 189.43398 .11800003H198.84798C199.48398 .11800003 199.99997 .634 199.99997 1.27V208.38C199.99997 209.016 199.48397 209.532 198.84798 209.532H189.43398C188.79798 209.532 188.28199 209.01599 188.28199 208.38V204.82501H153.04698V208.49802C153.047 209.134 152.531 209.649 151.895 209.649ZM143.398 207.346H150.74399V203.67299C150.74399 203.03699 151.26 202.521 151.89598 202.521H189.43498C190.07099 202.521 190.58698 203.037 190.58698 203.67299V207.22798H197.69698V2.422H190.58698V5.977C190.58698 6.6130006 190.07097 7.129 189.43498 7.129H151.89598C151.25998 7.129 150.74399 6.6130006 150.74399 5.977V2.304H143.398V5.977C143.398 6.6130006 142.88199 7.129 142.246 7.129H57.754C57.118 7.129 56.602 6.6130006 56.602 5.977V2.304H49.256V5.977C49.256 6.6130006 48.74 7.129 48.104 7.129H10.566C9.93 7.129 9.414 6.6130006 9.414 5.977V2.422H2.3039995V207.228H9.414V203.673C9.414 203.037 9.929999 202.52101 10.566 202.52101H48.105005C48.741006 202.52101 49.257005 203.03702 49.257005 203.673V207.34601H56.603006V203.673C56.603006 203.037 57.119005 202.52101 57.755006 202.52101H142.246C142.882 202.52101 143.398 203.03702 143.398 203.673V207.346Z" fill="#5e17eb"/>
<path transform="matrix(1.5458014,0,0,1.5458014,250.41823,188.02263)" d="M189.434 30.664H151.895C151.259 30.664 150.74301 30.147999 150.74301 29.512V15.391C150.74301 14.755 151.25902 14.239 151.895 14.239H189.434C190.07 14.239 190.586 14.755 190.586 15.391001V29.512001C190.586 30.148 190.07 30.664 189.434 30.664ZM153.047 28.36H188.282V16.543H153.047V28.36Z" fill="#5e17eb"/>
<path transform="matrix(1.5458014,0,0,1.5458014,250.41823,188.02263)" d="M189.434 54.199H151.895C151.259 54.199 150.74301 53.683004 150.74301 53.047V38.926C150.74301 38.289999 151.25902 37.774 151.895 37.774H189.434C190.07 37.774 190.586 38.289999 190.586 38.926V53.046998C190.586 53.683 190.07 54.199 189.434 54.199ZM153.047 51.895H188.282V40.078H153.047V51.895Z" fill="#5e17eb"/>
<path transform="matrix(1.5458014,0,0,1.5458014,250.41823,188.02263)" d="M189.434 77.734H151.895C151.259 77.734 150.74301 77.218 150.74301 76.582V62.461C150.74301 61.824998 151.25902 61.309 151.895 61.309H189.434C190.07 61.309 190.586 61.824998 190.586 62.461V76.582C190.586 77.219 190.07 77.734 189.434 77.734ZM153.047 75.43H188.282V63.613H153.047V75.43Z" fill="#5e17eb"/>
<path transform="matrix(1.5458014,0,0,1.5458014,250.41823,188.02263)" d="M100 146.39C99.705 146.39 99.41 146.277 99.185 146.053L63.478998 110.34699C63.149999 110.01799 63.050996 109.521999 63.228998 109.091999 63.406999 108.660999 63.826997 108.381 64.293 108.381H135.706C136.172 108.381 136.592 108.661998 136.76999 109.091999 136.94799 109.521999 136.84999 110.018 136.51999 110.34699L100.81399 146.053C100.59 146.278 100.295 146.39 100 146.39ZM67.075 110.684 100 143.609 132.925 110.68399H67.075V110.684Z" fill="#5e17eb"/>
<path transform="matrix(1.5458014,0,0,1.5458014,250.41823,188.02263)" d="M135.706 101.269H64.293C63.827 101.269 63.406999 100.988 63.229 100.558 63.051 100.128 63.149 99.631999 63.479 99.303L99.185 63.597C99.634998 63.147 100.364 63.147 100.813999 63.597L136.51999 99.303C136.84899 99.632 136.94799 100.128 136.76999 100.558 136.592 100.989 136.172 101.269 135.706 101.269ZM67.074 98.966H132.92499L100 66.04 67.074 98.966Z" fill="#5e17eb"/>
<path transform="matrix(1.5458014,0,0,1.5458014,250.41823,188.02263)" d="M142.246 94.495C141.946 94.495 141.65201 94.378009 141.431 94.158008L105.841999 58.569005C105.62599 58.353006 105.505 58.060007 105.505 57.755006 105.505 57.449007 105.626 57.157007 105.841999 56.941007L141.431 21.352005C141.76 21.022006 142.256 20.924006 142.686 21.102005 143.116 21.280005 143.397 21.700005 143.397 22.166005V93.34401C143.397 93.81001 143.116 94.23001 142.686 94.40801 142.544 94.466 142.394 94.495 142.246 94.495ZM108.286 57.754 141.094 90.562V24.946L108.286 57.754Z" fill="#5e17eb"/>
<path transform="matrix(1.5458014,0,0,1.5458014,250.41823,188.02263)" d="M100 52.249C99.694 52.249 99.402 52.128004 99.185 51.912L63.479 16.205C63.15 15.875999 63.051 15.38 63.229 14.95 63.407 14.519 63.827 14.239 64.293 14.239H135.706C136.172 14.239 136.592 14.52 136.76999 14.950001 136.94799 15.380001 136.84999 15.876 136.51999 16.205L100.81399 51.912004C100.598 52.128 100.305 52.249 100 52.249ZM67.074 16.543 100 49.468 132.926 16.542H67.074V16.543Z" fill="#5e17eb"/>
<path transform="matrix(1.5458014,0,0,1.5458014,250.41823,188.02263)" d="M57.754 94.495C57.606004 94.495 57.456 94.466 57.313005 94.407009 56.883005 94.229007 56.602006 93.809009 56.602006 93.343V22.165C56.602006 21.699002 56.883005 21.279002 57.313005 21.101002 57.744005 20.922 58.239004 21.021002 58.568006 21.351002L94.157 56.94C94.373 57.156 94.493999 57.448999 94.493999 57.753999 94.493999 58.059999 94.37299 58.351999 94.157 58.567998L58.569 94.158C58.348 94.378 58.054 94.495 57.754 94.495ZM58.906 24.946V90.562L91.714 57.753999 58.906 24.946Z" fill="#5e17eb"/>
<path transform="matrix(1.5458014,0,0,1.5458014,250.41823,188.02263)" d="M48.105 30.664H10.566C9.93 30.664 9.414 30.147999 9.414 29.512V15.391C9.414 14.755 9.929999 14.239 10.566 14.239H48.105005C48.741006 14.239 49.257005 14.755 49.257005 15.391001V29.512001C49.257 30.148 48.741 30.664 48.105 30.664ZM11.718 28.36H46.953004V16.543H11.718V28.36Z" fill="#5e17eb"/>
<path transform="matrix(1.5458014,0,0,1.5458014,250.41823,188.02263)" d="M48.105 54.199H10.566C9.93 54.199 9.414 53.683004 9.414 53.047V38.926C9.414 38.289999 9.929999 37.774 10.566 37.774H48.105005C48.741006 37.774 49.257005 38.289999 49.257005 38.926V53.046998C49.257 53.683 48.741 54.199 48.105 54.199ZM11.718 51.895H46.953004V40.078H11.718V51.895Z" fill="#5e17eb"/>
<path transform="matrix(1.5458014,0,0,1.5458014,250.41823,188.02263)" d="M48.105 77.734H10.566C9.93 77.734 9.414 77.218 9.414 76.582V62.461C9.414 61.824998 9.929999 61.309 10.566 61.309H48.105005C48.741006 61.309 49.257005 61.824998 49.257005 62.461V76.582C49.257 77.219 48.741 77.734 48.105 77.734ZM11.718 75.43H46.953004V63.613H11.718V75.43Z" fill="#5e17eb"/>
<path transform="matrix(1.5458014,0,0,1.5458014,250.41823,188.02263)" d="M48.105 101.269H10.566C9.93 101.269 9.414 100.753 9.414 100.117V85.996C9.414 85.36 9.929999 84.844 10.566 84.844H48.105005C48.741006 84.844 49.257005 85.36 49.257005 85.996V100.117008C49.257 100.754 48.741 101.269 48.105 101.269ZM11.718 98.966H46.953004V87.148H11.718V98.966Z" fill="#5e17eb"/>
<path transform="matrix(1.5458014,0,0,1.5458014,250.41823,188.02263)" d="M48.105 195.411H10.566C9.93 195.411 9.414 194.89499 9.414 194.259V180.138C9.414 179.502 9.929999 178.98601 10.566 178.98601H48.105005C48.741006 178.98601 49.257005 179.50202 49.257005 180.138V194.259C49.257 194.895 48.741 195.411 48.105 195.411ZM11.718 193.107H46.953004V181.29H11.718V193.107Z" fill="#5e17eb"/>
<path transform="matrix(1.5458014,0,0,1.5458014,250.41823,188.02263)" d="M48.105 171.875H10.566C9.93 171.875 9.414 171.359 9.414 170.723V156.602C9.414 155.966 9.929999 155.45001 10.566 155.45001H48.105005C48.741006 155.45001 49.257005 155.96602 49.257005 156.602V170.723C49.257 171.36 48.741 171.875 48.105 171.875ZM11.718 169.572H46.953004V157.75402H11.718V169.572Z" fill="#5e17eb"/>
<path transform="matrix(1.5458014,0,0,1.5458014,250.41823,188.02263)" d="M48.105 148.34H10.566C9.93 148.34 9.414 147.82399 9.414 147.188V133.067C9.414 132.431 9.929999 131.91501 10.566 131.91501H48.105005C48.741006 131.91501 49.257005 132.43102 49.257005 133.067V147.188C49.257 147.824 48.741 148.34 48.105 148.34ZM11.718 146.036H46.953004V134.219H11.718V146.036Z" fill="#5e17eb"/>
<path transform="matrix(1.5458014,0,0,1.5458014,250.41823,188.02263)" d="M48.105 124.805H10.566C9.93 124.805 9.414 124.289 9.414 123.653V109.532C9.414 108.895999 9.929999 108.38 10.566 108.38H48.105005C48.741006 108.38 49.257005 108.895999 49.257005 109.532V123.653C49.257 124.289 48.741 124.805 48.105 124.805ZM11.718 122.501H46.953004V110.684H11.718V122.501Z" fill="#5e17eb"/>
<path transform="matrix(1.5458014,0,0,1.5458014,250.41823,188.02263)" d="M57.754 188.636C57.606004 188.636 57.456 188.607 57.313005 188.548 56.883005 188.37001 56.602006 187.95 56.602006 187.48401V116.30601C56.602006 115.840007 56.883005 115.420009 57.313005 115.242008 57.743005 115.063 58.239004 115.162 58.568006 115.492008L94.157009 151.08101C94.37301 151.29701 94.494 151.59001 94.494 151.895 94.494 152.201 94.373 152.49301 94.157009 152.709L58.568006 188.298C58.349 188.519 58.054 188.636 57.754 188.636ZM58.906 119.087V184.703L91.714 151.895 58.906 119.087Z" fill="#5e17eb"/>
<path transform="matrix(1.5458014,0,0,1.5458014,250.41823,188.02263)" d="M135.707 195.411H64.294C63.828 195.411 63.407999 195.12999 63.23 194.7 63.052 194.27 63.149999 193.774 63.48 193.44499L99.186008 157.73799C99.40201 157.52199 99.69501 157.40099 100.00101 157.40099 100.30701 157.40099 100.59901 157.52199 100.81601 157.73799L136.522 193.44499C136.851 193.77399 136.95 194.26999 136.772 194.7 136.593 195.13 136.173 195.411 135.707 195.411ZM67.075 193.107H132.926L100 160.181 67.075 193.107Z" fill="#5e17eb"/>
<path transform="matrix(1.5458014,0,0,1.5458014,250.41823,188.02263)" d="M142.246 188.636C141.946 188.636 141.65201 188.519 141.431 188.299L105.841999 152.70999C105.62599 152.49399 105.505 152.20099 105.505 151.896 105.505 151.59 105.626 151.29799 105.841999 151.082L141.431 115.493C141.76 115.162998 142.256 115.064998 142.686 115.243 143.116 115.421 143.397 115.840999 143.397 116.307V187.485C143.397 187.951 143.116 188.371 142.686 188.549 142.544 188.607 142.394 188.636 142.246 188.636ZM108.286 151.895 141.094 184.703V119.087009L108.286 151.895Z" fill="#5e17eb"/>
<path transform="matrix(1.5458014,0,0,1.5458014,250.41823,188.02263)" d="M189.434 195.411H151.895C151.259 195.411 150.74301 194.89499 150.74301 194.259V180.138C150.74301 179.502 151.25902 178.98601 151.895 178.98601H189.434C190.07 178.98601 190.586 179.50202 190.586 180.138V194.259C190.586 194.895 190.07 195.411 189.434 195.411ZM153.047 193.107H188.282V181.29H153.047V193.107Z" fill="#5e17eb"/>
<path transform="matrix(1.5458014,0,0,1.5458014,250.41823,188.02263)" d="M189.434 171.875H151.895C151.259 171.875 150.74301 171.359 150.74301 170.723V156.602C150.74301 155.966 151.25902 155.45001 151.895 155.45001H189.434C190.07 155.45001 190.586 155.96602 190.586 156.602V170.723C190.586 171.36 190.07 171.875 189.434 171.875ZM153.047 169.572H188.282V157.75402H153.047V169.572Z" fill="#5e17eb"/>
<path transform="matrix(1.5458014,0,0,1.5458014,250.41823,188.02263)" d="M189.434 148.34H151.895C151.259 148.34 150.74301 147.82399 150.74301 147.188V133.067C150.74301 132.431 151.25902 131.91501 151.895 131.91501H189.434C190.07 131.91501 190.586 132.43102 190.586 133.067V147.188C190.586 147.824 190.07 148.34 189.434 148.34ZM153.047 146.036H188.282V134.219H153.047V146.036Z" fill="#5e17eb"/>
<path transform="matrix(1.5458014,0,0,1.5458014,250.41823,188.02263)" d="M189.434 124.805H151.895C151.259 124.805 150.74301 124.289 150.74301 123.653V109.532C150.74301 108.895999 151.25902 108.38 151.895 108.38H189.434C190.07 108.38 190.586 108.895999 190.586 109.532V123.653C190.586 124.289 190.07 124.805 189.434 124.805ZM153.047 122.501H188.282V110.684H153.047V122.501Z" fill="#5e17eb"/>
<path transform="matrix(1.5458014,0,0,1.5458014,250.41823,188.02263)" d="M189.434 101.269H151.895C151.259 101.269 150.74301 100.753 150.74301 100.117V85.996C150.74301 85.36 151.25902 84.844 151.895 84.844H189.434C190.07 84.844 190.586 85.36 190.586 85.996V100.117008C190.586 100.754 190.07 101.269 189.434 101.269ZM153.047 98.966H188.282V87.148H153.047V98.966Z" fill="#5e17eb"/>
</g>
<g clip-path="url(#clip_9)">
<use data-text="Q" xlink:href="#font_10_85" transform="matrix(43.995,0,0,-43.995,299.0993,612.85739)"/>
<use data-text="U" xlink:href="#font_10_102" transform="matrix(43.995,0,0,-43.995,333.31788,612.85739)"/>
<use data-text="A" xlink:href="#font_10_2" transform="matrix(43.995,0,0,-43.995,365.71049,612.85739)"/>
<use data-text="N" xlink:href="#font_10_66" transform="matrix(43.995,0,0,-43.995,396.32026,612.85739)"/>
<use data-text="T" xlink:href="#font_10_97" transform="matrix(43.995,0,0,-43.995,430.7536,612.85739)"/>
<use data-text="U" xlink:href="#font_10_102" transform="matrix(43.995,0,0,-43.995,456.78804,612.85739)"/>
<use data-text="M" xlink:href="#font_10_65" transform="matrix(43.995,0,0,-43.995,490.08296,612.85739)"/>
<use data-text="G" xlink:href="#font_10_36" transform="matrix(43.995,0,0,-43.995,344.56806,674.35739)"/>
<use data-text="A" xlink:href="#font_10_2" transform="matrix(43.995,0,0,-43.995,377.32594,674.35739)"/>
<use data-text="T" xlink:href="#font_10_97" transform="matrix(43.995,0,0,-43.995,405.14308,674.35739)"/>
<use data-text="E" xlink:href="#font_10_25" transform="matrix(43.995,0,0,-43.995,431.1775,674.35739)"/>
<use data-text="S" xlink:href="#font_10_90" transform="matrix(43.995,0,0,-43.995,458.17854,674.35739)"/>
</g>
<path transform="matrix(1,0,0,-1,0,817.92)" d="M-.00000000000017053026 7.920007H810V817.92H-.00000000000017053026Z" fill-opacity="0"/>
<path transform="matrix(1,0,0,-1,0,817.92)" d="M250.36363 305.89738H559.63638V629.89736H250.36363Z" fill-opacity="0"/>
</g>
</svg>
