<svg xmlns="http://www.w3.org/2000/svg" xmlns:xlink="http://www.w3.org/1999/xlink" xmlns:inkscape="http://www.inkscape.org/namespaces/inkscape" version="1.1" width="810" height="810" viewBox="0 0 810 810">
<defs>
<clipPath id="clip_1">
<path transform="matrix(.24,0,0,.24,0,0)" d="M0 0H3375V3375H0Z" clip-rule="evenodd"/>
</clipPath>
<clipPath id="clip_2">
<path transform="matrix(.24,0,0,.24,0,0)" d="M0 0H3375V3375H0Z" clip-rule="evenodd"/>
</clipPath>
<clipPath id="clip_3">
<path transform="matrix(.24,0,0,.24,0,0)" d="M0 0H3375V3375H0Z"/>
</clipPath>
<clipPath id="clip_4">
<path transform="matrix(.24,0,0,.24,0,0)" d="M0 0H3375V3375H0Z"/>
</clipPath>
<clipPath id="clip_5">
<path transform="matrix(.24,0,0,.24,0,0)" d="M-.00000000000071054276 .00000000000035527138H3375V3375H-.00000000000071054276Z"/>
</clipPath>
<clipPath id="clip_6">
<path transform="matrix(.24,0,0,.24,0,0)" d="M2209.5704 .00000000000035527138 3053.3204 641.8033 3375 1681.9673 3053.3204 2722.131 2209.5704 3369.467H1165.4297L321.6797 2722.131-.00000000000071054276 1681.9673 321.6797 641.8033 1165.4297 .00000000000035527138H2209.5704Z"/>
</clipPath>
<clipPath id="clip_7">
<path transform="matrix(.24,0,0,.24,0,0)" d="M0 0H3375V3370H0Z"/>
</clipPath>
<clipPath id="clip_8">
<path transform="matrix(.24,0,0,.24,0,0)" d="M678.2296 873.4952H2696.9796V2095.37H678.2296Z" clip-rule="evenodd"/>
</clipPath>
<clipPath id="clip_9">
<path transform="matrix(.24,0,0,.24,0,0)" d="M0 0H3375V3375H0Z" clip-rule="evenodd"/>
</clipPath>
<path id="font_10_85" d="M.5673828-.17773438C.5045573-.17773438 .45239259-.16259766 .41088868-.13232422 .36938478-.10205078 .34147135-.059895833 .32714845-.005859375 .27278648 .001953125 .2253418 .020426432 .18481446 .049560548 .14428711 .078694667 .112711589 .11897787 .09008789 .17041016 .067464198 .22184246 .056152345 .28401695 .056152345 .3569336 .056152345 .4386393 .0703125 .5069173 .09863281 .5617676 .12695313 .61661788 .166097 .65738937 .21606446 .68408206 .2660319 .7107747 .32373048 .7241211 .38916017 .7241211 .45458985 .7241211 .51220706 .71085616 .5620117 .6843262 .6118164 .6577962 .65079757 .6170247 .6789551 .5620117 .7071126 .5069987 .7211914 .4386393 .7211914 .3569336 .7211914 .25016276 .69832357 .16821289 .6525879 .111083988 .60685226 .053955079 .54264327 .018391928 .45996095 .0043945314L.45751954-.0053710939C.4676107-.022623698 .48266603-.035888673 .50268557-.045166017 .5227051-.05444336 .5460612-.05908203 .5727539-.05908203 .5942383-.05908203 .61360678-.056315107 .6308594-.05078125L.640625-.052734376 .66064456-.16308594C.65022787-.16699219 .63623049-.17041016 .61865237-.17333985 .6010742-.17626953 .5839844-.17773438 .5673828-.17773438M.38916017 .11230469C.44970704 .11230469 .495931 .13175456 .52783206 .1706543 .5597331 .20955403 .5756836 .27164714 .5756836 .3569336 .5756836 .44222007 .5597331 .50439456 .52783206 .54345706 .495931 .58251956 .44970704 .6020508 .38916017 .6020508 .32828776 .6020508 .28181968 .58251956 .24975586 .54345706 .21769206 .50439456 .20166016 .44222007 .20166016 .3569336 .20166016 .27164714 .21769206 .20955403 .24975586 .1706543 .28181968 .13175456 .32828776 .11230469 .38916017 .11230469Z"/>
<path id="font_10_102" d="M.37841798-.010253906C.2801107-.010253906 .20719402 .013102214 .15966797 .059814454 .11214193 .106526698 .088378909 .17578125 .088378909 .26757813V.7138672H.2265625V.2685547C.2265625 .21647136 .23909505 .17740886 .26416017 .15136719 .28922526 .12532552 .3273112 .11230469 .37841798 .11230469 .47965495 .11230469 .53027346 .16438802 .53027346 .2685547V.7138672H.66845706V.26757813C.66845706 .17578125 .64469406 .106526698 .59716799 .059814454 .5496419 .013102214 .47672526-.010253906 .37841798-.010253906Z"/>
<path id="font_10_2" d="M.6850586 0H.5366211L.48291017 .16455078H.20947266L.15576172 0H.0107421879L.25732423 .7138672H.43847657L.6850586 0M.33935548 .5649414 .2475586 .28320313H.44384767L.3515625 .5649414H.33935548Z"/>
<path id="font_10_66" d="M.22949219 0H.09277344V.7138672H.25439454L.5410156 .25390626 .55371096 .25585938V.7138672H.6894531V0H.5449219L.24169922 .49121095 .22949219 .4892578V0Z"/>
<path id="font_10_97" d="M.5722656 .7138672V.59521487H.36621095V0H.22558594V.59521487H.01953125V.7138672H.5722656Z"/>
<path id="font_10_65" d="M.22216797 0H.09277344V.7138672H.27734376L.4580078 .18896485H.46826173L.6479492 .7138672H.828125V0H.69433596V.4716797L.6821289 .4736328 .51708987 0H.39941407L.234375 .4736328 .22216797 .4716797V0Z"/>
<path id="font_10_1" d=""/>
<path id="font_10_25" d="M.23388672 .31347657V.11816406H.57470706V0H.09277344V.7138672H.56689456V.5957031H.23388672V.42871095H.52490237V.31347657H.23388672Z"/>
<path id="font_10_86" d="M.09277344 0V.7138672H.37939454C.45328776 .7138672 .5090332 .6968587 .54663088 .6628418 .5842285 .6288249 .60302737 .58186849 .60302737 .52197268 .60302737 .47867839 .592041 .44319663 .57006838 .41552735 .5480957 .38785807 .5152995 .36669923 .4716797 .35205079V.34179688C.49414063 .33203126 .5122884 .31754557 .52612307 .29833985 .5399577 .27913413 .5530599 .25065104 .5654297 .21289063L.63671877 0H.49169923L.421875 .2133789C.41471354 .23486328 .4066569 .25154624 .39770509 .26342774 .38875328 .27530924 .37736003 .28393556 .3635254 .28930665 .34969078 .29467774 .33170573 .29736329 .3095703 .29736329H.23388672V0H.09277344M.3623047 .4091797C.43066407 .4091797 .46484376 .44108073 .46484376 .5048828 .46484376 .56966146 .43066407 .6020508 .3623047 .6020508H.23388672V.4091797H.3623047Z"/>
<path id="font_10_72" d="M.38916017-.010253906C.32373048-.010253906 .2660319 .003092448 .21606446 .029785157 .166097 .056477865 .12695313 .09724935 .09863281 .15209961 .0703125 .20694988 .056152345 .27522788 .056152345 .3569336 .056152345 .4386393 .0703125 .5069173 .09863281 .5617676 .12695313 .61661788 .166097 .65738937 .21606446 .68408206 .2660319 .7107747 .32373048 .7241211 .38916017 .7241211 .45458985 .7241211 .51220706 .71085616 .5620117 .6843262 .6118164 .6577962 .65079757 .6170247 .6789551 .5620117 .7071126 .5069987 .7211914 .4386393 .7211914 .3569336 .7211914 .27522788 .7071126 .20686849 .6789551 .15185547 .65079757 .096842449 .6118164 .056070966 .5620117 .029541016 .51220706 .0030110677 .45458985-.010253906 .38916017-.010253906M.38916017 .11230469C.44970704 .11230469 .495931 .13175456 .52783206 .1706543 .5597331 .20955403 .5756836 .27164714 .5756836 .3569336 .5756836 .44222007 .5597331 .50439456 .52783206 .54345706 .495931 .58251956 .44970704 .6020508 .38916017 .6020508 .32828776 .6020508 .28181968 .58251956 .24975586 .54345706 .21769206 .50439456 .20166016 .44222007 .20166016 .3569336 .20166016 .27164714 .21769206 .20955403 .24975586 .1706543 .28181968 .13175456 .32828776 .11230469 .38916017 .11230469Z"/>
<path id="font_10_15" d="M.39013673-.010253906C.3243815-.010253906 .2664388 .0034179688 .2163086 .030761719 .16617839 .05810547 .12695313 .09920248 .09863281 .15405274 .0703125 .208903 .056152345 .27652995 .056152345 .3569336 .056152345 .43733726 .0703125 .5049642 .09863281 .55981448 .12695313 .61466476 .16617839 .6557617 .2163086 .68310549 .2664388 .7104492 .3243815 .7241211 .39013673 .7241211 .45882163 .7241211 .5171712 .71069338 .56518557 .6838379 .6131999 .6569824 .64746096 .61604818 .66796877 .56103518L.5649414 .49804688 .5527344 .49853517C.5374349 .53564456 .5166829 .56225588 .49047853 .57836917 .46427409 .5944824 .4308268 .60253909 .39013673 .60253909 .33089195 .60253909 .28466798 .58292648 .25146485 .5437012 .21826172 .5044759 .20166016 .44222007 .20166016 .3569336 .20166016 .27197267 .21826172 .20987956 .25146485 .1706543 .28466798 .13142903 .33089195 .111816409 .39013673 .111816409 .48291017 .111816409 .53971359 .15690105 .5605469 .24707031H.5727539L.6767578 .1928711C.65722659 .12516277 .62386068 .07438151 .57666018 .040527345 .52945968 .0066731774 .46728517-.010253906 .39013673-.010253906Z"/>
<path id="font_10_44" d="M.23388672 0H.09277344V.7138672H.23388672V0Z"/>
</defs>
<g>
<g clip-path="url(#clip_1)">
<path transform="matrix(.75,0,0,.75,0,0)" d="M0 0H1080V1080H0Z" fill="#ffffff"/>
</g>
<g clip-path="url(#clip_2)">
<path transform="matrix(.75,0,0,.75,0,0)" d="M0 0H1080V1080H0Z" fill="#ffffff"/>
</g>
<g clip-path="url(#clip_3)">
<g clip-path="url(#clip_4)">
<g clip-path="url(#clip_5)">
<g clip-path="url(#clip_6)">
<g>
<g clip-path="url(#clip_7)">
<path transform="matrix(3.1640626,0,0,3.1640626,-.00000000000017053026,.00000000000008526513)" d="M0 0H256V256H0Z" fill="#f7ba20"/>
</g>
</g>
</g>
</g>
</g>
</g>
<g clip-path="url(#clip_8)">
<path transform="matrix(1.1013867,0,0,1.1010335,163.76634,209.77133)" d="M320.1 220.9 301.9 236.5 295.8 254.1H36.9V23.6 1H162.3V23.6H408.5V148.2L384.3 154.3 370.19999 175.1 373.4 196.3 345.8 198.3 339.3 215.6 320.1 220.9ZM398 177.5 387.8 196.4 388.4 222.9 363.69999 216 355.99998 231.8 338.59999 234.90001 314.69999 248.20001 311.69999 254.00002 408.69999 265.30003 419.3 174.30002 398 177.5Z" fill="#6090f2"/>
<path transform="matrix(1.1013867,0,0,1.1010335,163.76634,209.77133)" d="M320.1 220.9 301.9 236.5 298.6 246.1H45.3V32.2H401V150L384.2 154.2 370.1 175 373.30003 196.2 345.7 198.2 339.2 215.5 320.1 220.9ZM398 177.5 387.8 196.4 388.4 222.9 363.69999 216 355.99998 231.8 338.59999 234.90001 317.69999 246.50002 402.3 256.30003 411.69999 175.40003 398 177.5Z" fill="#d4f1ff"/>
<path transform="matrix(1.1013867,0,0,1.1010335,163.76634,209.77133)" d="M38.5 148.9 2.1 212.1C-.9000001 217.3 2.8999999 223.90001 8.9 223.90001H81.8C87.8 223.90001 91.600009 217.40001 88.600009 212.1L52.100008 148.90001C49.1 143.7 41.6 143.7 38.5 148.9Z" fill="#f7ba20"/>
<path transform="matrix(1.1013867,0,0,1.1010335,163.76634,209.77133)" d="M407.1 55.8C424.1 55.8 437.9 69.6 437.9 86.6 437.9 103.6 424.1 117.399997 407.1 117.399997 390.1 117.399997 376.30003 103.59999 376.30003 86.59999 376.30003 69.59999 390.1 55.8 407.1 55.8Z" fill="#fa5613"/>
<path transform="matrix(1.1013867,0,0,1.1010335,163.76634,209.77133)" d="M142.9 17.1 147.7 12.3 142.9 7.5 144.29999 6.1 149.09999 10.9 153.9 6.0999996 155.29999 7.4999997 150.49999 12.299999 155.29999 17.099999 153.9 18.499999 149.09999 13.699998 144.29999 18.499999 142.9 17.1ZM222.7 151.7C206.09999 151.7 194.4 160 190.1 163.5L197.8 172.7C201.1 170 210 163.7 222.7 163.7H222.8C235.5 163.7 244.40001 170 247.7 172.7L255.4 163.5C250 159.1 238.8 151.7 222.7 151.7 222.8 151.7 222.7 151.7 222.7 151.7ZM190.1 106H134.40001V118H190.1V106ZM260.1 118H315.80003V106H260.1V118ZM439 86.6C439 103.399997 426 117.1 409.5 118.3V148.2C409.5 148.7 409.2 149.09999 408.7 149.2L384.80003 155.2 371.1 175.4 374.30003 196.2C374.30003 196.5 374.30003 196.8 374.1 197 373.9 197.2 373.7 197.4 373.4 197.4L346.4 199.29999 340.1 215.99999C340 216.29999 339.7 216.49999 339.4 216.59999L320.6 221.9 302.80003 237.09999 299.6 246.4 296.80003 254.5C296.7 254.9 296.30003 255.2 295.90003 255.2H36.9C36.300004 255.2 35.9 254.8 35.9 254.2V224.9H8.900002C5.7000019 224.9 2.8000017 223.2 1.2000017 220.5-.3999983 217.7-.3999983 214.4 1.2000017 211.6L35.9 151.5V1C35.9 .39999999 36.300004 0 36.9 0H162.3C162.90001 0 163.3 .4 163.3 1V22.6H408.5C409.1 22.6 409.5 23 409.5 23.6V54.9C425.9 56.1 439 69.8 439 86.6ZM37.9 148C38 147.9 38.100004 147.8 38.100004 147.7 38.2 147.59999 38.300004 147.4 38.4 147.3 38.5 147.1 38.7 147 38.800004 146.8 38.9 146.7 39.000005 146.5 39.200006 146.40001 39.300004 146.3 39.500005 146.1 39.700006 146.00002 39.800004 145.90001 40.000005 145.80002 40.100008 145.70001 40.300008 145.6 40.400007 145.50002 40.600008 145.30002 40.700006 145.20001 40.900007 145.10002 41.000009 145.00002 41.20001 144.90001 41.40001 144.80002 41.600008 144.70001 41.700006 144.6 41.900007 144.6 42.000009 144.50002 42.20001 144.40001 42.40001 144.30002 42.70001 144.30002 42.800008 144.30002 43.000009 144.20001 43.10001 144.20001 43.30001 144.1 43.60001 144.1 43.90001 144.1 44.000009 144.1 44.10001 144 44.30001 144 44.40001 144 44.40001 144 44.50001 144V32.2C44.50001 31.6 44.900014 31.2 45.50001 31.2H401C401.6 31.2 402 31.6 402 32.2V55.1C403.7 54.8 405.4 54.699998 407.1 54.699998 407.2 54.699998 407.30003 54.699998 407.4 54.699998V24.6H162.3C161.7 24.6 161.3 24.2 161.3 23.6V2H37.9V148ZM8.9 222.9H36.9 45.300004 81.8C83.700008 222.9 85.4 222.2 86.600009 220.9 87.00001 220.5 87.40001 220 87.700008 219.5 88.9 217.4 88.9 214.8 87.700008 212.6L51.200006 149.40001C50.000005 147.3 47.700006 146.00002 45.300004 146.00002 42.800004 146.00002 40.600004 147.30002 39.4 149.40001L2.9 212.6C1.7 214.70001 1.7 217.3 2.9 219.5 4.1000006 221.7 6.4 222.9 8.9 222.9ZM297.2 247.1H45.3C44.7 247.1 44.3 246.70001 44.3 246.1V224.90001H37.899999V253.20001H295.1L297.2 247.1ZM384 153.3 400.1 149.3V117.700008C399.9 117.700008 399.7 117.600009 399.5 117.600009 399.3 117.600009 399.2 117.50001 399 117.50001 398.6 117.40001 398.2 117.30001 397.8 117.200008 397.69999 117.200008 397.59999 117.200008 397.59999 117.100009 395.59999 116.50001 393.69999 115.700008 391.99998 114.700008 391.59999 114.50001 391.09999 114.200008 390.69999 114.00001 390.3 113.700008 389.9 113.50001 389.4 113.200008 388.1 112.4 387 111.4 385.8 110.4 385.69999 110.3 385.59999 110.3 385.59999 110.200008 385.3 110.00001 385.09999 109.700008 384.8 109.50001 384.59999 109.40001 384.5 109.200008 384.4 109.00001 384.19999 108.80001 384.1 108.700008 383.9 108.50001 383.69999 108.30001 383.5 108.100009 383.4 107.90001 383.3 107.80001 383.19999 107.600009 383.1 107.50001 382.9 107.30001 382.7 107.00001 382.5 106.80001 382.4 106.70001 382.4 106.70001 382.3 106.60001 379.4 102.90002 377.3 98.60001 376.19999 93.80001 376.19999 93.70001 376.19999 93.70001 376.19999 93.60001 376.09999 93.30001 376.09999 92.90002 375.99998 92.60001 375.99998 92.40002 375.89997 92.30001 375.89997 92.10001 375.89997 91.80001 375.79997 91.500019 375.79997 91.20001 375.79997 91.000019 375.69996 90.70001 375.69996 90.500019 375.69996 90.30002 375.59996 90.000019 375.59996 89.80002 375.59996 89.500019 375.59996 89.20002 375.49995 88.90002 375.49995 88.70002 375.49995 88.500019 375.49995 88.30002 375.49995 87.80002 375.49995 87.30002 375.49995 86.80002 375.49995 86.30002 375.49995 85.80002 375.49995 85.30002 375.49995 85.10002 375.49995 84.90002 375.49995 84.70002 375.49995 84.40002 375.49995 84.10002 375.59996 83.80002 375.59996 83.60002 375.69996 83.30002 375.69996 83.10002 375.69996 82.900028 375.79997 82.60002 375.79997 82.400028 375.79997 82.10002 375.89997 81.800029 375.89997 81.50002 375.89997 81.300029 375.99998 81.20002 375.99998 81.00002 376.09999 80.70002 376.09999 80.300029 376.19999 80.00002 376.19999 79.900028 376.19999 79.900028 376.19999 79.800029 377.3 75.10003 379.4 70.70003 382.3 67.00002 382.4 66.900028 382.4 66.800029 382.5 66.800029 382.7 66.60003 382.9 66.300029 383.1 66.10003 383.2 66.00003 383.30003 65.800029 383.5 65.70003 383.7 65.50003 383.8 65.300029 384 65.10003 384.2 64.90003 384.3 64.70003 384.5 64.60003 384.6 64.50003 384.8 64.300029 384.9 64.20003 385.19999 63.90003 385.4 63.700029 385.69999 63.40003 385.8 63.30003 385.8 63.30003 385.9 63.200029 387 62.200029 388.19999 61.200029 389.5 60.40003 389.9 60.10003 390.3 59.80003 390.8 59.60003 391.19999 59.30003 391.69999 59.10003 392.09999 58.80003 393.89997 57.80003 395.8 57.00003 397.8 56.40003 397.9 56.40003 398 56.40003 398 56.30003 398.4 56.20003 398.8 56.10003 399.2 56.00003 399.40003 56.00003 399.5 55.900033 399.7 55.900033 399.90003 55.900033 400.1 55.800035 400.30003 55.800035V33.2H46.3V144C46.3 144 46.399999 144 46.399999 144 46.499998 144 46.6 144 46.8 144.1 47 144.1 47.3 144.20001 47.5 144.20001 47.6 144.20001 47.8 144.30002 47.9 144.30002 48.100004 144.40003 48.300004 144.40003 48.600004 144.50002 48.7 144.60002 48.9 144.60002 49.000005 144.70001 49.200006 144.80002 49.400007 144.90001 49.600004 145.00002 49.7 145.10002 49.800004 145.10002 50.000005 145.20001 50.200006 145.30002 50.400007 145.40001 50.600004 145.6 50.7 145.70001 50.800004 145.8 50.9 145.8 51.100004 145.90001 51.300004 146.1 51.4 146.3 51.5 146.40001 51.600004 146.5 51.7 146.6 51.9 146.8 52.100004 147 52.2 147.20001 52.3 147.30002 52.3 147.40001 52.4 147.40001 52.600004 147.70001 52.800004 148.00002 53 148.3L89.5 211.5C90.3 212.9 90.7 214.4 90.7 215.9 90.7 217.4 90.299999 218.9 89.5 220.29999 87.9 223.09999 85 224.69998 81.8 224.69998H46.3V244.89998H297.8L300.9 235.99999C301 235.79999 301.1 235.69998 301.19999 235.59999L319.4 219.99999C319.5 219.89998 319.6 219.79999 319.8 219.79999L338.4 214.59999 344.8 197.79999C344.9 197.4 345.3 197.19998 345.69999 197.19998L372.19999 195.29999 369.09999 175.19998C369.09999 174.99999 369.09999 174.69998 369.3 174.49999L383.4 153.69998C383.5 153.5 383.7 153.4 384 153.3ZM407.1 118.5C405.4 118.5 403.7 118.4 402 118.1V148.9L407.4 147.5V118.5C407.4 118.5 407.2 118.5 407.1 118.5ZM437 86.6C437 70.1 423.6 56.8 407.2 56.8 405.2 56.8 403.2 57 401.2 57.399999 401.1 57.399999 401 57.399999 400.90003 57.499998 400.50004 57.599996 400.10005 57.699998 399.80003 57.799997 399.7 57.799997 399.6 57.899995 399.50004 57.899995 399.10005 57.999994 398.80003 58.099996 398.40003 58.199995 398.30003 58.199995 398.2 58.29999 398.2 58.29999 397.80003 58.39999 397.40003 58.59999 397 58.699995 396.9 58.699995 396.9 58.699995 396.8 58.79999 396.4 58.999994 396 59.09999 395.59999 59.29999H395.49998C392.89997 60.39999 390.39997 61.89999 388.19999 63.699995 388.19999 63.699995 388.09999 63.79999 388.09999 63.79999 387.8 64.09999 387.49998 64.29999 387.19999 64.59999 387.09999 64.69999 386.99998 64.69999 386.99998 64.79999 386.79997 64.999988 386.49998 65.29999 386.29997 65.499988 386.19996 65.59998 386.09996 65.69998 385.99998 65.79999 385.79997 65.999988 385.59999 66.19999 385.39997 66.39999 385.29997 66.499988 385.09999 66.69999 384.99998 66.79999 384.89997 66.999988 384.69999 67.09999 384.59999 67.29999 383.59999 68.39999 382.69999 69.69999 381.89997 70.89999 381.69996 71.29999 381.49998 71.59998 381.29997 71.999988 379.89997 74.499988 378.79997 77.19998 378.19996 79.999988 378.19996 80.09998 378.09996 80.19998 378.09996 80.29999 377.99995 80.59999 377.99995 80.89999 377.89994 81.19999 377.89994 81.39999 377.79994 81.59999 377.79994 81.79999 377.79994 81.999988 377.69993 82.29999 377.69993 82.499988 377.69993 82.69998 377.5999 82.999988 377.5999 83.19998 377.5999 83.39998 377.5999 83.59998 377.4999 83.79998 377.4999 84.09998 377.3999 84.39998 377.3999 84.79998 377.3999 84.89998 377.3999 85.09998 377.3999 85.19998 377.3999 85.69998 377.3999 86.19998 377.3999 86.59998 377.3999 86.999988 377.3999 87.59998 377.3999 87.999988 377.3999 88.09998 377.3999 88.29999 377.3999 88.39999 377.3999 88.69999 377.3999 88.999988 377.4999 89.39999 377.4999 89.59998 377.4999 89.79999 377.5999 89.999988 377.5999 90.19998 377.69993 90.499988 377.69993 90.69998 377.69993 90.999988 377.79994 91.19998 377.79994 91.39998 377.79994 91.599979 377.89994 91.79998 377.89994 91.99998 377.99995 92.29998 377.99995 92.599979 378.09996 92.89998 378.09996 92.99998 378.19996 93.099979 378.19996 93.19998 378.89997 95.999988 379.89997 98.69998 381.29997 101.19998 382.29997 102.89998 383.39997 104.499988 384.59996 105.89998 384.69996 106.099979 384.89994 106.19998 384.99995 106.39998 385.09996 106.49998 385.29994 106.69998 385.39994 106.79998 385.59996 106.99998 385.79994 107.19998 385.99995 107.39998 386.09996 107.49998 386.19996 107.599979 386.29994 107.69998 386.49995 107.89998 386.79994 108.19998 386.99995 108.39998 387.09996 108.49998 387.19996 108.599979 387.19996 108.599979 387.49995 108.89998 387.79997 109.099979 388.09996 109.39998 388.09996 109.39998 388.19996 109.49998 388.19996 109.49998 390.39997 111.29998 392.79997 112.79998 395.49995 113.89998H395.59996C395.99995 114.099979 396.39994 114.19998 396.79997 114.39998 396.89997 114.39998 396.89997 114.39998 396.99998 114.49998 397.39997 114.599979 397.79997 114.79998 398.09999 114.89998 398.19999 114.89998 398.3 114.99998 398.3 114.99998 398.69999 115.099979 399 115.199977 399.4 115.29998 399.5 115.29998 399.6 115.39998 399.69999 115.39998 400.09999 115.49998 400.49998 115.599979 400.8 115.69998 400.9 115.69998 401 115.69998 401.09999 115.79998 402.99998 116.19998 404.99998 116.39998 407.09999 116.39998 407.49998 116.39998 407.99998 116.39998 408.39997 116.39998 424.3 115.7 437 102.6 437 86.6ZM422.6 71.2C421.5 70.1 420.1 69.6 418.6 69.6 417.1 69.6 415.7 70.2 414.6 71.2L407.1 78.7 399.6 71.2C398.5 70.1 397.1 69.6 395.6 69.6 394.1 69.6 392.7 70.2 391.6 71.2 390.5 72.299999 390 73.7 390 75.2 390 76.7 390.6 78.1 391.6 79.2L399.1 86.7 391.6 94.2C390.5 95.299999 390 96.7 390 98.2 390 99.7 390.6 101.1 391.6 102.2 392.7 103.299999 394.1 103.799999 395.6 103.799999 397.1 103.799999 398.5 103.2 399.6 102.2L407.1 94.7 414.6 102.2C415.7 103.299999 417.1 103.799999 418.6 103.799999 420.1 103.799999 421.5 103.2 422.6 102.2 424.80003 100 424.80003 96.5 422.6 94.299999L415.1 86.799999 422.6 79.299999C424.8 76.9 424.8 73.3 422.6 71.2ZM45.3 195.5C48 195.5 50.2 193.3 50.2 190.6V167.8C50.2 165.1 48 162.90001 45.3 162.90001 42.6 162.90001 40.399999 165.1 40.399999 167.8V190.6C40.4 193.3 42.6 195.5 45.3 195.5ZM45.3 212C48 212 50.2 209.8 50.2 207.1 50.2 204.40001 48 202.20001 45.3 202.20001 42.6 202.20001 40.399999 204.40001 40.399999 207.1 40.399999 209.8 42.6 212 45.3 212ZM59.8 19.6C60.3 19.2 61.7 18.2 63.6 18.2 65.5 18.2 66.9 19.2 67.4 19.6L68.700008 18.1C68.00001 17.5 66.200008 16.300002 63.600008 16.300002 61.100008 16.300002 59.300008 17.500002 58.500009 18.1L59.8 19.6ZM58.6 9.1H50V11.1H58.6V9.1ZM78 9.1H69.4V11.1H78V9.1ZM420.1 173.4C420.30003 173.59999 420.4 173.9 420.4 174.2L409.8 265.2C409.8 265.5 409.59999 265.7 409.4 265.90003 409.19999 266.00004 409 266.10005 408.8 266.10005 408.8 266.10005 408.69999 266.10005 408.69999 266.10005L311.69999 254.80004C311.4 254.80004 311.09999 254.60004 310.9 254.30004 310.69999 254.00003 310.69999 253.70003 310.9 253.40004L313.9 247.60004C314 247.40004 314.1 247.30004 314.3 247.20005L317.3 245.50005 338.19999 233.90004C338.3 233.80004 338.4 233.80004 338.49998 233.80004L355.39997 230.80004 362.89997 215.50003C363.09999 215.10004 363.59999 214.80004 364.09999 215.00003L387.49998 221.60004 386.89997 196.50003C386.89997 196.30004 386.89997 196.20003 386.99998 196.00003L397.19999 177.10004C397.3 176.80004 397.59999 176.60004 397.9 176.60004L411.69999 174.40004 419.3 173.20005C419.6 173.1 419.9 173.2 420.1 173.4ZM339 235.8 321 245.8 401.5 255.2 410.6 176.6 398.6 178.5 388.80003 196.7 389.40003 222.9C389.40003 223.2 389.30003 223.5 389.00004 223.7 388.70005 223.9 388.40003 224 388.10005 223.9L364.20005 217.2 356.90007 232.2C356.80006 232.5 356.50007 232.7 356.20005 232.7L339 235.8ZM418.3 175.3 412.69999 176.2 403.4 256.4C403.3 256.9 402.9 257.3 402.4 257.3 402.4 257.3 402.3 257.3 402.3 257.3L318 247.49999 315.5 248.89998 313.3 253.09998 407.9 264.09999 418.3 175.3Z"/>
</g>
<g clip-path="url(#clip_9)">
<use data-text="Q" xlink:href="#font_10_85" transform="matrix(43.995,0,0,-43.995,219.25948,612.85739)"/>
<use data-text="U" xlink:href="#font_10_102" transform="matrix(43.995,0,0,-43.995,253.47801,612.85739)"/>
<use data-text="A" xlink:href="#font_10_2" transform="matrix(43.995,0,0,-43.995,285.87065,612.85739)"/>
<use data-text="N" xlink:href="#font_10_66" transform="matrix(43.995,0,0,-43.995,316.48045,612.85739)"/>
<use data-text="T" xlink:href="#font_10_97" transform="matrix(43.995,0,0,-43.995,350.91377,612.85739)"/>
<use data-text="U" xlink:href="#font_10_102" transform="matrix(43.995,0,0,-43.995,376.9482,612.85739)"/>
<use data-text="M" xlink:href="#font_10_65" transform="matrix(43.995,0,0,-43.995,410.2431,612.85739)"/>
<use data-text=" " xlink:href="#font_10_1" transform="matrix(43.995,0,0,-43.995,450.77687,612.85739)"/>
<use data-text="E" xlink:href="#font_10_25" transform="matrix(43.995,0,0,-43.995,461.15199,612.85739)"/>
<use data-text="R" xlink:href="#font_10_86" transform="matrix(43.995,0,0,-43.995,488.15309,612.85739)"/>
<use data-text="R" xlink:href="#font_10_86" transform="matrix(43.995,0,0,-43.995,517.51699,612.85739)"/>
<use data-text="O" xlink:href="#font_10_72" transform="matrix(43.995,0,0,-43.995,546.8809,612.85739)"/>
<use data-text="R" xlink:href="#font_10_86" transform="matrix(43.995,0,0,-43.995,581.0994,612.85739)"/>
<use data-text="C" xlink:href="#font_10_15" transform="matrix(43.995,0,0,-43.995,269.95478,674.35739)"/>
<use data-text="O" xlink:href="#font_10_72" transform="matrix(43.995,0,0,-43.995,300.3927,674.35739)"/>
<use data-text="R" xlink:href="#font_10_86" transform="matrix(43.995,0,0,-43.995,334.61128,674.35739)"/>
<use data-text="R" xlink:href="#font_10_86" transform="matrix(43.995,0,0,-43.995,363.9752,674.35739)"/>
<use data-text="E" xlink:href="#font_10_25" transform="matrix(43.995,0,0,-43.995,393.3391,674.35739)"/>
<use data-text="C" xlink:href="#font_10_15" transform="matrix(43.995,0,0,-43.995,419.88905,674.35739)"/>
<use data-text="T" xlink:href="#font_10_97" transform="matrix(43.995,0,0,-43.995,450.6922,674.35739)"/>
<use data-text="I" xlink:href="#font_10_44" transform="matrix(43.995,0,0,-43.995,476.72657,674.35739)"/>
<use data-text="O" xlink:href="#font_10_72" transform="matrix(43.995,0,0,-43.995,491.1186,674.35739)"/>
<use data-text="N" xlink:href="#font_10_66" transform="matrix(43.995,0,0,-43.995,525.3371,674.35739)"/>
</g>
<path transform="matrix(1,0,0,-1,0,817.92)" d="M-.00000000000017053026 7.920007H810V817.92H-.00000000000017053026Z" fill-opacity="0"/>
<path transform="matrix(1,0,0,-1,0,817.92)" d="M162.77512 314.96885H647.22488V608.2811H162.77512Z" fill-opacity="0"/>
</g>
</svg>
