<svg xmlns="http://www.w3.org/2000/svg" xmlns:xlink="http://www.w3.org/1999/xlink" xmlns:inkscape="http://www.inkscape.org/namespaces/inkscape" version="1.1" width="810" height="810" viewBox="0 0 810 810">
<defs>
<clipPath id="clip_1">
<path transform="matrix(.24,0,0,.24,0,0)" d="M0 0H3375V3375H0Z" clip-rule="evenodd"/>
</clipPath>
<clipPath id="clip_2">
<path transform="matrix(.24,0,0,.24,0,0)" d="M0 0H3375V3375H0Z" clip-rule="evenodd"/>
</clipPath>
<clipPath id="clip_3">
<path transform="matrix(.24,0,0,.24,0,0)" d="M0 0H3375V3375H0Z"/>
</clipPath>
<clipPath id="clip_4">
<path transform="matrix(.24,0,0,.24,0,0)" d="M0 0H3375V3375H0Z"/>
</clipPath>
<clipPath id="clip_5">
<path transform="matrix(.24,0,0,.24,0,0)" d="M-.00000000000071054276 .00000000000035527138H3375V3375H-.00000000000071054276Z"/>
</clipPath>
<clipPath id="clip_6">
<path transform="matrix(.24,0,0,.24,0,0)" d="M2209.5704 .00000000000035527138 3053.3204 641.8033 3375 1681.9673 3053.3204 2722.131 2209.5704 3369.467H1165.4297L321.6797 2722.131-.00000000000071054276 1681.9673 321.6797 641.8033 1165.4297 .00000000000035527138H2209.5704Z"/>
</clipPath>
<clipPath id="clip_7">
<path transform="matrix(.24,0,0,.24,0,0)" d="M0 0H3375V3370H0Z"/>
</clipPath>
<clipPath id="clip_8">
<path transform="matrix(.24,0,0,.24,0,0)" d="M845.36489 863.5684H2529.7398V2238.5684H845.36489Z" clip-rule="evenodd"/>
</clipPath>
<clipPath id="clip_9">
<path transform="matrix(.24,0,0,.24,0,0)" d="M0 0H3375V3375H0Z" clip-rule="evenodd"/>
</clipPath>
<path id="font_10_85" d="M.5673828-.17773438C.5045573-.17773438 .45239259-.16259766 .41088868-.13232422 .36938478-.10205078 .34147135-.059895833 .32714845-.005859375 .27278648 .001953125 .2253418 .020426432 .18481446 .049560548 .14428711 .078694667 .112711589 .11897787 .09008789 .17041016 .067464198 .22184246 .056152345 .28401695 .056152345 .3569336 .056152345 .4386393 .0703125 .5069173 .09863281 .5617676 .12695313 .61661788 .166097 .65738937 .21606446 .68408206 .2660319 .7107747 .32373048 .7241211 .38916017 .7241211 .45458985 .7241211 .51220706 .71085616 .5620117 .6843262 .6118164 .6577962 .65079757 .6170247 .6789551 .5620117 .7071126 .5069987 .7211914 .4386393 .7211914 .3569336 .7211914 .25016276 .69832357 .16821289 .6525879 .111083988 .60685226 .053955079 .54264327 .018391928 .45996095 .0043945314L.45751954-.0053710939C.4676107-.022623698 .48266603-.035888673 .50268557-.045166017 .5227051-.05444336 .5460612-.05908203 .5727539-.05908203 .5942383-.05908203 .61360678-.056315107 .6308594-.05078125L.640625-.052734376 .66064456-.16308594C.65022787-.16699219 .63623049-.17041016 .61865237-.17333985 .6010742-.17626953 .5839844-.17773438 .5673828-.17773438M.38916017 .11230469C.44970704 .11230469 .495931 .13175456 .52783206 .1706543 .5597331 .20955403 .5756836 .27164714 .5756836 .3569336 .5756836 .44222007 .5597331 .50439456 .52783206 .54345706 .495931 .58251956 .44970704 .6020508 .38916017 .6020508 .32828776 .6020508 .28181968 .58251956 .24975586 .54345706 .21769206 .50439456 .20166016 .44222007 .20166016 .3569336 .20166016 .27164714 .21769206 .20955403 .24975586 .1706543 .28181968 .13175456 .32828776 .11230469 .38916017 .11230469Z"/>
<path id="font_10_102" d="M.37841798-.010253906C.2801107-.010253906 .20719402 .013102214 .15966797 .059814454 .11214193 .106526698 .088378909 .17578125 .088378909 .26757813V.7138672H.2265625V.2685547C.2265625 .21647136 .23909505 .17740886 .26416017 .15136719 .28922526 .12532552 .3273112 .11230469 .37841798 .11230469 .47965495 .11230469 .53027346 .16438802 .53027346 .2685547V.7138672H.66845706V.26757813C.66845706 .17578125 .64469406 .106526698 .59716799 .059814454 .5496419 .013102214 .47672526-.010253906 .37841798-.010253906Z"/>
<path id="font_10_14" d="M.09277344 0V.7138672H.39746095C.44140626 .7138672 .47859703 .7069499 .5090332 .69311526 .5394694 .6792806 .5625 .6595866 .578125 .6340332 .59375 .6084798 .6015625 .5782878 .6015625 .54345706 .6015625 .51188156 .5939128 .48404948 .5786133 .45996095 .5633138 .4358724 .5413411 .4165039 .5126953 .40185548V.39160157C.5576172 .3798828 .59228518 .3585612 .6166992 .32763673 .6411133 .29671226 .6533203 .25878907 .6533203 .21386719 .6533203 .14550781 .63273116 .09277344 .59155276 .055664064 .5503743 .018554688 .4892578 0 .40820313 0H.09277344M.36816407 .42919923C.43391929 .42919923 .46679688 .45882163 .46679688 .5180664 .46679688 .54833987 .45865885 .57088217 .4423828 .58569338 .42610679 .6005046 .4013672 .60791018 .36816407 .60791018H.23388672V.42919923H.36816407M.39404298 .111816409C.47184245 .111816409 .5107422 .14713542 .5107422 .21777344 .5107422 .28873698 .47184245 .32421876 .39404298 .32421876H.23388672V.111816409H.39404298Z"/>
<path id="font_10_44" d="M.23388672 0H.09277344V.7138672H.23388672V0Z"/>
<path id="font_10_97" d="M.5722656 .7138672V.59521487H.36621095V0H.22558594V.59521487H.01953125V.7138672H.5722656Z"/>
<path id="font_10_66" d="M.22949219 0H.09277344V.7138672H.25439454L.5410156 .25390626 .55371096 .25585938V.7138672H.6894531V0H.5449219L.24169922 .49121095 .22949219 .4892578V0Z"/>
<path id="font_10_25" d="M.23388672 .31347657V.11816406H.57470706V0H.09277344V.7138672H.56689456V.5957031H.23388672V.42871095H.52490237V.31347657H.23388672Z"/>
<path id="font_10_86" d="M.09277344 0V.7138672H.37939454C.45328776 .7138672 .5090332 .6968587 .54663088 .6628418 .5842285 .6288249 .60302737 .58186849 .60302737 .52197268 .60302737 .47867839 .592041 .44319663 .57006838 .41552735 .5480957 .38785807 .5152995 .36669923 .4716797 .35205079V.34179688C.49414063 .33203126 .5122884 .31754557 .52612307 .29833985 .5399577 .27913413 .5530599 .25065104 .5654297 .21289063L.63671877 0H.49169923L.421875 .2133789C.41471354 .23486328 .4066569 .25154624 .39770509 .26342774 .38875328 .27530924 .37736003 .28393556 .3635254 .28930665 .34969078 .29467774 .33170573 .29736329 .3095703 .29736329H.23388672V0H.09277344M.3623047 .4091797C.43066407 .4091797 .46484376 .44108073 .46484376 .5048828 .46484376 .56966146 .43066407 .6020508 .3623047 .6020508H.23388672V.4091797H.3623047Z"/>
<path id="font_10_15" d="M.39013673-.010253906C.3243815-.010253906 .2664388 .0034179688 .2163086 .030761719 .16617839 .05810547 .12695313 .09920248 .09863281 .15405274 .0703125 .208903 .056152345 .27652995 .056152345 .3569336 .056152345 .43733726 .0703125 .5049642 .09863281 .55981448 .12695313 .61466476 .16617839 .6557617 .2163086 .68310549 .2664388 .7104492 .3243815 .7241211 .39013673 .7241211 .45882163 .7241211 .5171712 .71069338 .56518557 .6838379 .6131999 .6569824 .64746096 .61604818 .66796877 .56103518L.5649414 .49804688 .5527344 .49853517C.5374349 .53564456 .5166829 .56225588 .49047853 .57836917 .46427409 .5944824 .4308268 .60253909 .39013673 .60253909 .33089195 .60253909 .28466798 .58292648 .25146485 .5437012 .21826172 .5044759 .20166016 .44222007 .20166016 .3569336 .20166016 .27197267 .21826172 .20987956 .25146485 .1706543 .28466798 .13142903 .33089195 .111816409 .39013673 .111816409 .48291017 .111816409 .53971359 .15690105 .5605469 .24707031H.5727539L.6767578 .1928711C.65722659 .12516277 .62386068 .07438151 .57666018 .040527345 .52945968 .0066731774 .46728517-.010253906 .39013673-.010253906Z"/>
<path id="font_10_72" d="M.38916017-.010253906C.32373048-.010253906 .2660319 .003092448 .21606446 .029785157 .166097 .056477865 .12695313 .09724935 .09863281 .15209961 .0703125 .20694988 .056152345 .27522788 .056152345 .3569336 .056152345 .4386393 .0703125 .5069173 .09863281 .5617676 .12695313 .61661788 .166097 .65738937 .21606446 .68408206 .2660319 .7107747 .32373048 .7241211 .38916017 .7241211 .45458985 .7241211 .51220706 .71085616 .5620117 .6843262 .6118164 .6577962 .65079757 .6170247 .6789551 .5620117 .7071126 .5069987 .7211914 .4386393 .7211914 .3569336 .7211914 .27522788 .7071126 .20686849 .6789551 .15185547 .65079757 .096842449 .6118164 .056070966 .5620117 .029541016 .51220706 .0030110677 .45458985-.010253906 .38916017-.010253906M.38916017 .11230469C.44970704 .11230469 .495931 .13175456 .52783206 .1706543 .5597331 .20955403 .5756836 .27164714 .5756836 .3569336 .5756836 .44222007 .5597331 .50439456 .52783206 .54345706 .495931 .58251956 .44970704 .6020508 .38916017 .6020508 .32828776 .6020508 .28181968 .58251956 .24975586 .54345706 .21769206 .50439456 .20166016 .44222007 .20166016 .3569336 .20166016 .27164714 .21769206 .20955403 .24975586 .1706543 .28181968 .13175456 .32828776 .11230469 .38916017 .11230469Z"/>
</defs>
<g>
<g clip-path="url(#clip_1)">
<path transform="matrix(.75,0,0,.75,0,0)" d="M0 0H1080V1080H0Z" fill="#ffffff"/>
</g>
<g clip-path="url(#clip_2)">
<path transform="matrix(.75,0,0,.75,0,0)" d="M0 0H1080V1080H0Z" fill="#ffffff"/>
</g>
<g clip-path="url(#clip_3)">
<g clip-path="url(#clip_4)">
<g clip-path="url(#clip_5)">
<g clip-path="url(#clip_6)">
<g>
<g clip-path="url(#clip_7)">
<path transform="matrix(3.1640626,0,0,3.1640626,-.00000000000017053026,.00000000000008526513)" d="M0 0H256V256H0Z" fill="#f7ba20"/>
</g>
</g>
</g>
</g>
</g>
</g>
<g clip-path="url(#clip_8)">
<path transform="matrix(.8084688,0,0,.80842718,202.89536,209.03496)" d="M485.99 174.89 485.88999 175.23C484.15 181.23 480.59999 185.37999 475.05 187.93 468.19 191.06 458.49 191.92 446.21 190.5 452.99 177.13 473.5 164.68 477.8 164.68H478.13999L478.36 159.01 478.3 158.64H477.94C477.9 158.64 477.85 158.63 477.81 158.63 474.05 158.63 466.58 162.54001 458.78 168.58 450.19 175.25 443.28 182.89 439.78 189.59 439.25 189.5 438.72 189.41 438.19 189.31999 437.1 113.30999 420.46 103.509998 407.08003 95.63999 405.82 94.899997 404.62004 94.189998 403.46003 93.44999 396.95 89.27999 392.94004 83.29999 392.18003 76.59999 391.56004 71.15999 393.2 66.009998 396.68003 62.45999 403.98 55.019994 427.68003 37.08999 427.92 36.909994L428.21003 36.68999 418.94004 25.37999 418.67005 25.61999C418.48005 25.78999 399.85005 42.549989 391.21006 49.53999 387.23005 52.75999 382.06007 54.00999 377.02006 52.97999 370.64006 51.669988 365.03007 46.97999 361.22007 39.779989 349.15007 16.919987 332.56007 3.7099877 311.92008 .49998857 294.51008-2.2200115 273.76008 5.7899887 248.48007 24.959988 232.03 7.55 214.85-.41 197.41 1.31 175.65001 3.47 157.99 20.74 148.76001 36.120004 134.74 51.930006 118.18001 47.350004 113.34001 45.530004L111.05001 43.530004C104.94001 38.190004 90.63001 25.680003 84.84001 20.690003L84.58001 20.460003 80.64001 25.040003 80.90001 25.270003C86.73001 30.310002 101.64001 43.340005 107.25001 48.24L109.28001 50.010004C113.61001 59.090005 118.71001 75.48 104.66 83.69 62.940004 101.46001 59.860006 128.28 55.210004 168.9L55.000005 170.78C47.570005 159.35 35.090005 144.08 23.480004 137.45L23.180005 137.28 15.940004 149.95 16.240004 150.12C26.530003 156.01 41.160005 173.42 48.120004 183.69 30.260003 185.29001 15.090004 177.52 5.330002 161.74L5.150002 161.44 0 164.61 .18 164.91C10.320001 181.31 25.24 189.97 43.34 189.97 46.06 189.97 48.83 189.76 51.58 189.37 51.940004 190.06 52.24 190.68 52.440004 191.20999 54.33 196.15999 54.750005 203.70999 51.210004 208.59 48.56 212.25 44.120004 213.95999 38.020006 213.68 34.480005 213.51999 31.220005 213.37 28.220005 213.23999 16.270005 212.70999 8.380005 212.34999 2.2400056 211.74999L1.8900055 211.71999 .4500054 226.22998 .80000546 226.26998C9.560005 227.13997 22.880005 227.41997 33.580007 227.64998 38.110006 227.74999 42.030008 227.82997 44.780008 227.93997 47.690008 228.05997 50.170007 229.29998 52.170007 231.62998 55.300008 235.27997 56.150007 240.32997 55.980009 241.79998 55.930009 242.13997 55.86001 242.48998 55.800008 242.83997 55.340009 245.47997 54.830007 248.43997 54.270009 251.78997 53.85001 254.27997 53.40001 256.96998 52.92001 259.89997L52.36001 263.30998 56.680009 264.01997C51.160009 288.20997 57.160009 322.99998 74.98001 336.57997 85.62001 344.66996 99.51001 344.69996 114.91001 336.40995 128.28002 334.30995 135.52002 338.48994 147.15001 355.00996 148.55 365.39997 147.48001 382.58995 145.69 386.45997L145.54001 386.77998 151.03002 389.31999 151.18001 388.99998C153.62001 383.72999 154.65001 365.09999 153.12001 353.98997 155.67002 341.58998 157.68001 335.84999 178.02 330.06996 186.19 330.81996 194.62001 331.95997 202.44 333.36994 193.93001 361.77995 189.73 382.47993 189.59 396.61994V396.96995L195.62999 397.02995V396.67994C195.76 382.98994 199.93999 362.64994 208.4 334.52995 220.43 337.03996 228.43 339.85993 230.93 342.45994L231.17 342.70994 235.52 338.51994 235.28 338.26994C231.87 334.73994 223.41 331.53993 210.16 328.75993 215.73001 310.7799 221.82 293.3799 226.72 279.38993L226.81 279.13993C229.51 271.44993 232.06 264.1899 233.70999 259.03993 240.51 259.35993 247.29 260.13993 253.87 261.3699L254.23999 262.6999C260.15 283.9899 266.84 308.1099 271.93 331.21989 257.83 333.20988 249.45999 334.27989 247.72 334.3199L247.73 335.0199C247.79 335.0199 248.05 335.0199 248.44 335.0799L245.72 348.68989 246.06 348.7599C246.36 348.8199 246.66 348.86988 247.31999 348.86988 249.04 348.86988 253.76999 348.52989 274.9 345.5699 279.96 372.0099 281 390.5099 278.1 402.1099L278.02003 402.4499 292.17 405.9899 292.25 405.6499C295.64 392.0899 294.7 371.7399 289.36 343.4699 302.28999 339.8999 311.68 340.4899 317.28 345.22993 324.78 351.57994 323.48 363.7199 322.98 368.28993L322.90003 369.00993C322.13005 376.75993 321.23 392.8399 323.39 398.2199L323.52003 398.53993 336.74003 393.2499 336.72004 393.2099 337.04005 393.1099C337.04005 393.1099 337.04005 393.09989 337.04005 393.09989 334.59004 383.68989 334.41004 376.55989 334.68006 372.2299 335.45005 360.15989 340.57008 352.24989 349.91007 348.7299 354.55009 346.9899 361.62007 350.8199 369.11009 354.8899 375.95008 358.59989 383.0301 362.43989 389.01008 362.43989 394.23008 362.43989 399.59007 361.42988 404.94007 359.42988 417.62007 354.67988 426.40007 341.98988 431.79008 320.64988 436.24009 303.03987 438.48008 279.28987 438.84007 245.89987 444.13008 242.58988 452.75007 239.34987 486.94007 242.44988L487.32008 242.47988V236.87987L487.06007 236.80986C485.30006 236.31986 483.29008 235.83986 481.15007 235.32987 480.08006 235.07987 478.97007 234.80986 477.82008 234.52986 465.14009 231.40987 450.59007 226.51987 438.74006 213.90987 438.69007 210.63986 438.63008 207.34987 438.57005 204.01987 445.38005 205.07987 451.67005 205.61988 457.29005 205.61988 466.73005 205.61988 474.75004 204.13988 481.13005 201.21988 490.63005 196.87989 496.95005 189.51988 499.91004 179.32988L500.01005 178.98989 485.99 174.89ZM78.64 331.75C62.85 319.72 57.58 287.01 62.67 264.98L66.81 265.66 66.82 265.25C67.11 245.02 72.37 238.05 76.74 235.76 80.47 233.81 85.119998 234.47 89.83 237.64 90.71 238.23 91.67 238.85 92.75 239.51 88.33 250.45 97.64 283.65 119.770008 299.07 124.01 313.22 121.48 323.95 112.310009 330.92 98.86 338.26 87.53 338.53 78.64 331.75ZM99.76 225.7C96.86 223.22 91.39 218.31999 91.600009 211.09 91.82001 203.7 97.880008 195.41 109.630008 186.45999 113.93001 193.76999 118.65001 200.15999 123.670009 205.5 116.96 209.58 105.12 218.55 99.76 225.7ZM203.38 106.4C198.93001 111.23 196.41 117.04 195.85 123.65 189.55 125.310009 174.64002 127.740009 164.41 128 172.99 118.64 182.88 107.89 192.58 97.64 196.67 99.84 201.03 102.06 205.55 104.24 204.8 104.92 204.08 105.65 203.38 106.4ZM158.19 134.79 158.97 133.93999C160 133.99999 161.15 134.04 162.4 134.04 168.93999 134.04 176.89 133.09999 181.04999 132.54 182.54 132.34 190.13999 131.29 195.9 129.87 196 130.93 196.14 131.98999 196.31999 133.01 196.56999 134.4 196.90999 135.79 197.31999 137.15 167.84999 146.15999 149.90999 151.68999 139.65 154.94 145.86 148.24 152.12 141.41 158.19 134.79ZM217.72 192C216.94 192.93 216.11 193.84 215.22 194.68 192.49 209.71999 172.67 214.81999 156.31 209.81999 151.87 208.45999 147.56 206.32999 143.47 203.48999 160.52 198.14 202.46 193.22 217.72 192ZM221.66 185.71C215.76001 185.95001 199.48001 187.58 182.98001 189.85 167.49 191.98001 147.17002 195.29001 137.93001 199.04001 131.55 193.26001 125.61001 185.38 120.25001 175.6 124.03001 171.64 127.73001 167.73001 131.25 163.96 138.33 161.59001 172.28 151.12001 199.41 142.81002 202.84 150.51001 208.63 158.18001 217.1 166.25002 222.95 171.85 224.56 178.75 221.66 185.71ZM235.94 159.05C232.19 158.67 228.64 157.40001 225.43001 155.3 220.16 150.14 216.72 145.77 214.36002 141.25 224.51 142.64 232.54 151.26 235.94 159.05ZM284.8 112.56C287.96 114.159999 290.41999 116.25 292.15 118.78 288.72999 118.02 285.22999 117.19 281.72999 116.299999 274.78999 114.549999 267.84999 112.56999 261.05998 110.42 269.94 108.55 278.34 109.29 284.8 112.56ZM299.67 120.36C297.67 114.8 293.37004 110.12 287.52003 107.17 277.66004 102.17 264.01 102.159999 251.00002 107.11 246.95001 105.72 242.82 104.21 238.70001 102.62 254.1 97.04 274.52003 92.47 296.36003 89.72L327.74003 123.68C320.06 123.61 310.63 122.5 299.67 120.36ZM318.84 145.23C308.13 140.31999 299.74 136.45999 293.69 134.04999 307.49 136.91999 318.89 138.31999 328.43 138.31999 332.25999 138.31999 335.82 138.07999 339.02 137.62999 343.09 143.87 352.28999 154.90999 360.9 163.93999 345.25 157.35 330.65 150.65 318.84 145.23ZM280.55 164.22 280.65998 164.12C287.67997 158.08 292.48997 153.83 295.01997 150.45 299.54997 152.43 304.86997 154.87 311.01997 157.69L312.74998 158.48C331.27998 166.98999 354.30998 177.56 378.22999 186.65 374.12998 193.62 366.40998 206 362.52 211.31999 356.58 208.24999 350.00999 205.21999 342.97 202.31999 321.47 193.45 289.66 183.60999 279.51 181.20999 275.01 180.15 271.28 178.12999 268.39 175.20999 271.72 171.83 276.2 167.96 280.55 164.22ZM227.94 114.13 212.34 118.659999C212.84 117.81 213.44 117.009998 214.12999 116.259998 215.7 114.549999 217.87 112.81 220.59999 111.06999 223.15 112.17 225.56 113.17 227.94 114.13ZM284.01 146.03C285.33003 146.45 287.07 147.11 289.27003 148.01 286.57 151.06 281.50004 155.43999 277.00004 159.31999L276.73005 159.54999C272.80006 162.93 268.36006 166.74999 264.85005 170.21999 262.73005 165.87999 262.54005 161.04999 264.43003 157.80998 269.29 149.39 279.12 144.48 284.01 146.03ZM367.87 214.19C371.8 209.37 380.08 195.47 383.79 189.15L383.85 189.22V189.21C386.25 192.22 391.16 198.89002 396.06 205.78 400.56 214.63 397.58 227.2 394.37 233.84 388.27 227.18 379.36 220.57 367.87 214.19ZM356.06 108.97C354.71 114.81 352.41 116.41 350.18 117.95 349.75999 118.24 349.34 118.53 348.94 118.84 345.93 121.17999 341.46 122.689998 335.63 123.32L303.79 88.86C314.14 87.76 324.63 87.05 334.99003 86.76 344.6 86.76 350.89 88.79 354.2 92.96 357.1 96.62 357.71 101.86 356.06 108.97ZM163.01 79.68C168.2 83.270008 173.73999 86.82 179.47 90.24 169.93001 100.39 160.08 111.14 150.54001 121.53999 146.11002 117.77 142.74 108.759998 142.24 105.149997 142.99 93.23 152.03 79.85 163.01 79.68ZM98.09 242.55C120.34 254.27 153.23 261.27 185.37 261.27 186.95999 261.27 188.54999 261.22999 190.14 261.19999 173.93 268.55 162.08 279.65998 156.72 292.58998 155.6 294.18998 150.6 298.13996 143.07 299.45997 138.21 300.29997 131.01001 300.18998 124.240009 294.83998L118.57001 290.41996C102.56 275.93 95.76 250.78 98.09 242.55ZM242.33 158.89C238.93001 149.19 228.13 135.08 211.79001 134.99 211.34001 133.51001 210.97 131.99 210.69 130.44 210.38 128.68001 210.27 127.04 210.35 125.53L237.24 117.71C250.40001 122.61 264.16 126.88 278.14 130.43 279.12004 130.68 280.09004 130.92 281.05003 131.15 271.1 132.36 260.88 145.03 255.73001 151.40999 254.61002 152.79999 253.73001 153.88999 253.24 154.35999 251.87 155.7 247.73 158.06 242.33 158.89ZM272.14 196C278.86003 196.17 315.03004 208.24 345.68003 222.32 329.91004 226.37001 312.91004 221.97 304.07 218.93001 289.07 213.78002 274.77003 204.97 267.38 196.37001 268.83 196.08 270.42 195.95 272.14 196ZM398.33 198.46 398.19999 198.39C396.71998 196.31999 395.3 194.34 393.77998 192.27 404.61997 195.99 414.75999 198.96 423.92997 201.12001 423.95997 202.41 423.97996 203.73001 423.99998 205.05 421.92 205.51 408.99 207.92 398.33 198.46ZM390.58 175.67 408.69 137.45999 408.84 137.13999 403.38 134.54999 384.89 173.54C381.90003 172.42 378.96003 171.29 376.17 170.18999 367.48 163.11998 352.2 145.84999 345.44 136.31999 350.27 135.01999 354.47 133.01 357.91 130.32999 364.99 124.819988 366.13 120.90999 368.89 111.43999L369.09004 110.76999C371.11003 103.82999 374.36003 99.56999 378.74003 98.109989 385.00004 96.01999 392.23 100.039989 397.19004 103.75999 408.76005 112.969989 420.92005 129.95999 423.46003 186.07999 413.73 183.6 402.67 180.09 390.58 175.67ZM348.54 65.9C345.51 69.97 340.45 72.03 333.51 72.03 333.43003 72.03 333.36003 72.03 333.28 72.03 322.54 71.95 307.09 73.27 290.88 75.63 284.58003 69.03999 267.73 48.57 258.21003 36.899999L257.80003 36.399999C279.58003 19.919999 296.56004 12.8899979 309.68003 14.919998 321.30003 16.729998 342.09004 24.059998 350.84004 52.76 351.88 56.2 351.61 61.77 348.54 65.9ZM283.71 76.74C276.93 77.85 270.36 79.07 264.21 80.39 246 84.29 231.09999 89.11 219.90999 94.74 214.33998 92.21 208.69998 89.47 203.15 86.59 222.90999 66.21 238.84 51.359998 253.03 40.099996 255.09 42.64 274.07 65.96 283.71 76.74ZM98.56 177.39C97.79 178.31 97.06 179.2 96.36 180.05 94.32 182.55 92.57 184.71 90.37 186.66 85.270008 191.19 76.94 195.40001 70.75 193.95 67.5 193.19 65.07 190.95 63.510004 187.31999L98.56 177.39ZM104.82 229.03C110.11 222.16 122.57 213.06 128.13 209.87 135.41 216.48 143.46 221.15999 152.06 223.78 157.47 225.44 163.2 226.27 169.08 226.27 186.23 226.27 205.34 219.13 225.87 205.08 230.94 202.42 235.37999 202.88 239.06 206.46 238.98 214.40001 233.45 241.39002 232.83 244.39002 224.38 244.06002 216 244.38002 207.9 245.36002 171.97 249.73 135.39 243.93 104.82 229.03ZM242.47 222.34C243.04001 218.84 243.54001 215.72 243.88 214.01999 244.87001 216.4 245.40001 218.44998 245.6 219.29 246.11 221.43999 246.33 224.06 246.6 227.09999 247.03 232.09999 247.57 238.31 249.6 245.91999 245.75 245.36998 241.87001 244.95998 238.05 244.68999 239.31 241.86 241.06 231.07 242.47 222.34ZM261.64 198.89C269.47 208.78 285.29 218.86 302.1 224.64 309.23 227.09 320.21003 230.01 332.01 230.01 339.93003 230.01 347.2 228.68 353.63 226.08 370.16 234.16 381.37 241.36 386.14 246.96 370.40003 256.86003 319.11003 259.51 288.87004 257.04 281.52003 253.78002 273.69004 251.09001 265.60005 249.07 264.63005 245.57 263.81004 242.93001 263.01005 240.37001 261.26005 234.76001 259.75004 229.91 257.65007 218.73001 255.83 209.09 257.18 202.43 261.64 198.89ZM321.06 299.79C323.31 304.18003 323.22 308.80003 320.81 313.17 316.1 321.68003 303.26 327.64 286.43 329.15003 281.82 307.99003 275.86 286.08003 270.13 265.41004 291.42 272.22 315.11 288.18 321.06 299.79ZM332.93 291.31C324.97999 280.47 314.55 271.21 301.94 263.77 305.43 263.87 309.07 263.91999 312.81 263.91999 322.56 263.91999 332.4 263.56 341.27 262.87998 357.21 261.64997 378.36 258.78999 389.16999 252.15998 394.09999 264.69999 386.09 278.73997 364.69999 295.07997 357.94999 300.22996 351.13999 300.27998 346.61 299.41996 340.07 298.17 334.79 294.41 332.93 291.31ZM377.74 299.7 378.38 299.24003C388.30003 292.16004 414.59 273.39 402.5 246.07003 406.17 245.35002 415.52 248.94002 423.81 265.07 421.77 314.06 413.91999 340.45 399.82 345.74 392.99003 348.31 376.43 348.13 370.93 340.15 363.26 329 366.9 307.45 377.74 299.7ZM221.1 277.11 220.83 277.88999C215.9 291.97999 209.77 309.49 204.19 327.56999 191.88 325.33998 180.48001 324.21 178.7 324.03999L178.11 323.68998C169.53 318.72999 158.87 312.55998 162.28 294.93998 170.34 275.53999 195.67 262.84999 215.8 259.25999 219.5 258.96 223.40001 258.83 227.41 258.84999 225.94 263.31 223.97 268.97 221.1 277.11ZM189.85 79.28C172.6 69.259998 161.56 60.61 157.6 57.339998 156.23001 56.209997 155.43001 55.499998 155.16 55.269998L154.81 54.969999 154.48 55.319997C153.48999 52.529996 151.79 46.139997 153.84 39.339998 166.81 17.669997 185.15 8.599997 198 7.319996 213.33 5.799996 228.69 12.979996 243.67 28.679997 228.47 40.76 211.35 56.85 189.85 79.28ZM61.13 170.2 61.2 169.56999C65.76 129.73 68.51 105.68999 106.86 89.30999 122.76 85.95999 132.64 91.51999 136.22 105.79999 136.28 106.219989 136.82 110.02999 138.35 114.37999 139.08 116.42999 139.88 118.19999 140.78 119.78999 141.81999 121.62999 143.87 124.45999 146 126.48999 135.95 137.45 124.6 149.81999 113.46 161.56 107.5 147.61 103.38 133.5 100.36 123.17 100.11 122.299999 99.86 121.45 99.62 120.63L98.950008 118.34 84.950008 122.49 85.05 122.829998C85.36 123.85999 85.68 124.95999 86.020008 126.09999L86.39001 127.38999C89.79001 138.98999 94.43001 154.84 101.36001 170.31L61.210008 181.69C60.820009 180.87 60.440008 180.1 60.050008 179.35 60.45 176.22 60.79 173.16 61.13 170.2Z"/>
<path transform="matrix(.8084688,0,0,.80842718,202.89536,209.03496)" d="M445.67 190.79H445.68003C457.51 192.20999 467.71003 191.67 475.2 188.25 480.84004 185.66 484.45 181.44 486.23 175.33L499.57 179.21C496.64 189.29001 490.39 196.58 480.98 200.88 474.33003 203.93001 466.29 205.25 457.29 205.25 451.32 205.25 444.91 204.65 438.22 203.59 438.28 207.09 438.35 210.56999 438.4 214.01999V214.02999C438.41999 215.58998 438.43 217.12999 438.44999 218.67998V240.35999C438.47999 240.34999 438.49998 240.33998 438.53999 240.32999 438.52998 242.10999 438.52 243.88999 438.49998 245.63999 437.87998 304.15 431.55998 349.06 404.81999 359.08 399.21998 361.16999 393.92997 362.06999 389.02 362.06999 376.58 362.06999 358.88999 344.95997 349.8 348.37998 327.22 356.89997 335.50999 388.55 336.72 393.18998 336.69 393.08 336.66 392.98997 336.62 392.89997L323.72 398.05998C321.58 392.73997 322.48 376.72999 323.25 369.01997 323.89 362.65998 328.51 332.10997 288.95 343.18998 293.65003 368.01997 295.68003 390.40998 291.90003 405.53999L278.43003 402.16999C281.69004 389.12998 279.63005 368.36 275.17 345.15 255.05002 347.97 249.34001 348.49 247.31002 348.49 246.66002 348.49 246.38002 348.44 246.12001 348.38L248.84001 334.76C248.21 334.64 247.76001 334.64 247.72002 334.64 249.65001 334.6 259.46003 333.30003 272.34004 331.49003 267.22004 308.18003 260.38005 283.54 254.52002 262.40003 254.39002 261.94004 254.27002 261.50004 254.15003 261.04005 247.31003 259.75004 240.38002 258.96006 233.46002 258.65003 231.60002 258.55003 229.75002 258.51 227.90003 258.50004H227.89003C223.81003 258.47004 219.75003 258.60005 215.75003 258.92005L213.01003 259.16004C211.87003 259.26005 210.72003 259.38005 209.59003 259.52003 203.80004 260.23 197.84003 260.65003 191.81003 260.83003 157.96002 261.83003 121.81003 254.78002 97.870029 242.04001 96.25002 241.17002 94.690029 240.29001 93.18002 239.38 92.10002 238.72 91.04002 238.04001 90.03002 237.36 79.81002 230.49 66.93002 233.46 66.48003 265.25L62.410028 264.58 59.660028 264.12998H59.65003L57.110029 263.70997 52.77 263C53.45 258.88 54.06 255.17 54.63 251.83 55.190004 248.49 55.7 245.53 56.16 242.89V242.88C56.22 242.54001 56.29 242.19 56.34 241.84001 56.66 239.06002 53.96 227.94002 44.81 227.57 35.65 227.20001 13.360001 227.14002 .8500023 225.90001L2.2200022 212.08002C9.910002 212.84001 20.390004 213.20001 38.02 214.01001 55.65 214.83002 55.739999 198.84001 52.78 191.07 52.559999 190.47 52.219999 189.77 51.8 188.98001 51.05 187.57 50.02 185.87001 48.75 183.98001 41.45 173.05002 26.61 155.63 16.419999 149.80002L23.309998 137.74002C34.559999 144.17002 47.239999 159.26003 55.239999 171.77002L59.719999 179.41002C60.219999 180.35002 60.659997 181.25002 61.059999 182.10002L63.039999 187.09003C68.45 200.48003 83.67999 193.07003 90.619998 186.92003 93.85 184.06003 96.17 180.71002 99.59 176.74002V176.73003C100.619998 175.54003 101.74 174.29003 103.009998 172.99002 102.63 172.17002 102.24999 171.36002 101.88999 170.53002 94.85999 154.91002 90.19999 138.98001 86.73999 127.16002 86.27999 125.59002 85.84999 124.10002 85.43999 122.73002L98.76999 118.78002C99.17999 120.18002 99.61999 121.68002 100.07999 123.27002 103.18999 133.91002 107.37999 148.19002 113.40999 162.19002 124.37999 150.63002 135.54 138.48001 146.54999 126.48002 146.65 126.360019 146.74999 126.26002 146.85999 126.14002 147.46999 125.470027 148.07999 124.800029 148.68999 124.14002L148.69998 124.13002C149.33998 123.44002 149.97998 122.73002 150.60999 122.04002 160.54999 111.20003 170.36998 100.50002 180.06998 90.18002 173.50998 86.28002 167.86998 82.60002 163.14998 79.34003 160.91999 77.79002 158.88999 76.34003 157.06998 75.00003 149.89998 69.70003 146.00998 66.18003 145.48998 65.70003L151.41999 59.24003 154.39998 56.000028 154.88999 55.470029C154.94998 55.520029 155.79999 56.290029 157.41999 57.630029 162.04999 61.44003 173.01999 69.92003 189.95999 79.74003 208.75 60.130029 226.95 42.430028 244.23999 28.740029 245.65999 27.61003 247.06999 26.52003 248.48 25.460028 271.61 7.8700277 293.03-2.0599728 311.9 .8800278 333.55 4.2500278 349.47999 18.280028 360.94999 39.980028 368.72999 54.700029 382.72999 56.930028 391.46998 49.850027 400.20997 42.770029 418.93998 25.910025 418.93998 25.910025L427.74998 36.660028C427.74998 36.660028 403.87998 54.700029 396.46998 62.24003 389.07997 69.78003 389.63999 85.010028 403.30998 93.760028 416.96998 102.52003 436.74998 106.41003 437.88996 189.63004 438.60997 189.76004 439.30998 189.88004 440.01997 189.99004 440.99998 190.15004 441.98997 190.30004 442.94996 190.44004H442.95997C443.84 190.56 444.76 190.69 445.67 190.79ZM367.33 214.29C377.75 220.04999 387.61 226.84999 394.46 234.45 395.06999 235.12 395.65 235.81 396.19 236.48999 396.21 236.51 396.23 236.54 396.24 236.56 396.25999 236.58 396.28 236.59 396.28999 236.61 396.3 236.62 396.3 236.62 396.30998 236.63L396.31999 236.64 397.86 238.67 397.93 238.77C398.81 239.97 399.58 241.18001 400.27 242.41 400.91999 243.56 401.5 244.7 402 245.82V245.83C414.65 273.69 387.18 292.49 377.52 299.41 366.50999 307.27 362.96 329.18 370.62 340.34 376.47 348.82 393.5 348.47 399.91999 346.06 416.87998 339.7 422.53999 303.68 424.13999 264.99 424.21 263.16999 424.28 261.34999 424.33 259.52 424.55 252.80998 424.65 246.04999 424.68 239.38999 424.69999 233.46999 424.66999 227.63999 424.61 221.96999 424.56999 218.18999 424.50999 214.48999 424.44999 210.9 424.46 210.89 424.46998 210.89 424.47999 210.89L424.43998 210.74V210.72L424.33998 205.7 424.32997 205.33C424.30998 203.81 424.27998 202.31 424.23997 200.84 414.07997 198.47 403.47996 195.26999 392.80998 191.59H392.79997C389.79997 190.56 386.80998 189.5 383.79997 188.37999 383.69996 188.34999 383.60997 188.31999 383.49998 188.26999 381.89997 187.68 380.29997 187.07999 378.70997 186.46999 354.82997 177.41999 331.45997 166.69998 312.85997 158.15999 305.99998 155.01999 299.88996 152.20999 294.87995 150.01999 293.02995 149.20999 291.32997 148.48 289.80995 147.85999 287.47996 146.89998 285.54994 146.15999 284.06996 145.68999 277.77995 143.69998 267.92994 150.95999 264.07997 157.62999 262.13996 160.96999 262.21998 166.09 264.68995 170.81999 265.48994 172.34999 266.53996 173.84 267.84996 175.20999 270.54997 178.03 274.35997 180.35999 279.38996 181.54999 289.68995 183.98999 321.73997 193.95999 342.79997 202.63999 349.05998 205.22998 355.86997 208.27999 362.58998 211.76999 363.34999 212.16999 364.11997 212.56999 364.87998 212.98L364.92997 213.01999C365.77 213.41 366.54 213.84 367.33 214.29ZM376.01 170.52C379.01 171.71 382.05003 172.87001 385.07 174 385.89 174.32 386.72 174.62 387.54 174.93H387.55003C388.40003 175.25 389.25004 175.56999 390.1 175.87 401.56 180.06999 413 183.79999 423.82 186.56 421.66 137.69 412.7 115.689998 397.39 103.509998 386.24003 95.13 373.91 92.95 368.74003 110.689998 365.88005 120.49999 364.84004 124.509998 357.68003 130.06999 354.19004 132.79 349.94004 134.82999 344.86003 136.12999 343.06004 136.59999 341.17 136.96999 339.18003 137.24999 335.90003 137.72998 332.32005 137.96999 328.42 137.96999 317.76 137.96999 304.74003 136.19998 288.97 132.66999 294.99 134.66999 305 139.25998 318.69 145.54999 330.91 151.15999 346.1 158.12999 362.32 164.91999 366.81 166.79999 371.37 168.66999 375.98 170.49999 375.99 170.51 376 170.51 376.01 170.52ZM329.75 326.99C329.75 332.97999 334.61 337.84999 340.61 337.84999 346.59999 337.84999 351.47999 332.99 351.47999 326.99 351.47999 320.97999 346.61 316.12 340.61 316.12 334.61 316.12 329.75 320.98 329.75 326.99ZM259.68 110.37C266.66999 112.600009 273.97999 114.71001 281.63 116.64 285.55003 117.63 289.31 118.52 292.91 119.31 295.14 119.799999 297.31 120.25 299.42 120.67 310.93003 122.92 320.64 124.049999 328.55003 124.049999 331.05003 124.049999 333.36003 123.92999 335.50004 123.7 341.49003 123.07 346.06004 121.53999 349.16004 119.13 351.63005 117.21 354.76005 116.17 356.40003 109.06 360.19004 92.72 351.85005 86.42 334.99003 86.42 323.97004 86.729999 313.27003 87.49 303.06004 88.59 300.85005 88.84 298.66004 89.09 296.50004 89.35999 273.16004 92.28999 252.76003 97.05999 237.72003 102.619998 241.99004 104.28999 246.43004 105.92 251.01003 107.49 253.84 108.48 256.73 109.44 259.68 110.37ZM288.76 257.38C292.82 259.18 296.78 261.18 300.6 263.39 313.13 270.6 324.16 279.96003 332.65 291.53004 336.06 297.21003 351.47999 305.65003 364.91999 295.38005 377.75999 285.57005 396.50999 268.89006 389.36 251.66004 389.03 250.85004 388.62998 250.03003 388.16999 249.21004 387.77 248.50003 387.27 247.79004 386.66999 247.05004 381.47999 240.70003 368.78999 233.09003 353.63999 225.70003 351.38999 224.60002 349.09 223.51003 346.74 222.42003 316.22999 208.31003 279.28 195.83003 272.15 195.65003 270.16999 195.60002 268.36 195.76003 266.71 196.14003 264.78 196.58003 263.1 197.33003 261.68 198.39003 257.12 201.80004 255.34999 208.46002 257.3 218.78003 260.36 235.03003 262.12 237.79003 265.31 249.35004 273.38 251.36003 281.24 254.03003 288.74 257.36006 288.75 257.37 288.75 257.38 288.76 257.38ZM236.51 159.47C238.47 159.63 240.34999 159.54001 242.09999 159.29001 247.65 158.50002 251.96999 156.09001 253.48 154.63 256.37 151.84001 271.07 129.90001 283.94 131.51001 282.07 131.06002 280.18 130.6 278.22 130.11002 263.35 126.34002 249.68 121.99001 237.25 117.360019 234.44 116.31001 231.69 115.250019 229.01 114.19002H229C226.11 113.040019 223.32 111.87002 220.57 110.70002 217.77 112.46002 215.52 114.25002 213.87001 116.04002 212.95001 117.03002 212.20001 118.10002 211.62001 119.25002 210.67002 121.07002 210.13 123.06002 210.01001 125.29002 209.90001 126.91003 210.02 128.66002 210.35 130.53003 210.65001 132.22003 211.04001 133.82003 211.53 135.36003 212.12 137.27004 212.86 139.08003 213.73 140.83003 216.28 145.93004 220.06 150.54004 225.2 155.58003 228.99 158.06 232.87 159.19 236.51 159.47ZM142.68 203.38C146.81999 206.34001 151.31 208.67 156.20999 210.17 172.73 215.20999 192.57999 210.09999 215.41999 194.98999 216.55998 193.91999 217.60999 192.79 218.53998 191.59999 219.93997 189.85999 221.07997 187.99999 221.90998 186.06 224.68997 179.59999 223.98998 172.36 217.34998 166.01999 210.91999 159.88999 203.75998 151.85999 199.60997 142.4 198.88997 140.78 198.25997 139.09999 197.75997 137.39 197.30997 135.95 196.94997 134.46 196.67996 132.96 196.46996 131.77 196.31996 130.6 196.21996 129.44 196.04996 127.560009 196.03997 125.71 196.17996 123.93 196.67996 117.35 199.19997 111.47 203.64997 106.64 204.43996 105.79 205.27997 104.95 206.17996 104.15 201.33997 101.82 196.78997 99.5 192.51996 97.200008 182.79996 107.47 173.09996 118.01 163.59996 128.37001L158.81996 133.58002C152.08997 140.92002 145.28997 148.34001 138.49997 155.67002 136.01998 158.35 133.52997 161.01001 131.04998 163.66002 127.29997 167.68003 123.54997 171.64002 119.81998 175.54003 124.779979 184.64003 130.70998 193.02002 137.84998 199.44002 139.4 200.86 141.01 202.17 142.68 203.38ZM104.27 229.16C134.51 243.99 171.60999 250.13 207.92 245.72 216.12 244.73 224.58 244.41 233.1 244.76 234.61 244.81999 236.11 244.9 237.62001 245.01 241.78002 245.29 245.94 245.73999 250.08002 246.34999 246.65003 233.79 247.30002 224.98 245.94002 219.21999 245.57003 217.63999 244.86002 215.30998 243.77002 212.89998 242.71002 210.56998 241.27002 208.16999 239.40003 206.32997 236.19002 203.15998 231.73003 201.61997 225.69002 204.78998 205.13002 218.85999 186.19002 225.93997 169.07003 225.93997 163.21002 225.93997 157.57003 225.11997 152.15003 223.45998 142.96002 220.65998 135.02002 215.71997 128.16002 209.44998 126.790019 208.19998 125.48002 206.90999 124.21002 205.56998 118.67002 199.74997 113.89002 193.05998 109.73003 185.93997 80.36002 208.17998 93.18002 220.53998 99.81003 226.19997 100.60003 226.86997 101.31003 227.44997 101.84003 227.93997 102.65 228.36 103.46 228.75 104.27 229.16ZM380.33 75.26C380.33 69.11 375.34999 64.11 369.19999 64.11 363.05 64.11 358.05 69.1 358.05 75.26 358.05 81.41 363.03999 86.41 369.19999 86.41 375.36 86.41 380.33 81.42 380.33 75.26ZM333.28 72.38C351.39 72.5 352.97 58.559999 351.16999 52.659997 343.74 28.289996 326.72999 17.229996 309.72999 14.579994 295.33998 12.349995 277.21998 21.209996 257.3 36.339998 257.28 36.299997 257.27 36.289999 257.25999 36.279996L255.17998 37.979997 254.84998 38.239995C238.26998 51.159997 220.47998 68.21999 202.58998 86.7 207.93999 89.49 213.71999 92.329998 219.92998 95.14 233.28998 88.4 250.26998 83.75 264.3 80.75 270.78999 79.36 277.59 78.1 284.40998 77 286.53999 76.66 288.64997 76.33 290.76997 76.02 306.7 73.67 322.21 72.3 333.28 72.38ZM286.15 329.53C315.61 326.99 327.75 312.07 321.37 299.63 315 287.2 290.38999 271.37 269.62 264.89 275.38 285.67 281.5 308.15 286.15 329.53ZM257.3 183.85C257.3 177.17002 251.87999 171.75 245.18999 171.75 238.51 171.75 233.08998 177.17 233.08998 183.85 233.08998 190.53002 238.50998 195.95001 245.18999 195.95001 251.88 195.95 257.3 190.53 257.3 183.85ZM80.05 215.86C80.05 210.25 75.51 205.71 69.9 205.71 64.29 205.71 59.75 210.25 59.75 215.86 59.75 221.46 64.29 226.01 69.9 226.01 75.51 226.01 80.05 221.46 80.05 215.86Z" fill="#2779c4"/>
<path transform="matrix(.8084688,0,0,.80842718,202.89536,209.03496)" d="M476.97 237.93C477.29 237.98999 477.61003 238.06 477.91 238.10999 463.01 236.33998 444.73 237.60999 438.53 240.31999 438.5 240.32999 438.48 240.34 438.44 240.34999V218.66999C444.24 228.19 466.82 235.84 476.97 237.93ZM403.04 208.34C405.89 219.41 401.37 233.23999 398.12 239.01L397.94 238.76999C398.82 239.96999 399.59 241.18 400.28 242.40999 410.58 239.88999 420.29 251.69998 424.34 259.50999 424.56 252.79998 424.66 246.03998 424.69 239.37998H424.68C423.62 239.70998 422.47999 239.88997 421.28 239.88997 415.6 239.88997 410.98 235.76998 410.98 230.67996 410.98 225.58997 415.6 221.46996 421.28 221.46996 422.44 221.46996 423.57 221.63996 424.6 221.95996H424.61003C424.57 218.17996 424.51 214.47997 424.45 210.88996 423.66 211.1 413.85 213.41 403.04 208.34ZM358.05 75.26C358.05 81.41 363.03999 86.41 369.19999 86.41 375.36 86.41 380.33 81.420009 380.33 75.26 380.33 69.11 375.34999 64.11 369.19999 64.11 363.05 64.11 358.05 69.11 358.05 75.26ZM351.47 326.99C351.47 320.97999 346.6 316.12 340.6 316.12 334.61003 316.12 329.74003 320.97999 329.74003 326.99 329.74003 332.97999 334.6 337.84999 340.6 337.84999 346.6 337.84 351.47 332.98 351.47 326.99ZM233.1 183.85C233.1 190.53 238.52 195.95001 245.20001 195.95001 251.89002 195.95001 257.31 190.53002 257.31 183.85 257.31 177.17 251.89 171.75 245.2 171.75 238.52 171.76 233.1 177.17 233.1 183.85ZM155.92 300.61C152.75 302.56999 148.62 304.25999 144.05 305.06999 139.43001 305.86997 133.08 305.96998 126.560009 302.92997 128.71 314.02998 126.91 323.16996 121.21001 330.22996 132.79001 330.43995 140.44 336.50996 148.79001 347.54997 151.58 337.34996 156.23001 331.28996 171.21 326.19996 163.78 321.55 155.55 314.54 155.92 300.61ZM143.26 331.92C138.29999 331.92 134.28 327.90003 134.28 322.94 134.28 317.99 138.3 313.97 143.26 313.97 148.20999 313.97 152.23 317.99 152.23 322.94 152.23 327.91 148.21 331.92 143.26 331.92ZM151.37 59.23C148.28 55.54 147.29 50.059999 147.33 45.309999 135.81 54.409997 123.65 53.87 116.46 52.339998 121.18 64.71999 120.47 75.259998 114.5 82.67999 127.43 82.42999 134.45999 88.76999 138.31 95.62999 141.55 85.719989 148.75 77.719989 157.01999 74.99999 149.84999 69.69999 145.95999 66.17999 145.43999 65.69999L151.37 59.23ZM136.39 80.7C131.18 80.7 126.94 76.46999 126.94 71.24 126.94 66.03 131.17 61.789999 136.39 61.789999 141.62 61.789999 145.85 66.02 145.85 71.24 145.85 76.47 141.62 80.7 136.39 80.7ZM59.74 215.86C59.74 221.46 64.28 226.01 69.89 226.01 75.5 226.01 80.04 221.45999 80.04 215.86 80.04 210.25 75.5 205.71 69.89 205.71 64.28 205.71 59.74 210.25 59.74 215.86Z" fill="#8bd6f3"/>
<path transform="matrix(.8084688,0,0,.80842718,202.89536,209.03496)" d="M486.97 237.12V242.08C453.16 239.01 444.2 242.08 438.55 245.64H438.49C438.50999 243.89 438.52 242.11 438.53 240.33 444.73 237.62 463.01 236.34 477.91 238.12 477.61003 238.06999 477.29 238 476.97 237.94L477.74 234.85C481.22 235.7 484.35 236.39 486.97 237.12ZM477.81 158.99C470.41999 158.99 447.66 175 439.97 189.99 440.95 190.15001 441.94 190.3 442.9 190.44H442.91C443.84 190.57 444.76 190.7 445.67 190.79001H445.68003C452.31004 177.08 473.27003 164.33002 477.74003 164.33002H477.81004L478.01005 159.00002C477.95 159 477.88 158.99 477.81 158.99ZM438.39 214.03C438.41 215.59 438.42 217.13 438.44 218.68 444.23 228.18999 466.81 235.84 476.96 237.93999L477.72999 234.84999C466.18 232 450.86 227.36 438.39 214.03ZM424.62 221.97C423.58 221.65 422.46 221.48 421.3 221.48 415.62 221.48 411 225.59999 411 230.69 411 235.78 415.62 239.90001 421.3 239.90001 422.5 239.90001 423.63999 239.72002 424.69999 239.39002H424.71C424.72999 233.47002 424.69999 227.64002 424.63999 221.97002H424.62V221.97ZM424.35 259.52C420.30003 251.70999 410.59 239.9 400.29 242.41999 400.94 243.56998 401.52003 244.70998 402.02003 245.82999 405.90003 244.61998 415.83003 248.71999 424.16004 264.99 424.23 263.17 424.3 261.35 424.35 259.52ZM424.47 210.9C424.46 210.84999 424.46 210.79 424.46 210.73999V210.71999L424.36 205.69998 424.34999 205.32999C423.80998 205.46999 409.65998 208.97998 398.09999 198.72998L398.05 198.77999C395.99 195.87999 394.27 193.51999 392.84999 191.58998H392.83998C389.83998 190.55998 386.84999 189.49999 383.83998 188.37998 383.80998 188.41997 383.77998 188.47998 383.74998 188.52997 386.14997 191.48998 391.54997 198.83997 396.36997 205.62998 401.17997 215.08998 397.52998 228.38997 394.46998 234.45998 395.07997 235.12998 395.65998 235.81998 396.19999 236.49997 396.21998 236.51998 396.24 236.54998 396.24998 236.56998 396.26997 236.58998 396.28999 236.59998 396.29997 236.61998 396.30998 236.62998 396.30998 236.62998 396.31996 236.63999L396.32997 236.64998 397.86997 238.67998 397.93998 238.77999 398.11997 239.01999C401.36997 233.24999 405.88996 219.41999 403.03999 208.34999 413.85 213.41 423.66 211.1 424.47 210.9ZM300.6 263.39C304.52003 263.52003 308.64 263.58003 312.81 263.58003 322.3 263.58003 332.16999 263.24003 341.24 262.54 357.97 261.25 378.84 258.32 389.34999 251.65001 389.02 250.84001 388.61997 250.02 388.15998 249.20001 387.75999 248.49 387.25999 247.78002 386.65998 247.04001 370.95997 257.34 318.39997 259.81 288.74998 257.37 292.82 259.18 296.78 261.18 300.6 263.39ZM387.55 174.93 390.09999 175.87 408.36997 137.31999 403.53999 135.03 385.07 174C385.89 174.32 386.72 174.62 387.54 174.93H387.55ZM339.19 137.25C343.31 143.63 353.23 155.52 362.32 164.92 366.81 166.8 371.37 168.67 375.98 170.5 366.90003 163.12 351.32 145.35 344.87 136.13 343.08 136.6 341.18 136.97 339.19 137.25ZM383.53 188.27C381.93 187.68001 380.33 187.08 378.74 186.47 374.86 193.1 366.63999 206.32 362.63 211.76001 363.39 212.16 364.16 212.56002 364.92 212.97002L364.97 213.01001C365.77 213.41 366.54 213.83002 367.33 214.28002 371.28 209.62001 380.33 194.34001 383.74 188.52002 383.67 188.43 383.61 188.34 383.53 188.27ZM346.74 222.42C330.91 226.84999 313.78999 222.64 303.94999 219.26 288.38999 213.92 274.00999 204.92 266.71 196.15 264.78 196.59 263.1 197.34 261.68 198.4 269.35 208.26999 285.18 218.45999 302.21 224.31 309.41999 226.79 320.31 229.66 332 229.66 339.14 229.66 346.56 228.59 353.64 225.7 351.39 224.6 349.09 223.51 346.74 222.42ZM296.5 89.35 328.56 124.05C331.06 124.05 333.37 123.93 335.51 123.700008L303.07 88.590007C300.85 88.82 298.65 89.08 296.5 89.35ZM251.01 107.48C253.84 108.47 256.74 109.44 259.69 110.37 269.02 108.15 278.06 108.76 284.96 112.25 288.46 114.02 291.16 116.42 292.91999 119.31 295.15 119.799999 297.31999 120.25 299.43 120.67 297.49 115.09 293.25999 110.45 287.38 107.479999 277.48 102.47 264 102.5 251.01 107.48ZM276.95 159.81C272.62004 163.53 268.21003 167.33 264.73 170.81999 265.53 172.34999 266.58003 173.84 267.89 175.20999 271.28004 171.73999 275.91 167.74999 280.44 163.85999 287.45 157.81999 292.43 153.44998 294.92 150.01999 293.07 149.20999 291.37004 148.48 289.85 147.85999 287.18 151 281.62 155.78 276.95 159.81ZM255.16 37.97 254.83 38.23 253.1 39.64C254.12001 40.89 274.57 66.06 284.39 76.99 286.52003 76.65 288.63 76.32 290.75 76.009998 283.03 67.98999 258.56 37.889997 257.29 36.339998 256.59 36.87 255.88 37.42 255.16 37.97ZM213.72 140.81C225.03 141.97 233.42 151.97 236.5 159.47 238.46 159.63 240.34 159.54001 242.09 159.29001 238.81999 149.64002 227.95999 135.28002 211.51999 135.34001 212.11 137.25 212.85 139.06 213.72 140.81ZM239.4 206.32C239.39 214.62001 233.09999 244.76001 233.09999 244.76001 234.60999 244.82 236.10999 244.90001 237.62 245.01001L237.64 244.76001C239.54 241.06002 242.89 216.11002 243.77 212.90001 242.72 210.57 241.27 208.16 239.4 206.32ZM229.01 114.18 211.62 119.23C210.67 121.05 210.12999 123.04 210.01 125.270008L237.26 117.350009C234.45 116.3 231.7 115.240009 229.01999 114.18001H229.01V114.18ZM227.88 258.5C226.32 263.28 224.1 269.63 221.43001 277.22 216.49 291.33 210.14002 309.45 204.43001 327.97 206.18001 328.29 207.95001 328.63 209.70001 329H209.71C215.34001 310.78 221.6 292.91 226.48001 279 229.44002 270.57 231.87001 263.64 233.46 258.65 231.6 258.55 229.75 258.50999 227.90001 258.5H227.88ZM183.02 190.2C167.14 192.37999 146.87 195.70999 137.84 199.45 139.39 200.86 141 202.16 142.67 203.37 159.36 197.90999 203.35 192.73 218.53 191.58 219.93 189.84 221.06999 187.98 221.9 186.04001 216 186.27 199.43 187.95 183.02 190.2ZM59.65 264.13 57.11 263.71C51.47 287.84 57.37 322.68 75.2 336.28 79.39 339.46 85.31 342.3 93.13 342.3 99.189998 342.3 106.38 340.59999 114.799999 336.06 128.33 333.91 135.79 338.22 147.48999 354.87 148.9 365.22 147.82999 382.66 146.01999 386.6L150.87 388.84C153.29999 383.59 154.29 364.93 152.76999 353.97 152.76999 353.96 152.76999 353.95 152.76999 353.95 155.34999 341.40003 157.59 335.49003 177.98999 329.69 186.20999 330.44 194.91999 331.61003 202.88999 333.07 204.69998 333.39 206.44998 333.74003 208.15999 334.1 219.38999 336.43 228.4 339.30003 231.18999 342.2L235.04 338.49003C231.09 334.40003 220.64 331.27003 209.73 329.00004H209.72C207.97 328.64006 206.2 328.29005 204.45 327.97004 192.58 325.80003 181.34 324.64006 178.61 324.38005H178.6L177.95001 324.00004C169.25002 318.97004 158.44002 312.71003 161.97002 294.83003V294.82C161.97002 294.82 161.97002 294.82 161.97002 294.82 170.52002 274.25 197.46002 262.19 215.76001 258.93L213.02 259.16999C211.88 259.27 210.73001 259.38999 209.6 259.52998 203.81002 260.23997 197.85 260.65998 191.82 260.83998 177.35 267.07997 163.35 277.53999 157.03 292.78999L157.02 292.8C155.68001 294.69999 150.49 298.53 143.14 299.81 138.20999 300.66 130.9 300.55 124.03 295.12L118.409999 290.74C118.399997 290.75 118.39 290.74 118.38 290.72 101.81 275.75 95.25 249.78 97.88 242.06 96.259998 241.19 94.7 240.31 93.189998 239.4 88.53 249.98 97.979999 283.56 120.09 298.88999 121.96 305.09 126.06 320.96 112.49 331.27 98.909999 338.65 87.45 338.91999 78.45 332.05 62.46 319.87 57.21 286.63999 62.42 264.59999L59.67 264.14997H59.65V264.13ZM121.2 330.24C126.909999 323.18 128.7 314.03999 126.549999 302.94 133.06999 305.97 139.43 305.88 144.04 305.08003 148.61 304.28004 152.73999 302.58003 155.90999 300.62004 155.54999 314.54005 163.76999 321.55003 171.18999 326.21003 156.20999 331.30003 151.55998 337.36003 148.76999 347.56004 140.43 336.52 132.78 330.45 121.2 330.24ZM202.88 333.07C195.81 356.64 190.09001 380.30003 189.93001 396.6L195.27 396.65C195.42 380.78 201.12001 357.41999 208.15001 334.1 206.44 333.74 204.68 333.39 202.88 333.07ZM138.5 155.67C136.02 158.34999 133.53 161.01 131.05 163.66 138.22 161.26001 174.37 150.12001 199.6 142.40001 198.88 140.78002 198.25 139.1 197.75 137.39002 165.46 147.26 148 152.66 138.5 155.67ZM181.01 132.2C183.01 131.93 190.64 130.84999 196.22 129.44 196.05 127.560009 196.04001 125.71 196.18001 123.93 189.89002 125.63 174.16 128.23 163.61002 128.38L158.83002 133.59001C159.95001 133.66002 161.16002 133.70001 162.41002 133.70001 169.08 133.69 177.12 132.72 181.01 132.2ZM134.29 322.95C134.29 327.91 138.31 331.93003 143.26999 331.93003 148.21999 331.93003 152.23999 327.91004 152.23999 322.95 152.23999 318 148.21999 313.98 143.26999 313.98 138.31 313.98 134.29 318 134.29 322.95ZM148.64 124.13 148.65 124.119998C149.29 123.42999 149.93 122.71999 150.56 122.03 145.81999 118.24 142.37 108.69 141.88 105.13 142.66 92.86 151.85 79.42 163.1 79.33 160.87001 77.78 158.84001 76.33 157.02 74.990009 148.75 77.71001 141.55 85.72 138.31 95.62 134.45999 88.76 127.43 82.420009 114.5 82.670009 120.46 75.25001 121.18 64.72 116.46 52.330007 123.65 53.860006 135.81 54.400007 147.33 45.300008 147.29001 50.060007 148.28 55.54001 151.37 59.22001L154.34999 55.980009C154.40999 56.030008 150.87999 47.97001 153.54999 39.160009 166.58998 17.380007 185.02999 8.260008 197.96999 6.970009 213.51999 5.4200088 229.04999 12.740009 244.19998 28.700009 245.61998 27.57001 247.02999 26.48001 248.43999 25.420008 231.98999 7.9200079 214.84999-.079992298 197.43999 1.640007 175.79 3.790007 158.26999 20.930008 149.00998 36.340009 134.93997 52.210008 118.50998 47.86001 113.14998 45.820009 110.36998 43.390008 91.44998 26.840008 84.599979 20.930008L81.12 25C87.880008 30.85 106.520008 47.14 109.55 49.79 114.05 59.2 119.05 75.67 104.78001 84.01 63.230009 101.71001 60.180009 128.45 55.540006 168.94 55.430006 169.88 55.330007 170.82 55.220006 171.78 56.950006 174.48 58.470006 177.06999 59.700006 179.42 60.120004 176.03 60.490007 172.73 60.850008 169.55 65.420009 129.59 68.18001 105.450008 106.79001 88.97 122.90001 85.57 132.93001 91.22 136.57 105.76 136.69 106.64 137.25 110.22 138.69 114.270008 139.32 116.03001 140.1 117.87 141.09 119.62 142.23999 121.670009 144.43 124.590007 146.5 126.48 146.6 126.36 146.7 126.26 146.81 126.14001 147.42 125.46 148.03 124.79 148.64 124.13ZM126.95 71.25C126.95 76.48 131.18 80.71 136.4 80.71 141.62999 80.71 145.86 76.479999 145.86 71.25 145.86 66.04 141.63 61.8 136.4 61.8 131.18 61.8 126.95 66.03 126.95 71.25ZM99.82 226.2C100.61 226.87 101.32 227.45 101.85 227.94 102.65 228.36 103.46 228.75 104.28 229.16 109.409999 222.27 122.17 212.84 128.17 209.44 126.799999 208.19 125.49 206.90001 124.22 205.56 116.86 209.98 104.93 219.19 99.82 226.2ZM62.6 185.94C62.739999 186.35 62.879999 186.73 63.019998 187.1L99.56999 176.75V176.74C100.59999 175.55 101.71999 174.3 102.98999 173 102.60999 172.18 102.22999 171.37 101.86999 170.54L61.049989 182.10999C61.7 183.52 62.22 184.8 62.6 185.94ZM5.02 161.91 .48000003 164.72C10.559999 181.02 25.529999 189.62 43.34 189.62 46.09 189.62 48.91 189.42 51.78 188.98999L48.73 183.98999C30.44 185.84 15.04 178.11 5.02 161.91Z" fill="#64a9d8"/>
<path transform="matrix(.8084688,0,0,.80842718,202.89536,209.03496)" d="M69.9 205.36C64.11 205.36 59.4 210.07 59.4 215.86 59.4 221.65 64.11 226.36 69.9 226.36 75.69 226.36 80.4 221.65 80.4 215.86 80.4 210.07 75.69 205.36 69.9 205.36ZM69.9 225.66C64.5 225.66 60.100004 221.26001 60.100004 215.86 60.100004 210.45999 64.5 206.06 69.9 206.06 75.3 206.06 79.700008 210.45999 79.700008 215.86 79.700008 221.26001 75.3 225.66 69.9 225.66Z"/>
<path transform="matrix(.8084688,0,0,.80842718,202.89536,209.03496)" d="M245.19 171.41C238.33 171.41 232.74 176.99 232.74 183.86 232.74 190.73 238.32 196.31 245.19 196.31 252.06 196.31 257.65 190.73 257.65 183.86 257.65 176.99 252.06 171.41 245.19 171.41ZM245.19 195.6C238.71 195.6 233.44 190.33 233.44 183.85 233.44 177.37001 238.71 172.1 245.19 172.1 251.67 172.1 256.95 177.37001 256.95 183.85 256.95 190.33 251.68 195.6 245.19 195.6Z"/>
<path transform="matrix(.8084688,0,0,.80842718,202.89536,209.03496)" d="M369.19 86.76C375.52 86.76 380.67 81.600009 380.67 75.270008 380.67 68.94 375.52003 63.780008 369.19 63.780008 362.85 63.780008 357.7 68.94 357.7 75.270008 357.7 81.600009 362.85 86.76 369.19 86.76ZM369.19 64.47C375.14 64.47 379.98 69.31 379.98 75.270008 379.98 81.22 375.14 86.07001 369.19 86.07001 363.24 86.07001 358.39 81.23001 358.39 75.270008 358.4 69.31 363.24 64.47 369.19 64.47Z"/>
<path transform="matrix(.8084688,0,0,.80842718,202.89536,209.03496)" d="M485.99 174.89 485.88999 175.23C484.15 181.23 480.59999 185.37999 475.05 187.93 468.19 191.06 458.49 191.92 446.21 190.5 452.99 177.13 473.5 164.68 477.8 164.68H478.13999L478.36 159.01 478.3 158.64H477.94C477.9 158.64 477.85 158.63 477.81 158.63 474.05 158.63 466.58 162.54001 458.78 168.58 450.19 175.25 443.28 182.89 439.78 189.59 439.25 189.5 438.72 189.41 438.19 189.31999 437.1 113.30999 420.46 103.509998 407.08003 95.63999 405.82 94.899997 404.62004 94.189998 403.46003 93.44999 396.95 89.27999 392.94004 83.29999 392.18003 76.59999 391.56004 71.15999 393.2 66.009998 396.68003 62.45999 403.98 55.019994 427.68003 37.08999 427.92 36.909994L428.21003 36.68999 418.94004 25.37999 418.67005 25.61999C418.48005 25.78999 399.85005 42.549989 391.21006 49.53999 387.23005 52.75999 382.06007 54.00999 377.02006 52.97999 370.64006 51.669988 365.03007 46.97999 361.22007 39.779989 349.15007 16.919987 332.56007 3.7099877 311.92008 .49998857 294.51008-2.2200115 273.76008 5.7899887 248.48007 24.959988 232.03 7.55 214.85-.41 197.41 1.31 175.65001 3.47 157.99 20.74 148.76001 36.120004 134.74 51.930006 118.18001 47.350004 113.34001 45.530004L111.05001 43.530004C104.94001 38.190004 90.63001 25.680003 84.84001 20.690003L84.58001 20.460003 80.64001 25.040003 80.90001 25.270003C86.73001 30.310002 101.64001 43.340005 107.25001 48.24L109.28001 50.010004C113.61001 59.090005 118.71001 75.48 104.66 83.69 62.940004 101.46001 59.860006 128.28 55.210004 168.9L55.000005 170.78C47.570005 159.35 35.090005 144.08 23.480004 137.45L23.180005 137.28 15.940004 149.95 16.240004 150.12C26.530003 156.01 41.160005 173.42 48.120004 183.69 30.260003 185.29001 15.090004 177.52 5.330002 161.74L5.150002 161.44 0 164.61 .18 164.91C10.320001 181.31 25.24 189.97 43.34 189.97 46.06 189.97 48.83 189.76 51.58 189.37 51.940004 190.06 52.24 190.68 52.440004 191.20999 54.33 196.15999 54.750005 203.70999 51.210004 208.59 48.56 212.25 44.120004 213.95999 38.020006 213.68 34.480005 213.51999 31.220005 213.37 28.220005 213.23999 16.270005 212.70999 8.380005 212.34999 2.2400056 211.74999L1.8900055 211.71999 .4500054 226.22998 .80000546 226.26998C9.560005 227.13997 22.880005 227.41997 33.580007 227.64998 38.110006 227.74999 42.030008 227.82997 44.780008 227.93997 47.690008 228.05997 50.170007 229.29998 52.170007 231.62998 55.300008 235.27997 56.150007 240.32997 55.980009 241.79998 55.930009 242.13997 55.86001 242.48998 55.800008 242.83997 55.340009 245.47997 54.830007 248.43997 54.270009 251.78997 53.85001 254.27997 53.40001 256.96998 52.92001 259.89997L52.36001 263.30998 56.680009 264.01997C51.160009 288.20997 57.160009 322.99998 74.98001 336.57997 85.62001 344.66996 99.51001 344.69996 114.91001 336.40995 128.28002 334.30995 135.52002 338.48994 147.15001 355.00996 148.55 365.39997 147.48001 382.58995 145.69 386.45997L145.54001 386.77998 151.03002 389.31999 151.18001 388.99998C153.62001 383.72999 154.65001 365.09999 153.12001 353.98997 155.67002 341.58998 157.68001 335.84999 178.02 330.06996 186.19 330.81996 194.62001 331.95997 202.44 333.36994 193.93001 361.77995 189.73 382.47993 189.59 396.61994V396.96995L195.62999 397.02995V396.67994C195.76 382.98994 199.93999 362.64994 208.4 334.52995 220.43 337.03996 228.43 339.85993 230.93 342.45994L231.17 342.70994 235.52 338.51994 235.28 338.26994C231.87 334.73994 223.41 331.53993 210.16 328.75993 215.73001 310.7799 221.82 293.3799 226.72 279.38993L226.81 279.13993C229.51 271.44993 232.06 264.1899 233.70999 259.03993 240.51 259.35993 247.29 260.13993 253.87 261.3699L254.23999 262.6999C260.15 283.9899 266.84 308.1099 271.93 331.21989 257.83 333.20988 249.45999 334.27989 247.72 334.3199L247.73 335.0199C247.79 335.0199 248.05 335.0199 248.44 335.0799L245.72 348.68989 246.06 348.7599C246.36 348.8199 246.66 348.86988 247.31999 348.86988 249.04 348.86988 253.76999 348.52989 274.9 345.5699 279.96 372.0099 281 390.5099 278.1 402.1099L278.02003 402.4499 292.17 405.9899 292.25 405.6499C295.64 392.0899 294.7 371.7399 289.36 343.4699 302.28999 339.8999 311.68 340.4899 317.28 345.22993 324.78 351.57994 323.48 363.7199 322.98 368.28993L322.90003 369.00993C322.13005 376.75993 321.23 392.8399 323.39 398.2199L323.52003 398.53993 336.74003 393.2499 336.72004 393.2099 337.04005 393.1099C337.04005 393.1099 337.04005 393.09989 337.04005 393.09989 334.59004 383.68989 334.41004 376.55989 334.68006 372.2299 335.45005 360.15989 340.57008 352.24989 349.91007 348.7299 354.55009 346.9899 361.62007 350.8199 369.11009 354.8899 375.95008 358.59989 383.0301 362.43989 389.01008 362.43989 394.23008 362.43989 399.59007 361.42988 404.94007 359.42988 417.62007 354.67988 426.40007 341.98988 431.79008 320.64988 436.24009 303.03987 438.48008 279.28987 438.84007 245.89987 444.13008 242.58988 452.75007 239.34987 486.94007 242.44988L487.32008 242.47988V236.87987L487.06007 236.80986C485.30006 236.31986 483.29008 235.83986 481.15007 235.32987 480.08006 235.07987 478.97007 234.80986 477.82008 234.52986 465.14009 231.40987 450.59007 226.51987 438.74006 213.90987 438.69007 210.63986 438.63008 207.34987 438.57005 204.01987 445.38005 205.07987 451.67005 205.61988 457.29005 205.61988 466.73005 205.61988 474.75004 204.13988 481.13005 201.21988 490.63005 196.87989 496.95005 189.51988 499.91004 179.32988L500.01005 178.98989 485.99 174.89ZM477.65 159.35 477.47 164C472.5 164.44 452.25 176.71 445.47 190.42 444.68 190.33 443.89 190.22 443.09 190.11L442.94999 190.09C442.15 189.97 441.33 189.84999 440.50999 189.72 448.07 175.48 469.88 159.66 477.65 159.35ZM55.89 168.95C60.51 128.6 63.57 101.939998 104.96 84.31 119.56 75.78 114.3 58.93 109.869998 49.64L107.7 47.71C101.649997 42.42 87.6 30.14 81.61 24.96L84.64 21.439999C90.59 26.579998 104.57 38.79 110.58 44.05L112.92 46.1 113.03 46.16C117.9 48.01 134.9 52.8 149.31 36.54 158.5 21.25 175.97 4.1399996 197.47 2.0100022 214.67 .3100021 231.64 8.180002 247.92 25.390002 246.69 26.320002 245.45 27.27 244.23 28.240002 229.08 12.35 213.5 5.08 197.94 6.64 184.93001 7.93 166.36 17.11 153.22 39.07 150.99 46.43 152.97 53.25 153.96 55.91L151.40001 58.69C148.12001 54.51 147.66 48.54 147.69 45.3L147.7 44.57 147.12999 45.02C136.02999 53.79 124.36999 53.65 116.54999 51.98L115.91999 51.85 116.149997 52.449998C120.829998 64.71 120.16999 75.079998 114.24999 82.439998L113.77999 83.02 114.52999 83.009998C125.259998 82.799999 133.15999 87.09999 138.03 95.78L138.42 96.47 138.67 95.71C141.88 85.88 148.89 78.1 156.98999 75.36 158.60999 76.55 160.31999 77.770008 162.07999 79.01 157.08998 79.41 152.23999 82.36 148.30998 87.43 144.40999 92.46 141.94998 98.9 141.55998 105.16 142.07999 108.93 145.52999 118.15 150.07999 122.05 149.52999 122.66 148.96999 123.270008 148.4 123.880008 147.79 124.54001 147.18 125.21001 146.56999 125.880008L146.49999 125.96001C144.41999 123.98 142.42998 121.22001 141.41999 119.43001 140.53998 117.880008 139.75998 116.14001 139.03998 114.130008 137.52999 109.850009 136.99999 106.11 136.92998 105.66 133.22998 90.91 123.06998 85.170009 106.669979 88.64 67.87 105.2 65.1 129.4 60.51 169.5L60.44 170.11C60.14 172.76 59.829999 175.48 59.489999 178.27 58.379999 176.22 57.07 174.01001 55.589998 171.69L55.89 168.95ZM154.49 55.33C153.5 52.54 151.8 46.15 153.85 39.350004 166.82 17.680003 185.16 8.6100029 198.01001 7.330002 213.34001 5.810002 228.70001 12.990002 243.68001 28.690003 228.47 40.760004 211.35 56.850004 189.85 79.28 172.6 69.259998 161.56 60.61 157.6 57.339998 156.23001 56.209997 155.43001 55.499998 155.16 55.269998L154.81 54.969999 154.49 55.33ZM145.21 65.95C145.62001 66.329998 149.34001 69.71 156.31002 74.88 148.40001 77.75 141.56002 85.259998 138.24002 94.77 133.33002 86.5 125.60002 82.31 115.25002 82.31 115.25002 82.31 115.24002 82.31 115.24002 82.31 120.81002 74.909999 121.43002 64.729999 117.02002 52.799997 124.85002 54.339998 136.15003 54.279996 146.99002 46.009996 147.04003 49.469995 147.68003 55.139997 150.92002 59.199995L144.95001 65.7 145.21 65.95ZM163.01 79.68C168.2 83.270008 173.73999 86.82 179.47 90.24 169.93001 100.39 160.08 111.14 150.54001 121.53999 146.11002 117.77 142.74 108.759998 142.24 105.149997 142.99 93.23 152.03 79.85 163.01 79.68ZM85.07 122.83C85.38 123.86 85.7 124.96 86.04 126.1L86.41 127.39C89.810009 138.99 94.450008 154.84 101.380008 170.31L61.230005 181.69C60.840005 180.87 60.460004 180.1 60.070005 179.35 60.460004 176.22 60.800004 173.15001 61.140005 170.19L61.210004 169.56C65.770008 129.72 68.520008 105.67999 106.87 89.299999 122.770008 85.95 132.65001 91.509998 136.23001 105.78999 136.29001 106.20999 136.83002 110.02 138.36002 114.369998 139.09001 116.42 139.89002 118.189998 140.79001 119.78 141.83 121.619998 143.88 124.45 146.01001 126.479999 135.96 137.44 124.61001 149.81 113.47001 161.54999 107.51001 147.59999 103.39001 133.48999 100.37001 123.15999 100.12001 122.289989 99.87001 121.43999 99.63001 120.61999L98.960018 118.32999 84.960018 122.47999 85.07 122.83ZM99.35 176.44 63.23 186.67C63.13 186.39 63.03 186.11 62.93 185.81999 62.59 184.78 62.11 183.60999 61.52 182.32999L101.66 170.94998C101.950008 171.60999 102.25 172.25998 102.560009 172.91999 101.52 174 100.5 175.12 99.35 176.44ZM98.56 177.39C97.79 178.31 97.06 179.2 96.36 180.05 94.32 182.55 92.57 184.71 90.37 186.66 85.270008 191.19 76.94 195.40001 70.75 193.95 67.5 193.19 65.07 190.95 63.510004 187.31999L98.56 177.39ZM43.34 189.27C25.61 189.27 10.959999 180.82 .9599991 164.83L4.909999 162.39C14.889998 178.33 30.369999 186.12 48.55 184.36L51.21 188.72C48.58 189.09 45.94 189.27 43.34 189.27ZM194.93 396.29 190.29 396.24003C190.48999 382.16004 194.7 361.61003 203.12999 333.46003 204.73 333.75004 206.26999 334.06004 207.70999 334.35005 199.3 362.28 195.12 382.55 194.93 396.29ZM231.18 341.71C227.4 338.19999 215.62999 335.31 208.59 333.83L208.23999 333.75999C208.23 333.75999 208.23 333.75999 208.21999 333.75999 206.57999 333.41999 204.79999 333.05998 202.93999 332.72999 202.88999 332.71998 202.83998 332.71 202.79999 332.69999L202.63999 332.66999C194.75998 331.24 186.24999 330.09 178.01999 329.34L177.95999 329.33 177.9 329.34999C157.12999 335.24998 154.98 341.46998 152.44 353.86997V354.00999C153.94 364.8 153.01001 382.77 150.71 388.36L146.49 386.40998C148.23001 381.90998 149.25 365.02998 147.86 354.80998L147.8 354.65998C136.08 337.97999 128.36 333.55 114.770008 335.70997L114.66 335.74998C99.490009 343.92997 85.87 343.93998 75.44 335.99998 57.83 322.57997 51.920003 288.07997 57.4 264.11L62.010004 264.86C56.890005 287.09999 62.260004 320.12 78.25 332.3 87.38 339.25999 98.96 339.00999 112.72 331.52 122.22 324.3 124.82 313.28 120.44 298.75999L120.4 298.63999 120.3 298.56999C98.420009 283.40998 89.12 250.74997 93.37 239.87998 94.71 240.67998 96.090007 241.45998 97.47 242.19998 95 250.47998 101.840007 276.18998 118.11 290.90998L118.18 291.02998 118.29 291.04997 123.83 295.36997C130.8 300.86997 138.22 300.99998 143.21 300.12998 151.03002 298.77 156.09001 294.71998 157.29001 293.00999L157.37001 292.9C160.31002 285.8 165.11002 279.34 171.62001 273.68 177.3 268.74 184.13 264.53 191.92002 261.16999 198.06002 260.97999 204.03002 260.53999 209.67002 259.86 209.73001 259.84999 209.79001 259.84 209.86002 259.84 190.75002 264.66999 169.07 276.88999 161.65003 294.75 158.06003 312.88 169.00003 319.21 177.79003 324.29L178.44002 324.68003 178.60002 324.73C179.90003 324.85 191.71002 326 204.41002 328.32 206.19002 328.64 207.93003 328.99003 209.68003 329.34V329.35C222.70003 332.05003 231.06003 335.13 234.57003 338.49003L231.18 341.71ZM62.68 264.98 66.82 265.66 66.83 265.25C67.12 245.02 72.380008 238.05 76.75 235.76 80.48 233.81 85.13 234.47 89.84 237.64 90.71999 238.23 91.67999 238.85 92.759998 239.51 88.34 250.45 97.649997 283.65 119.78 299.07 124.02 313.22 121.49 323.95 112.32 330.92 98.87 338.23 87.54 338.51 78.65 331.73 62.85 319.72 57.59 287.01 62.68 264.98ZM98.09 242.55C120.34 254.27 153.23 261.27 185.37 261.27 186.95999 261.27 188.54999 261.22999 190.14 261.19999 173.93 268.55 162.08 279.65998 156.72 292.58998 155.6 294.18998 150.6 298.13996 143.07 299.45997 138.21 300.29997 131.01001 300.18998 124.240009 294.83998L118.57001 290.41996C102.56 275.93 95.76 250.78 98.09 242.55ZM215.79 259.27C219.48999 258.97 223.39 258.84 227.4 258.86 225.93999 263.31999 223.97 268.96998 221.09999 277.12L220.82999 277.9C215.9 291.99 209.76999 309.5 204.18999 327.58 191.87999 325.34999 180.47998 324.22 178.69998 324.05L178.10999 323.69999C169.52999 318.74 158.86998 312.56999 162.27999 294.94999 170.34 275.55 195.67 262.85 215.79 259.27ZM226.14 278.88 226.05 279.13C221.14 293.15 215.03 310.58003 209.46 328.59 207.98001 328.28 206.44 327.98 204.87001 327.69999 210.44002 309.65998 216.56002 292.18998 221.48001 278.12998L221.75002 277.34999C224.66002 269.06999 226.65001 263.36 228.13002 258.86 229.87003 258.87 231.46002 258.90998 232.97002 258.99 231.33 264.11 228.81 271.29 226.14 278.88ZM438.79 239.84V219.83C444.74003 227.95 462.2 234.47 472.75 237.29001 459.82 236.38 444.92 237.43 438.79 239.84ZM477.65 235.18C478.8 235.45999 479.91999 235.73 480.99 235.98 483.02 236.45999 484.93 236.92 486.62 237.37999V241.68999C453.31 238.69998 444.25 241.76999 438.84 245.04 438.86 243.56 438.87 242.06 438.88 240.54999 444.89 238.05998 462.64 236.63999 477.87 238.44998L477.97 237.75998C477.68 237.70998 477.37 237.64998 477.06 237.58998H477.04C467.51 235.61998 444.7 228.10999 438.80003 218.56998L438.76 214.88999C450.62 227.23 465.05 232.08 477.65 235.18ZM480.83 200.56C474.53999 203.44 466.62 204.9 457.28 204.9 451.59 204.9 445.19 204.34 438.26 203.25L437.85 203.18 437.86003 203.59999C437.92 207.09999 437.99003 210.57999 438.04 214.04L438.09 218.68999V240.37L438.16999 240.69C438.15998 242.35 438.15 244.01001 438.12998 245.65001 437.77998 279.11003 435.53999 302.88 431.09999 320.47 425.77 341.57 417.12998 354.1 404.67997 358.76 399.40998 360.73 394.13996 361.73 388.99998 361.73 383.19999 361.73 376.19999 357.93003 369.43998 354.26 361.79997 350.12 354.58998 346.21003 349.65998 348.06 340.03999 351.69 334.76997 359.8 333.97999 372.16999 333.71 376.46 333.87998 383.46 336.21 392.68998L323.91 397.61C321.96 392.05 322.83003 376.59999 323.59 369.06L323.66999 368.35C324.16999 363.68 325.50999 351.27003 317.71998 344.68 311.88999 339.74 302.16999 339.13 288.84999 342.86L288.53999 342.94999 288.59999 343.25999C293.91999 371.37 294.91999 391.61 291.63999 405.12L278.84 401.91999C281.66999 390.15 280.58 371.55 275.5 345.08998L275.44 344.75999 275.11003 344.80998C253.75002 347.79997 249.01001 348.14997 247.30002 348.14997 246.94002 348.14997 246.70001 348.12998 246.53002 348.10997L249.17002 334.88996C253.30002 334.48997 263.74003 333.05998 272.39 331.83998L272.76 331.78999 272.68003 331.41999C267.57005 308.16999 260.84004 283.90998 254.90003 262.5L254.41002 260.75 254.20001 260.71C247.58002 259.46 240.76001 258.66999 233.92002 258.34L233.47002 258.32C231.75002 258.23 229.92002 258.18 227.89002 258.17H227.64002C223.53002 258.14 219.52002 258.28 215.73001 258.59004V258.63005 258.59004L212.99 258.82005C211.98001 258.91004 210.88 259.02006 209.56002 259.18003 203.93001 259.87004 197.96 260.31004 191.81002 260.49003 157.61002 261.50004 121.680019 254.32003 98.05001 241.75002 96.47001 240.91002 94.90001 240.02002 93.37001 239.10002L93.35001 239.09003C92.180019 238.37003 91.16001 237.72003 90.23001 237.09003 85.30001 233.77002 80.390018 233.09003 76.42001 235.17003 71.92001 237.53003 66.49001 244.60004 66.140018 264.86003L62.840017 264.31004 62.520017 264.26005 62.470018 264.25004 57.170019 263.38005 53.180017 262.72004 53.630018 260.00004C54.110017 257.08003 54.560018 254.38004 54.980016 251.90003 55.540018 248.56003 56.050016 245.60002 56.510015 242.95003 56.570016 242.60002 56.640016 242.25003 56.690015 241.89003 56.900014 240.08003 55.920015 234.91004 52.720014 231.17003 50.59001 228.68003 47.940015 227.36003 44.830015 227.24004 42.070016 227.13004 38.150014 227.04004 33.620016 226.95005 23.070015 226.73004 9.980015 226.45005 1.2400131 225.61005L2.540013 212.49005C8.650013 213.08005 16.480013 213.43006 28.210013 213.95006 31.210013 214.08007 34.460016 214.23006 38.010015 214.39006 44.350015 214.68006 49.000017 212.88007 51.800016 209.02007 55.490015 203.93007 55.070016 196.10007 53.110017 190.98007 52.930017 190.49007 52.650018 189.91007 52.330018 189.28008L52.370019 189.27008 52.100019 188.83008C51.350019 187.42008 50.330018 185.74008 49.05002 183.82009L48.940019 183.63008H48.93002C42.09002 173.44008 27.37002 155.86008 16.90002 149.69008L23.45002 138.23007C35.120019 145.04007 47.66002 160.58008 54.92002 171.91007L54.960023 171.97006C54.960023 171.97006 54.960023 171.98006 54.960023 171.98006L59.42002 179.59006C59.87002 180.43006 60.300024 181.31006 60.750024 182.26006L62.720026 187.24005 62.840024 187.53005H62.860025C64.510028 191.42005 67.120029 193.83005 70.620029 194.65004 71.52003 194.86005 72.45003 194.96004 73.41003 194.96004 79.38003 194.96004 86.36002 191.21004 90.86003 187.21004 93.10003 185.22003 94.88003 183.04004 96.93003 180.52004 97.83003 179.42003 98.76003 178.28003 99.79003 177.07004L99.94003 177.02004V176.89003C101.130039 175.52004 102.18003 174.37003 103.26003 173.26003L103.43003 173.09003 103.33003 172.87003C102.950038 172.05002 102.57003 171.24002 102.21003 170.42003L102.18003 170.36003C95.20003 154.83003 90.520038 138.88004 87.11003 127.22003L86.74003 125.94003C86.440029 124.92004 86.16003 123.93003 85.870029 122.990039L98.52003 119.240039C98.67003 119.770038 98.830028 120.310039 99.00003 120.86004 99.24003 121.68004 99.49003 122.52004 99.74003 123.39004 102.800029 133.86003 106.99003 148.20005 113.08003 162.35004L113.29003 162.84004 113.65003 162.46004C124.910037 150.60004 136.39003 138.08003 146.55004 127.00004L146.57004 127.01004 146.80004 126.72004C146.86003 126.65004 146.92003 126.58004 146.99004 126.51004L147.10004 126.39004C147.71004 125.72004 148.32004 125.060039 148.94004 124.380039 149.58003 123.68004 150.22003 122.980037 150.85004 122.28004L150.86003 122.270038C160.57004 111.69003 170.60004 100.740039 180.30004 90.42004L180.60004 90.10004 180.23004 89.880039C174.34004 86.380039 168.65004 82.730037 163.34004 79.060039 161.22005 77.590038 159.18004 76.14004 157.27004 74.730037L157.25003 74.71004C150.78003 69.93004 147.01003 66.62004 145.98003 65.69003L151.67003 59.480035 154.60002 56.290037C154.62003 56.270036 154.63002 56.250036 154.65003 56.240037L154.66002 56.250036 154.92002 55.970037C155.29001 56.300039 156.05002 56.960039 157.20001 57.910036 161.19002 61.200037 172.36002 69.950038 189.78002 80.05003L190.02002 80.19003 190.21002 79.990039C211.90003 57.350038 229.13002 41.160036 244.42002 29.050038L244.46 29.020037C245.86 27.900036 247.28002 26.800038 248.69 25.750037 248.78 25.680037 248.86 25.620038 248.95 25.560036L249 25.520035C274.09 6.5100347 294.65-1.429966 311.84 1.2400341 332.25 4.410034 348.66999 17.510035 360.63 40.160036 364.54 47.550035 370.32 52.370035 376.91 53.720037 382.16 54.800039 387.54 53.490037 391.68 50.140039 399.75 43.600038 416.55 28.540038 418.88999 26.440037L427.22999 36.630037C424.47999 38.710039 403.09999 55.00004 396.19999 62.030038 392.56999 65.730037 390.86 71.090038 391.49998 76.740039 392.27998 83.64004 396.39997 89.810039 403.09999 94.10004 404.27998 94.86004 405.47999 95.560039 406.74998 96.310039 419.99998 104.10004 436.47999 113.80003 437.51997 189.68004V189.97003L437.79997 190.02004C438.35997 190.12004 438.90995 190.21004 439.45997 190.30004L439.90998 190.37004C439.91999 190.37004 439.91999 190.37004 439.92997 190.37004 440.90998 190.53005 441.89997 190.68004 442.87998 190.82004L443.00999 190.84004C443.88999 190.96004 444.74998 191.08005 445.65 191.17005 458.3 192.69005 468.28999 191.82004 475.36 188.60004 481 186.01004 484.63999 181.82004 486.47999 175.80004L499.15 179.48003C496.19 189.25 490.03 196.36 480.83 200.56Z"/>
<path transform="matrix(.8084688,0,0,.80842718,202.89536,209.03496)" d="M368.42 110.59 368.22 111.259998C365.51 120.56999 364.38 124.42 357.48 129.79 354 132.5 349.73 134.51999 344.78 135.79L344.87 136.12999 344.58 136.32999C350.83 145.25998 365.06999 161.48999 374.09999 169.37 370.40998 167.89 366.59999 166.33 362.50999 164.62 353.52998 155.34 343.62998 143.5 339.46998 137.06L339.17997 137.25 339.12998 136.9C335.90998 137.37 332.3 137.61 328.41999 137.61 317.84999 137.61 304.96998 135.88 289.03999 132.32L288.84999 132.99C294.86 134.99 304.78999 139.54001 318.52998 145.85 330.73997 151.45001 345.92997 158.42002 362.16999 165.23001 367.02 167.26001 371.49 169.09001 375.83 170.81002L375.86 170.83002C376.27 170.99002 376.68998 171.15003 377.11 171.32003L377.93998 171.65003 377.92997 171.64003C380.20997 172.53003 382.52998 173.42003 384.92997 174.32003 385.47996 174.53003 386.02998 174.74002 386.57997 174.94002L387.40995 175.25002 387.72996 175.37001C388.47996 175.65001 389.21995 175.93001 389.96995 176.19002H389.97996L390.26997 176.30002C402.58998 180.81002 413.84996 184.37003 423.72996 186.89002L424.18995 187.01001 424.16996 186.54001C422.14997 140.78002 414.44996 116.64001 397.59996 103.23001 392.49995 99.40001 385.05995 95.29001 378.49995 97.47001 373.91 99 370.51 103.42 368.42 110.59ZM293.69 134.04C307.49 136.90999 318.89 138.31 328.43 138.31 332.25999 138.31 335.82 138.06999 339.02 137.62 343.09 143.86 352.28999 154.9 360.9 163.93 345.25999 157.34 330.65 150.64 318.84 145.22 308.13 140.31 299.73 136.46 293.69 134.04ZM385.55 173.81 403.71 135.48999 407.91 137.48 389.92 175.43 387.67 174.59999 387.61003 174.57999 386.84004 174.29C386.41 174.13 385.98 173.97 385.55 173.81ZM397.18 103.78C408.75 112.99 420.91 129.98 423.44999 186.1 413.71998 183.6 402.66999 180.09001 390.58 175.67002L408.69 137.46002 408.84 137.14002 403.38 134.55002 384.89 173.54003C381.90003 172.42003 378.96003 171.29003 376.17 170.19002 367.48 163.12001 352.2 145.85002 345.44 136.32003 350.27 135.02002 354.47 133.01003 357.91 130.33002 364.99 124.820018 366.13 120.91002 368.89 111.44002L369.09004 110.77002C371.11003 103.83002 374.36003 99.57002 378.74003 98.110019 385 96.04 392.23 100.06 397.18 103.78Z"/>
<path transform="matrix(.8084688,0,0,.80842718,202.89536,209.03496)" d="M303.02 88.23 303.06 88.58 302.8 88.82 334.77 123.42C332.88999 123.6 330.84999 123.689998 328.71 123.7L296.75999 89.119998 296.49998 89.35999 296.45 89C274.08003 91.81 253.18001 96.52 237.59001 102.28L236.73001 102.6 237.59001 102.93C241.74 104.55 245.91 106.07 250.00002 107.49L250.87001 107.799999C250.88 107.799999 250.89002 107.81 250.90001 107.81 253.68001 108.79 256.61003 109.759998 259.58003 110.7L259.67 110.729999C266.84004 113.02 274.2 115.119998 281.54 116.979999 285.29 117.92999 289.04 118.81999 292.69 119.619998L292.84 119.649997C294.94 120.10999 297.07 120.56 299.35 121.009998L299.95 121.13V121.119998C311.08003 123.27 320.65003 124.38 328.40003 124.38999H328.55003C331.04 124.38999 333.39 124.26999 335.53004 124.03999L336.22004 123.95999 336.21003 123.94999C341.91004 123.26999 346.35005 121.73999 349.37004 119.38999 349.76005 119.08999 350.16004 118.80999 350.58003 118.51999 352.81004 116.97999 355.33003 115.22999 356.74003 109.12999 358.44004 101.78999 357.79 96.359989 354.75004 92.52999 351.29005 88.17999 344.83003 86.05999 334.98005 86.05999 324.36 86.36 313.61 87.09 303.02 88.23ZM261.05 110.42C269.94999 108.54 278.34 109.28 284.8 112.549999 287.96 114.149997 290.41999 116.24 292.15 118.77 288.72999 118.009998 285.22999 117.18 281.72999 116.28999 274.78 114.55 267.84 112.57 261.05 110.42ZM293.14 119C291.33003 116.09 288.63 113.71 285.12004 111.93 278.22004 108.44 269.2 107.75 259.7 110 257.08003 109.17 254.51001 108.32 252.04001 107.47 264.63 102.880008 277.72 102.98 287.22 107.79 292.77 110.590007 296.89 114.98 298.89 120.2 296.89 119.81 295 119.41 293.14 119ZM287.53 107.17C277.67 102.17 264.02 102.159999 251.01 107.11 246.95999 105.72 242.82999 104.21 238.70999 102.62 254.10999 97.04 274.53 92.47 296.37 89.72L327.75 123.68C320.06 123.61 310.64 122.5 299.68 120.36 297.67 114.8 293.37 110.12 287.53 107.17ZM354.2 92.96C357.1 96.62 357.71003 101.85 356.06 108.97 354.71 114.81 352.41 116.41 350.18 117.95 349.75999 118.24 349.34 118.53 348.94 118.84 345.93 121.17999 341.46 122.689998 335.63 123.32L303.79 88.86C314.14 87.76 324.63 87.05 334.99003 86.76 344.6 86.76 350.88 88.79 354.2 92.96Z"/>
<path transform="matrix(.8084688,0,0,.80842718,202.89536,209.03496)" d="M220.71 110.37 220.54001 110.3 220.39002 110.4C217.53002 112.200008 215.26001 114.020008 213.62001 115.8 212.69002 116.8 211.91 117.91 211.31002 119.08L211.62001 119.240009 211.72002 119.58 229.11002 114.53 229.01001 114.19 229.14002 113.87C226.4 112.76 223.64 111.62 220.71 110.37ZM214.13 116.27C215.70001 114.56 217.87001 112.82 220.6 111.079998 223.14 112.16999 225.55 113.16999 227.93001 114.13L212.33 118.659999C212.84 117.82 213.44 117.01 214.13 116.27Z"/>
<path transform="matrix(.8084688,0,0,.80842718,202.89536,209.03496)" d="M256.27 151.86C261.84999 144.94 273.47 130.55 283.9 131.85L284.02 131.16C282.15 130.71 280.25999 130.25 278.31 129.76001 264.32 126.21001 250.55 121.93001 237.38 117.02001L237.26001 117.35001 237.16 117.01002 209.91 124.930019 210.01001 125.27001 209.66 125.250019C209.55 126.88001 209.67 128.67002 210.01001 130.57003 210.28002 132.07003 210.64002 133.55002 211.07 134.99002H211.06002L211.20001 135.44002C211.78002 137.32003 212.51001 139.13002 213.42002 140.96002V140.97002L213.50002 141.13002H213.51001C215.92002 145.88002 219.45001 150.41002 225.00002 155.84003 228.47002 158.12003 232.26001 159.44004 236.26001 159.78003V159.79003L236.46 159.81003C236.46 159.81003 236.47 159.81003 236.47 159.81003 237.14 159.86003 237.81 159.89003 238.49 159.89003 239.71 159.89003 240.93001 159.80004 242.14 159.62003 242.15 159.62003 242.15 159.62003 242.16 159.62003L242.56 159.56003V159.55004C248.09999 158.67003 252.25 156.29004 253.72 154.86003 254.24 154.38 255.09 153.32 256.27 151.86ZM214.36 141.26C224.51 142.64 232.54001 151.26 235.94 159.06 232.19 158.68 228.64 157.41 225.43001 155.31 220.16 150.15 216.73 145.78 214.36 141.26ZM236.75 159.14C233.31 150.94 224.77 141.7 213.95 140.49 213.16 138.90001 212.52 137.32 212 135.70001 227.78 135.91002 238.26 149.55002 241.62 159.01001 240 159.21 238.36 159.25 236.75 159.14ZM242.33 158.89C238.93001 149.19 228.13 135.08 211.79001 134.99 211.34001 133.51001 210.97 131.99 210.69 130.44 210.38 128.68001 210.27 127.04 210.35 125.53L237.24 117.71C250.40001 122.61 264.16 126.88 278.14 130.43 279.12004 130.68 280.09004 130.92 281.05003 131.15 271.1 132.36 260.88 145.03 255.73001 151.40999 254.61002 152.79999 253.73001 153.88999 253.24 154.35999 251.87 155.7 247.73 158.06 242.33 158.89Z"/>
<path transform="matrix(.8084688,0,0,.80842718,202.89536,209.03496)" d="M219.77 95.45 219.92 95.52 220.06999 95.439998C231.06 89.88999 246.37999 84.92 264.34999 81.079998 270.68998 79.71999 277.44999 78.45999 284.43998 77.329998 286.56999 76.99 288.67997 76.659999 290.78999 76.34999 307.03999 73.97999 322.49 72.63999 333.27 72.72999 333.34 72.72999 333.41999 72.72999 333.49 72.72999 340.56999 72.72999 345.96 70.50999 349.09 66.30999 352.33 61.95999 352.63 56.26999 351.49 52.55999 342.63 23.48999 321.55 16.069989 309.77 14.229988 296.43 12.159988 279.28 19.239989 257.31999 35.869989L257.25999 35.799989 254.92998 37.69999 255.14998 37.96999 255.35999 38.24999C255.97998 37.76999 256.59999 37.28999 257.21998 36.81999L257.64997 37.33999C267.00996 48.80999 283.44996 68.77999 290.01997 75.749988 288.18998 76.01998 286.34996 76.30998 284.50996 76.59998 275.03996 66.039989 255.84995 42.469984 253.57996 39.679986L255.03997 38.489988 254.81996 38.219987 254.60996 37.939989H254.59996L254.58997 37.949987C239.78997 49.479986 223.17996 64.87999 202.29996 86.429988L201.96996 86.76998 202.38996 86.98998C208.15 89.99 213.99 92.83 219.77 95.45ZM258.2 36.9 257.79 36.4C279.57 19.920002 296.55003 12.890001 309.67 14.920002 321.29 16.730002 342.08003 24.060002 350.83003 52.760004 351.88 56.190004 351.61003 61.760004 348.54 65.89 345.51 69.96 340.45 72.02 333.51 72.02 333.43003 72.02 333.36003 72.02 333.28 72.02 322.54 71.939998 307.09 73.259998 290.88 75.619998 284.57 69.04 267.73 48.57 258.2 36.9ZM253.03 40.1C255.09 42.64 274.08 65.96 283.71 76.75 276.93 77.86 270.36 79.08 264.21 80.4 246 84.3 231.09999 89.12 219.90999 94.75 214.33998 92.22 208.69998 89.48 203.15 86.6 222.91 66.21 238.84 51.36 253.03 40.1Z"/>
<path transform="matrix(.8084688,0,0,.80842718,202.89536,209.03496)" d="M137.22 199.34H137.21L137.62001 199.70999C139.14002 201.09 140.77 202.42 142.48001 203.65999L142.62001 203.76H142.63C146.91 206.79999 151.44 209.06999 156.11 210.48999 160.23 211.74999 164.57 212.37999 169.11 212.37999 182.82 212.37999 198.41 206.65 215.66 195.23 216.79001 194.18 217.81 193.06 218.71 191.92H218.72L218.82 191.8C220.27 190 221.41 188.11 222.24 186.18001L222.45001 185.67002H222.43001C225.29001 178.52002 223.59001 171.47002 217.59001 165.75002 209.09001 157.64002 203.31002 149.95001 199.93001 142.25002L199.61 142.39002 199.51 142.06002C172.23 150.41002 137.9 161.00002 130.95 163.33002L131.06 163.66002 130.8 163.42002C127.21001 167.26001 123.44 171.26001 119.57001 175.30002L119.39001 175.48001 119.51001 175.70001C124.87 185.55 130.82 193.48 137.22 199.34ZM215.22 194.68C192.49 209.71999 172.67 214.81999 156.31 209.81999 151.87 208.45999 147.56 206.32999 143.47 203.48999 160.53 198.13999 202.46 193.20999 217.73001 191.99999 216.95 192.93 216.11 193.85 215.22 194.68ZM218.36 191.25C203.52 192.38 159.77 197.48 142.73999 202.99 141.26 201.91 139.84 200.76001 138.49999 199.57 147.80998 195.90001 167.79999 192.64002 183.07999 190.55 199.24999 188.33 215.21999 186.72 221.35999 186.43001 220.6 188.08 219.59 189.7 218.36 191.25ZM131.24 163.97C138.32 161.6 172.27 151.13 199.40001 142.82 202.83 150.52 208.62001 158.19 217.09001 166.26001 222.95001 171.84001 224.56002 178.74 221.65001 185.70001 215.75002 185.94002 199.47 187.57 182.97 189.84001 167.48 191.97002 147.16 195.28002 137.92 199.03002 131.54 193.25002 125.6 185.37001 120.24 175.59001 124.03 171.65 127.73 167.74 131.24 163.97Z"/>
<path transform="matrix(.8084688,0,0,.80842718,202.89536,209.03496)" d="M247.29 227.04C247.01999 223.98 246.79 221.32999 246.28 219.12999 245.99 217.91999 245.33 215.48999 244.09 212.74999 242.83 209.97998 241.34 207.73999 239.65 206.06999 235.7 202.15999 230.95 201.62 225.5 204.48999 205.06 218.48 186.08 225.57999 169.07 225.57999 163.26001 225.57999 157.6 224.74999 152.26001 223.11998 143.68001 220.50998 135.66 215.81998 128.40001 209.18997L128.16 209.44997 127.990009 209.14997C122.310009 212.35997 109.600009 221.58997 104.16 228.72997L103.76 228.52997C103.18 228.23998 102.61 227.95996 102.04 227.65998 101.66 227.31998 101.21 226.92998 100.69 226.49997L100.28 226.14997C105.17 219.61997 116.53 210.57996 124.38 205.86997L124.2 205.56996 124.45 205.32996C119.28 199.88996 114.42 193.30995 110.02 185.75995L109.82 185.41996 109.51 185.65996C97.380008 194.83997 91.12 203.38996 90.89 211.06996 90.67 218.65996 96.36 223.71996 99.33 226.25997L99.41 226.31996C99.47 226.36997 99.53001 226.41997 99.58 226.46996L100.240009 227.02996C100.76 227.46996 101.22001 227.85996 101.600009 228.19995L101.68001 228.24996C102.270008 228.55995 102.86001 228.84996 103.450008 229.13996L104.37 229.59996V229.58997C128.44 241.33997 156.22 247.47997 184.48001 247.47997 192.29001 247.47997 200.14002 247.00997 207.95001 246.05997 216.11002 245.06996 224.56002 244.74997 233.07 245.09996 234.31002 245.14997 235.95001 245.22997 237.58 245.34996 241.69 245.61997 245.88 246.06996 250.01001 246.67996L250.54001 246.75997 250.40001 246.24997C248.29 238.46 247.74 232.13 247.29 227.04ZM99.76 225.7C96.86 223.22 91.39 218.31999 91.600009 211.09 91.82001 203.7 97.880008 195.41 109.630008 186.45999 113.93001 193.76999 118.65001 200.15999 123.670009 205.5 116.96 209.58 105.12 218.55 99.76 225.7ZM237.41 244.64C236.01001 244.54 234.65001 244.48 233.52 244.43 234.26001 240.87 239.37001 215.97 239.73001 207.20999 241.1 208.71999 242.34001 210.62 243.40001 212.93999 243.08 214.19998 242.50002 217.76 241.78002 222.22998 240.41002 230.66999 238.54001 242.23998 237.33002 244.60999L237.41 244.64ZM207.88 245.38C171.97 249.74 135.39002 243.93001 104.82001 229.04001 110.11001 222.17002 122.57001 213.07 128.13 209.88 135.41 216.49 143.46 221.17 152.06 223.79001 157.47 225.45001 163.2 226.28002 169.08 226.28002 186.23 226.28002 205.34 219.14002 225.87 205.09001 230.94 202.43001 235.37999 202.89002 239.06 206.47002 238.98 214.41002 233.45 241.40003 232.83 244.40003 224.37 244.07 215.98 244.39 207.88 245.38ZM238.05 244.69C239.31 241.86 241.06 231.07 242.47 222.34 243.04001 218.84 243.54001 215.72 243.88 214.01999 244.87001 216.4 245.40001 218.44998 245.6 219.29 246.11 221.43999 246.33 224.06 246.6 227.09999 247.03 232.09999 247.57 238.31 249.6 245.91999 245.76 245.37 241.88 244.96 238.05 244.69Z"/>
<path transform="matrix(.8084688,0,0,.80842718,202.89536,209.03496)" d="M269.73 264.56 269.12004 264.37 269.29005 264.99C275.10005 285.93 281.15003 308.15998 285.82005 329.61L285.89006 329.90998 286.20005 329.87998C311.02006 327.73997 319.11006 317.71998 321.44004 313.50999 323.94004 308.99998 324.03004 304.00999 321.70005 299.46998 315.5 287.4 291.7 271.41 269.73 264.56ZM320.81 313.17C316.1 321.68003 303.26 327.64 286.43 329.15003 281.82 307.99003 275.86 286.08003 270.13 265.41004 291.42 272.21003 315.11003 288.17005 321.06 299.78004 323.31 304.18 323.23 308.81 320.81 313.17Z"/>
<path transform="matrix(.8084688,0,0,.80842718,202.89536,209.03496)" d="M340.61 315.77C334.43 315.77 329.4 320.8 329.4 326.99 329.4 333.16999 334.43 338.19999 340.61 338.19999 346.78999 338.19999 351.83 333.16999 351.83 326.99 351.82 320.8 346.79 315.77 340.61 315.77ZM340.61 337.49C334.81999 337.49 330.09999 332.78 330.09999 326.97999 330.09999 321.18 334.80998 316.46 340.61 316.46 346.40998 316.46 351.12998 321.18 351.12998 326.97999 351.13 332.78 346.41 337.49 340.61 337.49Z"/>
<path transform="matrix(.8084688,0,0,.80842718,202.89536,209.03496)" d="M389.68 251.52 389.36 251.65001 389.16999 251.35C378.59999 258.06 357.25999 260.95 341.21998 262.19 332.36997 262.87 322.53999 263.23 312.80998 263.23 308.61997 263.23 304.54997 263.17 300.68998 263.04 297.47999 261.19 294.12998 259.46003 290.70997 257.88 321.46998 260.11003 371.69996 257.28 386.85997 247.34001L386.66996 247.05002 386.93995 246.83002C382.17994 241.01001 371.02995 233.80002 353.78996 225.39002L353.63996 225.70001 353.50996 225.38C347.12995 227.99 339.88996 229.32 331.99995 229.32 320.29994 229.32 309.39994 226.42002 302.31996 223.99 285.46995 218.20001 269.62995 208.07 261.94996 198.19L261.66996 198.40001 261.45997 198.12001C256.55998 201.78002 255.03997 208.75002 256.93998 218.85 259.04997 230.08 260.56999 234.94 262.31999 240.57 263.12998 243.17002 263.96998 245.87001 264.96 249.45001L265.00999 249.65001 265.21 249.70001C273.16 251.68001 280.85 254.30002 288.09999 257.48L288.59999 257.7C292.64997 259.49003 296.62998 261.51 300.40998 263.69 313.45997 271.2 324.20997 280.63 332.33 291.7 334.25 294.90003 339.72 298.82 346.47 300.11003 347.81 300.37004 349.33 300.54 351 300.54 355.15 300.54 360.15 299.43003 365.11 295.64 373.18 289.5 397.67 270.79 389.68 251.52ZM263.01 240.36C261.26 234.75 259.75 229.9 257.65003 218.72 255.84003 209.09 257.19004 202.43 261.64 198.89 269.47 208.78 285.29 218.86 302.1 224.64 309.23 227.09 320.21003 230.01 332.01 230.01 339.93003 230.01 347.2 228.68 353.63 226.08 370.16 234.16 381.37 241.36 386.14 246.96 370.40003 256.86003 319.11003 259.51 288.87004 257.04 281.52003 253.78002 273.69004 251.09001 265.60005 249.07 264.63 245.57 263.8 242.92 263.01 240.36ZM364.7 295.09C357.95 300.24 351.14 300.29 346.61003 299.43 340.07 298.18 334.78004 294.41 332.92 291.32 324.97 280.48 314.54 271.22 301.93003 263.78 305.42 263.88 309.06004 263.93 312.80003 263.93 322.55003 263.93 332.39 263.57 341.26 262.88999 357.2 261.65998 378.35 258.8 389.16 252.16999 394.11 264.71 386.1 278.75 364.7 295.09Z"/>
<path transform="matrix(.8084688,0,0,.80842718,202.89536,209.03496)" d="M424.82 211.24H424.96003L424.79 210.65001 424.5 210.73001V210.54001L424.39 210.59001 424.38 210.56002C423.33003 210.82 413.77003 212.99 403.19 208.03002L402.52 207.72002 402.71 208.44002C405.44 219.03002 401.41 232.18003 398.08 238.38002L396.61 236.44002 396.55 236.37001 396.53 236.35C396.51 236.31002 396.49 236.29001 396.47 236.27 395.94 235.61 395.41 234.98001 394.89 234.39 398.2 227.69 401.35 214.64 396.66 205.41 391.46 198.09 386.27 191.05 384.03 188.3L383.9 188.41 383.88999 188.40001 384.02 188.28002C383.94 188.18001 383.87998 188.10002 383.8 188.02002L383.62 188.20001 383.57 188.16002C383.52003 188.22002 383.48 188.29003 383.45 188.36002L383.30003 188.51001C383.31004 188.52 383.33003 188.54001 383.34004 188.55 379.69004 194.78 371.18003 209.09 367.27003 213.83 366.6 213.45 365.89 213.06 365.21003 212.73L365.10005 212.65C364.46003 212.31 363.81004 211.97 363.17005 211.62999 367.16004 206.15 375.04005 193.49999 379.06007 186.62999L378.76008 186.45 378.88008 186.12C354.84007 177.01 331.67008 166.37 313.06007 157.81999L311.33006 157.03C305.07005 154.16 299.66004 151.68 295.07005 149.68L294.93003 150 294.65003 149.79C292.21003 153.15 287.35005 157.43 280.23 163.56999L280.12004 163.67C275.76005 167.42 271.27003 171.29 267.92 174.68 266.85 173.53 265.93003 172.23999 265.18003 170.85999 268.7 167.35999 273.21003 163.47998 277.2 160.04999L277.47 159.81999C282.17 155.76999 287.5 151.17 290.14 148.06999L289.87004 147.84 290.00004 147.51999C287.56004 146.51 285.67005 145.79999 284.23005 145.34 277.95005 143.36 267.94004 150.33 263.83006 157.43 261.80006 160.93 262.00007 166.12 264.32005 170.71999L264.31004 170.72998 264.42 170.94998C264.42 170.94998 264.42 170.95998 264.42 170.95998 265.28 172.59998 266.36003 174.09998 267.64 175.42998L267.65003 175.43997 267.89 175.68997 267.90003 175.67998C270.88005 178.68997 274.73 180.76998 279.35005 181.85997 289.48005 184.25997 321.23005 194.07997 342.71003 202.93997 349.83003 205.87998 356.48 208.94997 362.47004 212.04998 363.23005 212.43997 364.00004 212.84998 364.70005 213.21997L364.82005 213.29998C365.63005 213.69997 366.43003 214.13997 367.16004 214.55997L367.41004 214.69997C379.11006 221.18997 388.13005 227.89997 394.20005 234.64997 394.77006 235.27997 395.34007 235.95996 395.93006 236.68996L397.66007 238.94995C398.48008 240.07996 399.24006 241.25995 399.98008 242.55995 400.6201 243.68996 401.18009 244.79996 401.67008 245.86995L401.70008 245.94995C413.96009 272.94996 387.82008 291.60997 377.98008 298.63996L377.34007 299.09996C366.24006 307.03996 362.51008 329.08995 370.35008 340.50996 374.18006 346.07997 382.43006 347.86994 389.57008 347.86994 393.87007 347.86994 397.77009 347.21995 400.06007 346.35993 414.47007 340.95994 422.47007 314.33995 424.51008 264.9699 424.58009 263.1499 424.6501 261.31993 424.70008 259.4999 424.9001 253.4799 425.02009 246.88991 425.05009 239.35991 425.07008 233.8399 425.05009 228.13991 424.9701 221.93991 424.94 218.3 424.88 214.72 424.82 211.24ZM264.42 157.8C269.29 149.39 279.11003 144.48001 284 146.02 285.32 146.44 287.06 147.1 289.26 148 286.56 151.05 281.49003 155.43 276.99003 159.31L276.72004 159.54C272.79005 162.92 268.35005 166.73999 264.84004 170.20999 262.72 165.88 262.53 161.05 264.42 157.8ZM279.51 181.2C275.01 180.14 271.28 178.12 268.39 175.2 271.72 171.81999 276.2 167.95999 280.55003 164.22L280.66 164.12C287.68 158.08 292.49 153.83 295.02 150.45 299.55 152.43 304.87 154.87 311.02 157.69L312.75 158.48C331.28 166.98999 354.31 177.56 378.23 186.65 374.13 193.62 366.41 206 362.52003 211.31999 356.58003 208.24999 350.01 205.21999 342.97004 202.31999 321.47 193.44 289.66 183.61 279.51 181.2ZM367.87 214.19C371.8 209.37 380.08 195.47 383.79 189.15L383.85 189.22V189.21C386.25 192.22 391.16 198.89002 396.06 205.78 400.56 214.63 397.58 227.2 394.37 233.84 388.27 227.18 379.36 220.57 367.87 214.19ZM424.28 222.24C424.35 228.24 424.37 233.77 424.35 239.12001 423.37 239.40001 422.34 239.55 421.29 239.55 415.80003 239.55 411.34 235.57 411.34 230.69 411.34 225.8 415.8 221.83 421.29 221.83 422.33 221.83 423.33 221.97 424.28 222.24ZM398.53 239.01C401.87 232.97 406.03 219.79999 403.56 208.95999 413.25 213.26 421.98 211.79999 424.13 211.32999 424.19 214.63999 424.24 218.04 424.28 221.50998 423.32 221.25998 422.33 221.11998 421.3 221.11998 415.43 221.11998 410.65 225.40998 410.65 230.67998 410.65 235.94998 415.43 240.23998 421.3 240.23998 422.34999 240.23998 423.37 240.09998 424.36 239.82997 424.31999 246.62998 424.21998 252.66997 424.05 258.20997 419.99 250.99996 410.69 239.73996 400.47 242.01996 399.84 240.95 399.2 239.96 398.53 239.01ZM400.82 242.67C411.08003 240.56999 420.41 252.70999 424 259.6 423.96 260.96 423.91 262.31 423.86 263.67 416.11 249.22002 406.75 244.33002 402.21 245.42002 401.8 244.53 401.33 243.6 400.82 242.67ZM399.81 345.73C392.98 348.30003 376.41999 348.12004 370.91999 340.14 363.25999 328.99003 366.9 307.44 377.74 299.69L378.38 299.23C388.30003 292.15003 414.59 273.38 402.5 246.06002 406.17 245.34001 415.52 248.93001 423.81 265.06 421.77 314.06 413.92 340.45 399.81 345.73Z"/>
<path transform="matrix(.8084688,0,0,.80842718,202.89536,209.03496)" d="M392.84 191.58 392.56 191.79001C394.37 194.26001 396.03 196.54001 397.76 198.98001L398.05003 199.26001 398.11003 199.20001C404.91 205.1 412.56004 206.36002 417.86003 206.36002 421.61003 206.36002 424.18003 205.73001 424.43003 205.66002L424.34004 205.32003H424.69004C424.67005 203.80002 424.64006 202.29003 424.60005 200.83002L424.59004 200.56002 424.33003 200.50002C414.82 198.28002 404.26 195.17002 392.94 191.26001L392.84 191.58ZM424 205.04C421.93 205.5 409 207.90999 398.33 198.45L398.19999 198.37999C396.71998 196.30998 395.3 194.32999 393.77998 192.26 404.61997 195.98 414.75999 198.95 423.92997 201.11 423.95 202.4 423.98 203.72 424 205.04Z"/>
<path transform="matrix(.8084688,0,0,.80842718,202.89536,209.03496)" d="M156.26 300.62 156.28 299.97999 155.73 300.31999C152.29 302.43998 148.12 303.99998 143.98 304.72999 139.73999 305.46 133.29999 305.69999 126.689998 302.62L126.06999 302.33 126.19999 303C128.31999 313.96 126.539989 323.05 120.91999 330.02L120.46999 330.58 121.17999 330.59C133.23 330.81 140.81 337.62 148.48999 347.77L148.91999 348.34 149.10999 347.65C151.75998 337.94999 156.08998 331.71 171.29999 326.53999L171.99999 326.3 171.37999 325.90998C164.15 321.37 155.91 314.39 156.26 300.62ZM148.63 346.79C141.12001 336.98 133.61 330.37 121.90001 329.91 127.21001 323 128.93001 314.13 127.02001 303.53 133.58002 306.38999 139.90001 306.15 144.11002 305.42 148.12001 304.72 152.16002 303.24003 155.56002 301.24003 155.46 314.56004 163.28002 321.54 170.40001 326.11003 155.79 331.21 151.32 337.38 148.63 346.79Z"/>
<path transform="matrix(.8084688,0,0,.80842718,202.89536,209.03496)" d="M303.84 219.58C310.19 221.77 320.72999 224.66 332.03 224.66 336.91 224.66 341.94 224.12001 346.84 222.75L346.75 222.41 346.9 222.09C315.44 207.55 279.18 195.47 272.18 195.29 270.16 195.23999 268.31 195.4 266.65 195.79L266.72999 196.12999 266.46 196.34999C273.9 205.33 288.23 214.22 303.84 219.58ZM272.14 196C278.86003 196.17 315.03004 208.24 345.68003 222.32 329.91004 226.37001 312.91004 221.97 304.07 218.93001 289.07 213.78002 274.77003 204.97 267.38 196.37001 268.83 196.08 270.42 195.95 272.14 196Z"/>
<path transform="matrix(.8084688,0,0,.80842718,202.89536,209.03496)" d="M138.6 156.01C148.67002 152.81999 166.94 147.18 197.85 137.73L197.75 137.4 198.08 137.29999C197.63 135.85999 197.27 134.37999 197.01 132.90999 196.81 131.77999 196.65 130.60999 196.54999 129.43L196.19998 129.45999 196.10999 129.12C190.34999 130.58 182.46999 131.67 180.93999 131.87 176.79999 132.43 168.87999 133.36 162.37999 133.36 161.07999 133.36 159.87999 133.32 158.81999 133.25L158.79999 133.6 158.54 133.36 157.65 134.33C151.29 141.27 144.70999 148.44 138.20999 155.45L138.46999 155.69 138.6 156.01ZM158.19 134.79 158.97 133.93999C160 133.99999 161.15 134.04 162.4 134.04 168.93999 134.04 176.89 133.09999 181.04999 132.54 182.54 132.34 190.13999 131.29 195.9 129.87 196 130.93 196.14 131.98999 196.31999 133.01 196.56999 134.4 196.90999 135.79 197.31999 137.15 167.84999 146.15999 149.90999 151.68999 139.65 154.94 145.86 148.24 152.12 141.41 158.19 134.79Z"/>
<path transform="matrix(.8084688,0,0,.80842718,202.89536,209.03496)" d="M163.6 128.72C174 128.57 189.89002 125.98 196.26001 124.26L196.17002 123.920009 196.52002 123.950008C197.02002 117.39001 199.50002 111.65 203.90003 106.87 204.70003 106.01 205.54003 105.18 206.41002 104.4L206.80002 104.05 206.33002 103.82C201.57003 101.53 196.98001 99.2 192.69002 96.88L192.45001 96.75 192.27002 96.94C182.30002 107.47 172.11002 118.55 163.35002 128.11L163.61002 128.35 163.6 128.72ZM192.58 97.64C196.67 99.84 201.03 102.06 205.55 104.24 204.8 104.93 204.07 105.65 203.38 106.4 198.93001 111.23 196.41 117.04 195.85 123.65 189.55 125.310009 174.64002 127.740009 164.41 128 172.99 118.64 182.88 107.89 192.58 97.64Z"/>
<path transform="matrix(.8084688,0,0,.80842718,202.89536,209.03496)" d="M143.26 313.63C138.12 313.63 133.93 317.81 133.93 322.94 133.93 328.08003 138.10999 332.26 143.26 332.26 148.4 332.26 152.56999 328.08003 152.56999 322.94 152.58 317.81 148.4 313.63 143.26 313.63ZM143.26 331.57C138.5 331.57 134.62999 327.7 134.62999 322.94 134.62999 318.19 138.49999 314.32 143.26 314.32 148.01 314.32 151.87999 318.18 151.87999 322.94 151.88 327.7 148.01 331.57 143.26 331.57Z"/>
<path transform="matrix(.8084688,0,0,.80842718,202.89536,209.03496)" d="M136.39 61.45C130.99 61.45 126.59 65.840007 126.59 71.25 126.59 76.66 130.98 81.06 136.39 81.06 141.8 81.06 146.2 76.659999 146.2 71.25 146.2 65.85 141.8 61.45 136.39 61.45ZM136.39 80.35C131.37 80.35 127.29 76.259998 127.29 71.24 127.29 66.22 131.37 62.14 136.39 62.14 141.41 62.14 145.5 66.22 145.5 71.24 145.5 76.27 141.41 80.35 136.39 80.35Z"/>
</g>
<g clip-path="url(#clip_9)">
<use data-text="Q" xlink:href="#font_10_85" transform="matrix(43.995,0,0,-43.995,345.529,612.85739)"/>
<use data-text="U" xlink:href="#font_10_102" transform="matrix(43.995,0,0,-43.995,379.74754,612.85739)"/>
<use data-text="B" xlink:href="#font_10_14" transform="matrix(43.995,0,0,-43.995,413.04243,612.85739)"/>
<use data-text="I" xlink:href="#font_10_44" transform="matrix(43.995,0,0,-43.995,443.75959,612.85739)"/>
<use data-text="T" xlink:href="#font_10_97" transform="matrix(43.995,0,0,-43.995,458.15156,612.85739)"/>
<use data-text="I" xlink:href="#font_10_44" transform="matrix(43.995,0,0,-43.995,240.79854,674.35739)"/>
<use data-text="N" xlink:href="#font_10_66" transform="matrix(43.995,0,0,-43.995,255.19052,674.35739)"/>
<use data-text="T" xlink:href="#font_10_97" transform="matrix(43.995,0,0,-43.995,289.62385,674.35739)"/>
<use data-text="E" xlink:href="#font_10_25" transform="matrix(43.995,0,0,-43.995,315.6583,674.35739)"/>
<use data-text="R" xlink:href="#font_10_86" transform="matrix(43.995,0,0,-43.995,342.65937,674.35739)"/>
<use data-text="C" xlink:href="#font_10_15" transform="matrix(43.995,0,0,-43.995,372.02326,674.35739)"/>
<use data-text="O" xlink:href="#font_10_72" transform="matrix(43.995,0,0,-43.995,402.4612,674.35739)"/>
<use data-text="N" xlink:href="#font_10_66" transform="matrix(43.995,0,0,-43.995,436.67976,674.35739)"/>
<use data-text="N" xlink:href="#font_10_66" transform="matrix(43.995,0,0,-43.995,471.1131,674.35739)"/>
<use data-text="E" xlink:href="#font_10_25" transform="matrix(43.995,0,0,-43.995,505.54646,674.35739)"/>
<use data-text="C" xlink:href="#font_10_15" transform="matrix(43.995,0,0,-43.995,532.0964,674.35739)"/>
<use data-text="T" xlink:href="#font_10_97" transform="matrix(43.995,0,0,-43.995,562.8995,674.35739)"/>
</g>
<path transform="matrix(1,0,0,-1,0,817.92)" d="M-.00000000000017053026 7.920007H810V817.92H-.00000000000017053026Z" fill-opacity="0"/>
<path transform="matrix(1,0,0,-1,0,817.92)" d="M202.88756 280.6691H607.1124V610.6636H202.88756Z" fill-opacity="0"/>
</g>
</svg>
