<svg xmlns="http://www.w3.org/2000/svg" xmlns:xlink="http://www.w3.org/1999/xlink" xmlns:inkscape="http://www.inkscape.org/namespaces/inkscape" version="1.1" width="810" height="810" viewBox="0 0 810 810">
<defs>
<clipPath id="clip_1">
<path transform="matrix(.24,0,0,.24,0,0)" d="M0 0H3375V3375H0Z" clip-rule="evenodd"/>
</clipPath>
<clipPath id="clip_2">
<path transform="matrix(.24,0,0,.24,0,0)" d="M0 0H3375V3375H0Z" clip-rule="evenodd"/>
</clipPath>
<clipPath id="clip_3">
<path transform="matrix(.24,0,0,.24,0,0)" d="M0 0H3375V3375H0Z" clip-rule="evenodd"/>
</clipPath>
<clipPath id="clip_4">
<path transform="matrix(.24,0,0,.24,0,0)" d="M0 0H3375V3375H0Z" clip-rule="evenodd"/>
</clipPath>
<clipPath id="clip_5">
<path transform="matrix(.24,0,0,.24,0,0)" d="M1315.2003 160.35068H2121.17V2639.3619H1315.2003Z" clip-rule="evenodd"/>
</clipPath>
<clipPath id="clip_6">
<path transform="matrix(.24,0,0,.24,315.6,38.399999)" d="M0 0H807V2480H0Z" clip-rule="evenodd"/>
</clipPath>
<clipPath id="clip_7">
<path transform="matrix(.24,0,0,.24,0,0)" d="M1315.2003 160.36632H2121.1573V2638.4757H1315.2003Z" clip-rule="evenodd"/>
</clipPath>
<clipPath id="clip_8">
<path transform="matrix(.24,0,0,.24,0,0)" d="M0 0H3375V3375H0Z" clip-rule="evenodd"/>
</clipPath>
<path id="font_9_15" d="M.39453126-.010253906C.33203126-.010253906 .2763672 .0040690104 .22753906 .032714845 .17871094 .061360677 .14046224 .103271488 .11279297 .15844727 .085123699 .21362305 .07128906 .27978517 .07128906 .3569336 .07128906 .43408204 .085123699 .50024417 .11279297 .5554199 .14046224 .6105957 .17871094 .65250656 .22753906 .68115237 .2763672 .70979818 .33203126 .7241211 .39453126 .7241211 .46126304 .7241211 .51676437 .71150717 .56103518 .6862793 .60530599 .66105148 .63720706 .6230469 .6567383 .5722656L.60302737 .5366211H.5908203C.57128909 .5773112 .54589846 .6062012 .51464846 .623291 .48339845 .64038088 .44335938 .6489258 .39453126 .6489258 .34960938 .6489258 .30973307 .638916 .27490235 .6188965 .24007161 .59887698 .21240235 .5671387 .19189453 .52368167 .17138672 .4802246 .16113281 .42464195 .16113281 .3569336 .16113281 .28922526 .17138672 .23372396 .19189453 .19042969 .21240235 .14713542 .24007161 .115478519 .27490235 .095458988 .30973307 .07543945 .34960938 .06542969 .39453126 .06542969 .44628907 .06542969 .48860679 .077067058 .5214844 .1003418 .554362 .12361654 .57877609 .16129558 .59472659 .2133789H.6069336L.66308596 .18554688C.6461589 .122395839 .61482748 .07397461 .5690918 .040283204 .52335616 .006591797 .46516929-.010253906 .39453126-.010253906Z"/>
<path id="font_9_66" d="M.1899414 0H.107910159V.7138672H.2109375L.55908206 .16845703 .57128909 .17041016V.7138672H.65283206V0H.5649414L.20214844 .5834961 .1899414 .58154299V0Z"/>
<path id="font_9_72" d="M.39160157-.010253906C.3297526-.010253906 .2747396 .003092448 .2265625 .029785157 .17838542 .056477865 .14046224 .09724935 .11279297 .15209961 .085123699 .20694988 .07128906 .27522788 .07128906 .3569336 .07128906 .4386393 .085123699 .5069173 .11279297 .5617676 .14046224 .61661788 .17838542 .65738937 .2265625 .68408206 .2747396 .7107747 .3297526 .7241211 .39160157 .7241211 .45345054 .7241211 .50846359 .7107747 .5566406 .68408206 .6048177 .65738937 .6427409 .61661788 .67041018 .5617676 .6980794 .5069173 .71191409 .4386393 .71191409 .3569336 .71191409 .27522788 .6980794 .20694988 .67041018 .15209961 .6427409 .09724935 .6048177 .056477865 .5566406 .029785157 .50846359 .003092448 .45345054-.010253906 .39160157-.010253906M.39160157 .06738281C.4658203 .06738281 .52278646 .09057617 .5625 .13696289 .60221359 .18334961 .6220703 .2566732 .6220703 .3569336 .6220703 .457194 .60221359 .5305176 .5625 .5769043 .52278646 .623291 .4658203 .6464844 .39160157 .6464844 .23795574 .6464844 .16113281 .54996749 .16113281 .3569336 .16113281 .16389974 .23795574 .06738281 .39160157 .06738281Z"/>
<path id="font_9_97" d="M.5571289 .7138672V.6425781H.3334961V0H.25V.6425781H.026367188V.7138672H.5571289Z"/>
<g id="font_10_15">
<path transform="matrix(.00048828127,0,0,-.00048828127,0,0)" d="M808 149.00066C656.81637 149.00066 521.2263 113.80169 401.2298 43.403757 279.44966-28.040612 184.56647-131.54898 116.580318-267.1214 50.859666-398.17613 17.999344-552.8023 17.999344-731 17.999344-909.19778 50.859666-1063.824 116.580318-1194.8787 184.56647-1330.451 279.44963-1433.9595 401.2298-1505.4038 521.2262-1575.8016 656.8162-1611.0006 808-1611.0006 967.27407-1611.0006 1102.0653-1579.5708 1212.374-1516.711 1329.5036-1449.9645 1413.5352-1350.3773 1464.4689-1217.9496L1501.326-1122.1209 1273.6088-970.9993H1129.4577L1094.6045-1043.6101C1066.4909-1102.1802 1032.4839-1142.3755 992.5837-1164.1959 947.7185-1188.7316 886.1906-1200.9994 808-1200.9994 738.77658-1200.9994 678.3716-1186.1743 626.78518-1156.5242 578.671-1128.8698 539.32876-1082.6526 508.75837-1017.87246 474.9199-946.1671 458.00068-850.54299 458.00068-731 458.00068-611.52206 474.89347-516.1205 508.67906-444.79536 539.2434-380.2705 578.6121-334.164 626.78518-306.47578 678.37149-276.8257 738.7764-262.00068 808-262.00068 886.8523-262.00068 948.86636-277.99113 994.0421-309.972 1037.6128-340.8166 1071.4689-395.65324 1095.6101-474.4819L1123.3316-565.0007H1272.9816L1508.7798-448.1267 1481.6362-346.86039C1439.2289-188.64817 1359.1559-66.17576 1241.4174 20.556893 1125.1768 106.186069 980.70437 149.00064 808 149.00066ZM808-107.000659C924.629-107.000659 1018.4899-133.18607 1089.5827-185.55689 1159.1775-236.82425 1207.4379-312.68516 1234.3638-413.13963L1358-380 1301.1557-265.31398 1186.1557-322.31398 1243-437V-308.99934H1218V-437L1340.3899-399.5181C1299.1979-265.01344 1233.0538-165.51673 1141.9579-101.02801 1052.467-37.675565 941.1477-5.999344 808-5.999344 693.2236-5.999344 590.29519-32.1743 499.21485-84.52422 404.7212-138.836 330.75657-222.39615 277.32096-335.20466 227.10654-441.21287 201.99935-573.14468 201.99935-731 201.99933-888.7904 227.0801-1020.8329 277.24165-1127.1276 330.67124-1240.3474 404.6623-1324.1303 499.21485-1378.4758 590.2951-1430.8257 693.22348-1457.0006 808-1457.0006 929.8093-1457.0006 1032.2814-1434.2684 1115.4163-1388.8041 1203.5161-1340.6245 1273.5092-1262.4865 1325.3955-1154.3899L1210-1099V-1227.0006H1235V-1099L1164.2219-1205.6519 1274.2219-1278.6519 1345-1172 1225.5311-1126.0504C1196.4649-1201.6227 1149.8298-1257.7022 1085.626-1294.289 1014.60128-1334.7626 922.05929-1354.9994 808-1354.9994 703.1838-1354.9994 610.7738-1331.5316 530.7702-1284.5962 452.55036-1238.7072 390.76686-1170.549 345.41969-1080.1213 297.807-985.1761 274.00068-868.8023 274.00068-731 274.00068-593.19766 297.807-476.82389 345.41969-381.8786 390.76686-291.451 452.55036-223.29273 530.7702-177.40375 610.7737-130.46836 703.18368-107.000659 808-107.000659Z"/>
</g>
<g id="font_10_66">
<path transform="matrix(.00048828127,0,0,-.00048828127,0,0)" d="M389 128.00066H92.999347V-1590.0006H502.14979L1252.8937-413.87037 1145-345 1124.7771-471.39308 1149.7771-475.39308 1170-349H1041.9994V-1590.0006H1465.0006V128.00066H1085.8605L305.29756-1127.4135 414-1195 434.2229-1068.6069 409.2229-1064.6069 389-1191H517.0007V128.00066H389ZM389-128.00066V0H260.99934V-1300.1486L477.78218-1334.8339 1265.7025-67.58655 1157 0V-128.00066H1337V0H1208.9994V-1462H1337V-1333.9994H1170V-1462H1298.0006V-239.85138L1082.2937-205.33827 324.10633-1393.1296 432-1462V-1333.9994H221V-1462H349.00068V0H221V-128.00066H389Z"/>
</g>
<g id="font_10_72">
<path transform="matrix(.00048828127,0,0,-.00048828127,0,0)" d="M802 149.00066C653.2734 149.00066 519.9287 116.32177 401.96589 50.963998 280.30586-16.442238 185.22287-118.04683 116.71693-253.8498 50.905206-384.31187 17.999344-543.36196 17.999344-731 17.999344-918.6381 50.905206-1077.6882 116.71693-1208.1503 185.22284-1343.9531 280.30583-1445.5578 401.96589-1512.964 519.92868-1578.3218 653.2733-1611.0006 802-1611.0006 950.7267-1611.0006 1084.0713-1578.3218 1202.034-1512.964 1323.6941-1445.5578 1418.7771-1343.9531 1487.2831-1208.1503 1553.0947-1077.6882 1586.0006-918.6382 1586.0006-731 1586.0006-543.3618 1553.0947-384.31178 1487.2831-253.8498 1418.7771-118.046878 1323.6941-16.442292 1202.034 50.963998 1084.0713 116.32177 950.72659 149.00066 802 149.00066ZM802-107.000659C906.60678-107.000659 998.5954-128.98844 1077.966-172.96399 1153.6392-214.89107 1213.8895-280.28648 1258.7169-369.1502 1306.2385-463.3549 1329.9994-583.97146 1329.9994-731 1329.9994-878.0285 1306.2385-998.6451 1258.7169-1092.8497 1213.8894-1181.7135 1153.6392-1247.1089 1077.966-1289.036 998.5954-1333.0116 906.60678-1354.9994 802-1354.9994 697.3933-1354.9994 605.40469-1333.0116 526.0341-1289.036 450.36085-1247.1089 390.1105-1181.7135 345.28309-1092.8497 297.76148-998.64517 274.00068-878.02859 274.00068-731 274.00068-583.9714 297.76148-463.3548 345.28309-369.1502 390.11048-280.2865 450.3608-214.89109 526.0341-172.96399 605.40469-128.98844 697.39328-107.000659 802-107.000659ZM802-266.00068C861.29428-266.00068 912.3718-274.72593 955.23269-292.1764 994.38827-308.11833 1027.5662-331.97468 1054.7665-363.7455 1082.9186-396.6281 1104.6464-441.3242 1119.9497-497.83369 1137.3162-561.9614 1145.9994-639.68356 1145.9994-731 1145.9994-822.31649 1137.3162-900.0386 1119.9497-964.1663 1104.6464-1020.6759 1082.9186-1065.372 1054.7665-1098.2545 1027.5662-1130.0254 994.38827-1153.8817 955.23269-1169.8236 912.37179-1187.2742 861.2942-1195.9994 802-1195.9994 740.48019-1195.9994 688.12826-1186.9569 644.9441-1168.8721 606.12319-1152.6144 573.85818-1128.3357 548.1491-1096.036 519.9464-1060.6033 498.3034-1014.4621 483.22016-957.61239 466.40718-894.24307 458.00068-818.7056 458.00068-731 458.00068-643.2944 466.40718-567.75698 483.22016-504.38764 498.3034-447.53788 519.9464-401.39665 548.1491-365.964 573.85818-333.66429 606.12319-309.3856 644.9441-293.12797 688.1282-275.0431 740.48019-266.00068 802-266.00068ZM802-9.999344C706.1865-9.999344 620.8718-25.665246 546.0559-56.997049 466.87684-90.156078 400.80848-140.0024 347.85087-206.53601 250.61652-328.69697 201.99935-503.51829 201.99935-731 201.99935-958.4817 250.61652-1133.303 347.85087-1255.464 400.80848-1321.9976 466.8768-1371.8439 546.0559-1405.0029 620.87179-1436.3347 706.18649-1452.0006 802-1452.0006 894.7058-1452.0006 977.9616-1436.9758 1051.7673-1406.9264 1129.2785-1375.3684 1195.1005-1327.9747 1249.2335-1264.7455 1351.0783-1145.7876 1402.0006-967.87246 1402.0006-731 1402.0006-494.12763 1351.0783-316.21247 1249.2335-197.25449 1195.1005-134.02532 1129.2785-86.6317 1051.7673-55.073617 977.9615-25.024102 894.70578-9.999344 802-9.999344Z"/>
</g>
<g id="font_10_97">
<path transform="matrix(.00048828127,0,0,-.00048828127,0,0)" d="M1269.0006-1462V-1187.9994H683V-1316H811.0007V128.00066H383.99934V-1316H512V-1187.9994H-74.000659V-1590.0006H1269.0006V-1462ZM1012.9993-1462H1141V-1333.9994H54V-1462H182.00066V-1316H54V-1444.0006H640.0007V0H512V-128.00066H683V0H554.9993V-1444.0006H1141V-1316H1012.9993V-1462Z"/>
</g>
</defs>
<g>
<g clip-path="url(#clip_1)">
<path transform="matrix(.75,0,0,.75,0,0)" d="M0 0H1080V1080H0Z" fill="#ffffff"/>
</g>
<g clip-path="url(#clip_2)">
<path transform="matrix(.75,0,0,.75,0,0)" d="M0 0H1080V1080H0Z" fill="#ffffff"/>
</g>
<g clip-path="url(#clip_3)">
<g>
<g clip-path="url(#clip_4)">
<path transform="matrix(3.1640626,0,0,3.1640626,-.00000000000008526513,0)" d="M0 0H256V281H0Z" fill="#ffc700"/>
</g>
</g>
</g>
<g clip-path="url(#clip_5)">
<g>
<g clip-path="url(#clip_6)">
<path transform="matrix(.75559648,0,0,.75559648,315.64808,38.48416)" d="M0 0H256V787H0Z" fill="#fcca24"/>
</g>
</g>
</g>
<g clip-path="url(#clip_7)">
<path transform="matrix(.75,0,0,.75,315.64808,38.48416)" d="M77-10.994997H143V11.005003H77V-10.994997ZM154-10.994997H220V11.005003H154V-10.994997ZM231-10.994997H268.90626V39.09875H246.90625V.0050025989H257.90626V11.005003H231V-10.994997ZM268.90626 50.09875V116.098758H246.90625V50.09875H268.90626ZM268.90626 127.09876V193.09876H246.90625V127.09876H268.90626ZM268.90626 204.09874V270.09877H246.90625V204.09874H268.90626ZM268.90626 281.09877V347.09877H246.90625V281.09877H268.90626ZM268.90626 358.09877V424.09877H246.90625V358.09877H268.90626ZM268.90626 435.0988V501.09873H246.90625V435.0988H268.90626ZM268.90626 512.09878V578.09878H246.90625V512.09878H268.90626ZM268.90626 589.09878V655.09878H246.90625V589.09878H268.90626ZM268.90626 666.09878V732.09878H246.90625V666.09878H268.90626ZM268.90626 743.09878V804.27627H242.08374V782.27627H257.90626V793.27627H246.90625V743.09878H268.90626ZM231.08374 804.27627H165.08374V782.27627H231.08374V804.27627ZM154.08374 804.27627H88.08374V782.27627H154.08374V804.27627ZM77.08374 804.27627H11.08374V782.27627H77.08374V804.27627ZM.083740238 804.27627H-11V727.36H11V793.27627H0V782.27627H.083740238V804.27627ZM-11 716.36V650.36H11V716.36H-11ZM-11 639.36V573.36H11V639.36H-11ZM-11 562.36V496.36H11V562.36H-11ZM-11 485.36V419.36H11V485.36H-11ZM-11 408.36V342.36H11V408.36H-11ZM-11 331.36V265.36H11V331.36H-11ZM-11 254.35999V188.35999H11V254.35999H-11ZM-11 177.35999V111.359989H11V177.35999H-11ZM-11 100.359989V34.359987H11V100.359989H-11ZM-11 23.359986V-10.994997H66V11.005003H0V.0050025989H11V23.359986H-11Z"/>
</g>
<g clip-path="url(#clip_8)">
<use data-text="C" xlink:href="#font_9_15" transform="matrix(0,-148.98,-148.98,-0,469.36366,577.53878)" fill-opacity="0"/>
<use data-text="N" xlink:href="#font_9_66" transform="matrix(0,-148.98,-148.98,-0,469.36366,451.48036)" fill-opacity="0"/>
<use data-text="O" xlink:href="#font_9_72" transform="matrix(0,-148.98,-148.98,-0,469.36366,316.3296)" fill-opacity="0"/>
<use data-text="T" xlink:href="#font_9_97" transform="matrix(0,-148.98,-148.98,-0,469.36366,181.25183)" fill-opacity="0"/>
<use data-text="C" xlink:href="#font_10_15" transform="matrix(0,-148.98,-148.98,-0,469.36366,577.53878)" fill="#0572fd"/>
<use data-text="N" xlink:href="#font_10_66" transform="matrix(0,-148.98,-148.98,-0,469.36366,451.48036)" fill="#0572fd"/>
<use data-text="O" xlink:href="#font_10_72" transform="matrix(0,-148.98,-148.98,-0,469.36366,316.3296)" fill="#0572fd"/>
<use data-text="T" xlink:href="#font_10_97" transform="matrix(0,-148.98,-148.98,-0,469.36366,181.25183)" fill="#0572fd"/>
<use data-text="C" xlink:href="#font_9_15" transform="matrix(0,-148.98,-148.98,-0,469.36366,577.53878)"/>
<use data-text="N" xlink:href="#font_9_66" transform="matrix(0,-148.98,-148.98,-0,469.36366,451.48036)"/>
<use data-text="O" xlink:href="#font_9_72" transform="matrix(0,-148.98,-148.98,-0,469.36366,316.3296)"/>
<use data-text="T" xlink:href="#font_9_97" transform="matrix(0,-148.98,-148.98,-0,469.36366,181.25183)"/>
<path transform="matrix(.75,0,0,.75,509.08079,542.2551)" stroke-width="11" stroke-linecap="butt" stroke-miterlimit="4" stroke-linejoin="miter" fill="none" stroke="#000000" d="M0 5.5H401.22563"/>
<path transform="matrix(.75,.0000000000000005589946,-.0000000000000005589946,.75,-20.186766,542.2551)" stroke-width="11" stroke-linecap="butt" stroke-miterlimit="4" stroke-linejoin="miter" fill="none" stroke="#000000" d="M0 5.5H457.59904"/>
</g>
<path transform="matrix(1,0,0,-1,0,817.92)" d="M-.00000000000008526513-72.71348H810V817.92H-.00000000000008526513Z" fill-opacity="0"/>
<path transform="matrix(1,0,0,-1,0,817.92)" d="M315.64808 184.4731H509.0808V779.43588H315.64808Z" fill-opacity="0"/>
<path transform="matrix(1,0,0,-1,0,817.92)" d="M-20.186766 267.41487H323.0125V275.66487H-20.186766Z" fill-opacity="0"/>
<path transform="matrix(1,0,0,-1,0,817.92)" d="M512.746 267.41487H810V275.66487H512.746Z" fill-opacity="0"/>
</g>
</svg>
